M48
; DRILL file {KiCad (7.0.0)} date Tue Aug 22 13:37:00 2023
; FORMAT={-:-/ absolute / metric / decimal}
; #@! TF.CreationDate,2023-08-22T13:37:00-04:00
; #@! TF.GenerationSoftware,Kicad,Pcbnew,(7.0.0)
; #@! TF.FileFunction,Plated,1,4,PTH
FMAT,2
METRIC
; #@! TA.AperFunction,Plated,PTH,ComponentDrill
T1C0.200
; #@! TA.AperFunction,Plated,PTH,ComponentDrill
T2C0.300
; #@! TA.AperFunction,Plated,PTH,ViaDrill
T3C0.400
; #@! TA.AperFunction,Plated,PTH,ComponentDrill
T4C0.600
; #@! TA.AperFunction,Plated,PTH,ViaDrill
T5C0.762
; #@! TA.AperFunction,Plated,PTH,ComponentDrill
T6C1.450
; #@! TA.AperFunction,Plated,PTH,ComponentDrill
T7C1.500
%
G90
G05
T1
X115.247Y-62.367
X115.247Y-63.642
X115.247Y-64.917
X115.247Y-66.192
X115.247Y-67.467
X116.522Y-62.367
X116.522Y-63.642
X116.522Y-64.917
X116.522Y-66.192
X116.522Y-67.467
X117.797Y-62.367
X117.797Y-63.642
X117.797Y-64.917
X117.797Y-66.192
X117.797Y-67.467
X119.072Y-62.367
X119.072Y-63.642
X119.072Y-64.917
X119.072Y-66.192
X119.072Y-67.467
X120.347Y-62.367
X120.347Y-63.642
X120.347Y-64.917
X120.347Y-66.192
X120.347Y-67.467
X140.85Y-88.77
X140.85Y-89.72
X140.85Y-90.67
X140.85Y-91.62
X141.8Y-88.77
X141.8Y-89.72
X141.8Y-90.67
X141.8Y-91.62
X142.75Y-88.77
X142.75Y-89.72
X142.75Y-90.67
X142.75Y-91.62
X143.7Y-88.77
X143.7Y-89.72
X143.7Y-90.67
X143.7Y-91.62
T2
X105.7Y-109.522
X105.7Y-115.522
X105.7Y-116.38
X105.7Y-122.38
X106.45Y-109.522
X106.45Y-110.272
X106.45Y-111.022
X106.45Y-111.772
X106.45Y-112.522
X106.45Y-113.272
X106.45Y-114.022
X106.45Y-114.772
X106.45Y-115.522
X106.45Y-116.38
X106.45Y-117.13
X106.45Y-117.88
X106.45Y-118.63
X106.45Y-119.38
X106.45Y-120.13
X106.45Y-120.88
X106.45Y-121.63
X106.45Y-122.38
X107.2Y-109.522
X107.2Y-110.272
X107.2Y-112.522
X107.2Y-114.772
X107.2Y-115.522
X107.2Y-116.38
X107.2Y-117.13
X107.2Y-119.38
X107.2Y-121.63
X107.2Y-122.38
X107.95Y-109.522
X107.95Y-110.272
X107.95Y-112.522
X107.95Y-114.772
X107.95Y-115.522
X107.95Y-116.38
X107.95Y-117.13
X107.95Y-119.38
X107.95Y-121.63
X107.95Y-122.38
X108.7Y-109.522
X108.7Y-110.272
X108.7Y-112.522
X108.7Y-114.772
X108.7Y-115.522
X108.7Y-116.38
X108.7Y-117.13
X108.7Y-119.38
X108.7Y-121.63
X108.7Y-122.38
X109.45Y-109.522
X109.45Y-110.272
X109.45Y-111.022
X109.45Y-111.772
X109.45Y-112.522
X109.45Y-113.272
X109.45Y-114.022
X109.45Y-114.772
X109.45Y-115.522
X109.45Y-116.38
X109.45Y-117.13
X109.45Y-117.88
X109.45Y-118.63
X109.45Y-119.38
X109.45Y-120.13
X109.45Y-120.88
X109.45Y-121.63
X109.45Y-122.38
X110.03Y-101.89
X110.03Y-102.64
X110.03Y-103.39
X110.03Y-104.14
X110.03Y-104.89
X110.03Y-105.64
X110.03Y-106.39
X110.2Y-109.522
X110.2Y-115.522
X110.2Y-116.38
X110.2Y-122.38
X110.78Y-102.64
X110.78Y-103.39
X110.78Y-104.14
X110.78Y-104.89
X110.78Y-105.64
X111.53Y-102.64
X111.53Y-105.64
X112.28Y-102.64
X112.28Y-105.64
X113.03Y-102.64
X113.03Y-103.39
X113.03Y-104.14
X113.03Y-104.89
X113.03Y-105.64
X113.78Y-102.64
X113.78Y-105.64
X114.53Y-102.64
X114.53Y-105.64
X115.28Y-102.64
X115.28Y-103.39
X115.28Y-104.14
X115.28Y-104.89
X115.28Y-105.64
X116.03Y-101.89
X116.03Y-102.64
X116.03Y-103.39
X116.03Y-104.14
X116.03Y-104.89
X116.03Y-105.64
X116.03Y-106.39
X117.65Y-101.89
X117.65Y-102.64
X117.65Y-103.39
X117.65Y-104.14
X117.65Y-104.89
X117.65Y-105.64
X117.65Y-106.39
X118.4Y-102.64
X118.4Y-103.39
X118.4Y-104.14
X118.4Y-104.89
X118.4Y-105.64
X119.15Y-102.64
X119.15Y-105.64
X119.9Y-102.64
X119.9Y-105.64
X120.65Y-102.64
X120.65Y-103.39
X120.65Y-104.14
X120.65Y-104.89
X120.65Y-105.64
X121.4Y-102.64
X121.4Y-105.64
X122.15Y-102.64
X122.15Y-105.64
X122.9Y-102.64
X122.9Y-103.39
X122.9Y-104.14
X122.9Y-104.89
X122.9Y-105.64
X123.65Y-101.89
X123.65Y-102.64
X123.65Y-103.39
X123.65Y-104.14
X123.65Y-104.89
X123.65Y-105.64
X123.65Y-106.39
X130.35Y-101.89
X130.35Y-102.64
X130.35Y-103.39
X130.35Y-104.14
X130.35Y-104.89
X130.35Y-105.64
X130.35Y-106.39
X131.1Y-102.64
X131.1Y-103.39
X131.1Y-104.14
X131.1Y-104.89
X131.1Y-105.64
X131.85Y-102.64
X131.85Y-105.64
X132.6Y-102.64
X132.6Y-105.64
X133.35Y-102.64
X133.35Y-103.39
X133.35Y-104.14
X133.35Y-104.89
X133.35Y-105.64
X134.1Y-102.64
X134.1Y-105.64
X134.85Y-102.64
X134.85Y-105.64
X135.6Y-102.64
X135.6Y-103.39
X135.6Y-104.14
X135.6Y-104.89
X135.6Y-105.64
X136.35Y-101.89
X136.35Y-102.64
X136.35Y-103.39
X136.35Y-104.14
X136.35Y-104.89
X136.35Y-105.64
X136.35Y-106.39
X137.97Y-101.89
X137.97Y-102.64
X137.97Y-103.39
X137.97Y-104.14
X137.97Y-104.89
X137.97Y-105.64
X137.97Y-106.39
X138.72Y-102.64
X138.72Y-103.39
X138.72Y-104.14
X138.72Y-104.89
X138.72Y-105.64
X139.47Y-102.64
X139.47Y-105.64
X140.22Y-102.64
X140.22Y-105.64
X140.97Y-102.64
X140.97Y-103.39
X140.97Y-104.14
X140.97Y-104.89
X140.97Y-105.64
X141.72Y-102.64
X141.72Y-105.64
X142.47Y-102.64
X142.47Y-105.64
X143.22Y-102.64
X143.22Y-103.39
X143.22Y-104.14
X143.22Y-104.89
X143.22Y-105.64
X143.8Y-109.522
X143.8Y-115.522
X143.8Y-116.38
X143.8Y-122.38
X143.97Y-101.89
X143.97Y-102.64
X143.97Y-103.39
X143.97Y-104.14
X143.97Y-104.89
X143.97Y-105.64
X143.97Y-106.39
X144.55Y-109.522
X144.55Y-110.272
X144.55Y-111.022
X144.55Y-111.772
X144.55Y-112.522
X144.55Y-113.272
X144.55Y-114.022
X144.55Y-114.772
X144.55Y-115.522
X144.55Y-116.38
X144.55Y-117.13
X144.55Y-117.88
X144.55Y-118.63
X144.55Y-119.38
X144.55Y-120.13
X144.55Y-120.88
X144.55Y-121.63
X144.55Y-122.38
X145.3Y-109.522
X145.3Y-110.272
X145.3Y-112.522
X145.3Y-114.772
X145.3Y-115.522
X145.3Y-116.38
X145.3Y-117.13
X145.3Y-119.38
X145.3Y-121.63
X145.3Y-122.38
X146.05Y-109.522
X146.05Y-110.272
X146.05Y-112.522
X146.05Y-114.772
X146.05Y-115.522
X146.05Y-116.38
X146.05Y-117.13
X146.05Y-119.38
X146.05Y-121.63
X146.05Y-122.38
X146.8Y-109.522
X146.8Y-110.272
X146.8Y-112.522
X146.8Y-114.772
X146.8Y-115.522
X146.8Y-116.38
X146.8Y-117.13
X146.8Y-119.38
X146.8Y-121.63
X146.8Y-122.38
X147.55Y-109.522
X147.55Y-110.272
X147.55Y-111.022
X147.55Y-111.772
X147.55Y-112.522
X147.55Y-113.272
X147.55Y-114.022
X147.55Y-114.772
X147.55Y-115.522
X147.55Y-116.38
X147.55Y-117.13
X147.55Y-117.88
X147.55Y-118.63
X147.55Y-119.38
X147.55Y-120.13
X147.55Y-120.88
X147.55Y-121.63
X147.55Y-122.38
X148.3Y-109.522
X148.3Y-115.522
X148.3Y-116.38
X148.3Y-122.38
T3
X91.77Y-109.652
X91.77Y-120.269
X92.939Y-77.851
X93.828Y-88.925
X93.903Y-77.195
X94.209Y-64.821
X94.538Y-89.661
X94.612Y-76.486
X95.05Y-114.08
X95.056Y-113.077
X95.063Y-112.074
X95.092Y-115.087
X95.129Y-116.115
X95.147Y-117.149
X95.194Y-118.186
X95.243Y-90.373
X95.321Y-75.777
X97.871Y-92.202
X98.806Y-58.293
X98.972Y-102.306
X99.111Y-76.32
X99.541Y-62.808
X99.543Y-63.811
X99.551Y-60.804
X99.568Y-61.806
X99.593Y-103.2
X99.802Y-81.704
X100.145Y-113.005
X100.162Y-124.145
X100.261Y-104.922
X100.701Y-76.727
X101.092Y-106.096
X101.531Y-81.712
X101.669Y-104.877
X101.703Y-76.727
X101.79Y-118.777
X103.556Y-57.226
X103.835Y-113.03
X104.242Y-65.964
X104.277Y-67.287
X104.292Y-68.504
X104.648Y-82.169
X104.648Y-83.185
X104.648Y-84.201
X104.648Y-85.217
X104.648Y-86.233
X104.648Y-87.249
X105.664Y-82.169
X105.664Y-87.757
X106.091Y-96.337
X106.451Y-97.587
X106.68Y-82.169
X106.68Y-87.757
X106.934Y-101.981
X106.934Y-103.505
X106.934Y-105.029
X106.934Y-106.553
X106.934Y-108.077
X107.404Y-72.409
X108.203Y-82.14
X108.204Y-79.248
X108.204Y-87.757
X108.407Y-72.409
X109.22Y-87.757
X109.407Y-72.478
X109.789Y-63.794
X109.906Y-62.798
X110.109Y-82.169
X110.109Y-83.185
X110.109Y-84.201
X110.109Y-85.217
X110.109Y-86.233
X110.109Y-87.249
X110.409Y-72.437
X110.592Y-64.567
X110.693Y-69.342
X110.744Y-90.043
X110.744Y-99.797
X111.411Y-72.432
X111.684Y-64.509
X111.709Y-58.852
X112.014Y-90.068
X112.078Y-61.79
X112.268Y-112.141
X112.268Y-113.157
X112.268Y-114.173
X112.268Y-115.189
X112.268Y-117.729
X112.268Y-118.745
X112.268Y-120.777
X112.268Y-121.793
X112.431Y-72.409
X112.471Y-81.534
X112.526Y-65.054
X112.598Y-56.21
X112.7Y-74.854
X112.776Y-108.585
X113.132Y-67.564
X113.163Y-61.879
X113.196Y-60.877
X113.36Y-79.698
X113.563Y-84.234
X113.792Y-108.585
X113.843Y-58.42
X113.929Y-72.422
X113.976Y-70.607
X114.808Y-108.585
X114.959Y-70.897
X115.248Y-69.937
X115.342Y-60.343
X115.418Y-84.353
X115.57Y-56.739
X115.824Y-108.585
X115.978Y-78.29
X116.993Y-71.45
X117.018Y-95.453
X117.727Y-70.767
X118.135Y-99.822
X118.161Y-72.902
X118.257Y-60.026
X119.126Y-108.585
X119.253Y-56.002
X119.339Y-69.788
X119.736Y-72.902
X120.142Y-108.585
X120.266Y-70.169
X120.802Y-95.504
X120.904Y-85.725
X120.904Y-90.297
X120.904Y-91.567
X121.158Y-108.585
X121.26Y-72.847
X121.412Y-68.605
X121.514Y-70.169
X121.666Y-84.963
X122.174Y-108.585
X122.192Y-67.868
X122.428Y-88.773
X122.504Y-61.664
X122.58Y-52.248
X122.758Y-62.687
X122.784Y-72.797
X123.698Y-88.773
X123.761Y-63.246
X123.8Y-59.639
X124.764Y-63.246
X124.968Y-88.773
X125.374Y-74.93
X125.501Y-77.8
X125.545Y-67.462
X125.578Y-69.164
X125.73Y-83.947
X125.73Y-85.217
X125.73Y-86.487
X126.238Y-88.773
X126.314Y-77.096
X126.488Y-54.937
X126.85Y-54.0
X127.0Y-83.947
X127.0Y-85.217
X127.0Y-86.487
X127.126Y-76.392
X127.254Y-101.981
X127.254Y-103.505
X127.254Y-105.029
X127.254Y-106.553
X127.254Y-108.077
X127.483Y-61.671
X127.508Y-88.773
X127.686Y-55.268
X127.866Y-75.687
X128.27Y-83.947
X128.27Y-85.217
X128.27Y-86.487
X128.778Y-88.773
X129.156Y-74.506
X129.159Y-58.395
X129.21Y-57.201
X129.86Y-73.792
X130.048Y-88.773
X131.013Y-72.415
X131.318Y-88.773
X131.572Y-70.427
X131.826Y-108.585
X132.258Y-64.922
X132.842Y-108.585
X133.858Y-108.585
X134.112Y-65.151
X134.112Y-66.167
X134.112Y-67.183
X134.112Y-68.199
X134.442Y-59.309
X134.493Y-61.57
X134.645Y-95.504
X134.671Y-53.924
X134.874Y-108.585
X134.909Y-72.878
X134.909Y-73.928
X135.103Y-62.865
X135.261Y-97.675
X135.604Y-85.09
X135.966Y-70.427
X136.068Y-52.515
X136.119Y-61.697
X136.308Y-85.811
X136.576Y-65.329
X137.017Y-86.528
X137.16Y-75.057
X137.741Y-87.252
X137.922Y-71.755
X137.922Y-75.057
X137.947Y-67.285
X138.176Y-108.585
X138.684Y-71.755
X138.684Y-75.057
X139.192Y-108.585
X140.208Y-108.585
X140.36Y-60.808
X140.513Y-86.436
X140.589Y-64.135
X140.589Y-65.024
X140.589Y-65.913
X140.818Y-99.695
X141.122Y-82.855
X141.224Y-108.585
X141.605Y-60.706
X141.63Y-66.7
X141.732Y-112.141
X141.732Y-113.157
X141.732Y-114.173
X141.732Y-115.189
X141.732Y-117.729
X141.732Y-118.745
X141.732Y-120.777
X141.732Y-121.793
X141.812Y-72.568
X141.812Y-74.27
X142.011Y-70.714
X142.221Y-94.31
X143.612Y-84.813
X145.136Y-87.351
X145.288Y-84.811
X145.542Y-68.199
X145.542Y-69.469
X146.101Y-58.496
X146.812Y-68.199
X146.812Y-69.469
X146.837Y-85.573
X147.066Y-101.981
X147.066Y-103.505
X147.066Y-105.029
X147.066Y-106.553
X147.066Y-108.077
X147.701Y-96.749
X148.387Y-87.249
X148.59Y-72.009
X148.59Y-73.279
X148.946Y-98.755
X149.301Y-99.771
X149.53Y-58.445
X149.86Y-72.009
X149.86Y-73.279
X151.13Y-72.009
X151.13Y-73.279
X151.638Y-107.315
X153.365Y-107.239
X154.315Y-113.589
X154.762Y-122.911
X154.838Y-124.358
X154.911Y-115.646
X157.226Y-66.548
X157.226Y-67.818
X157.226Y-69.088
X157.226Y-70.358
X158.977Y-114.08
X158.979Y-115.083
X158.988Y-113.077
X159.022Y-112.065
X159.029Y-117.086
X159.037Y-116.084
X162.255Y-109.804
X162.255Y-119.278
T5
X153.416Y-70.485
X153.416Y-72.517
X153.416Y-74.549
T6
X123.19Y-90.932
X123.19Y-93.472
X123.19Y-96.012
X123.19Y-98.552
X125.73Y-90.932
X125.73Y-93.472
X125.73Y-96.012
X125.73Y-98.552
X128.27Y-90.932
X128.27Y-93.472
X128.27Y-96.012
X128.27Y-98.552
X130.81Y-90.932
X130.81Y-93.472
X130.81Y-96.012
X130.81Y-98.552
T7
X118.0Y-113.135
X118.0Y-121.135
X119.5Y-115.635
X119.5Y-118.635
X121.0Y-113.135
X121.0Y-121.135
X122.5Y-115.635
X122.5Y-118.635
X124.0Y-113.135
X124.0Y-121.135
X125.5Y-115.635
X125.5Y-118.635
X127.0Y-113.135
X127.0Y-121.135
X128.5Y-115.635
X128.5Y-118.635
X130.0Y-113.135
X130.0Y-121.135
X131.5Y-115.635
X131.5Y-118.635
X133.0Y-113.135
X133.0Y-121.135
X134.5Y-115.635
X134.5Y-118.635
X136.0Y-113.135
X136.0Y-121.135
T4
X102.335Y-51.797G85X102.335Y-50.497
G05
X102.335Y-55.472G85X102.335Y-54.472
G05
X110.975Y-51.797G85X110.975Y-50.497
G05
X110.975Y-55.472G85X110.975Y-54.472
G05
T0
M30
