%TF.GenerationSoftware,KiCad,Pcbnew,(7.0.0)*%
%TF.CreationDate,2023-08-22T13:37:15-04:00*%
%TF.ProjectId,Power Module Rev 5,506f7765-7220-44d6-9f64-756c65205265,rev?*%
%TF.SameCoordinates,Original*%
%TF.FileFunction,Drillmap*%
%TF.FilePolarity,Positive*%
%FSLAX45Y45*%
G04 Gerber Fmt 4.5, Leading zero omitted, Abs format (unit mm)*
G04 Created by KiCad (PCBNEW (7.0.0)) date 2023-08-22 13:37:15*
%MOMM*%
%LPD*%
G01*
G04 APERTURE LIST*
%ADD10C,0.160000*%
%ADD11C,0.200000*%
%ADD12C,0.020000*%
%ADD13C,0.030000*%
%ADD14C,0.040000*%
%ADD15C,0.060000*%
%ADD16C,0.076200*%
%ADD17C,0.145000*%
%ADD18C,0.150000*%
G04 APERTURE END LIST*
D10*
X16027400Y-12484100D02*
G75*
G03*
X16027400Y-12484100I-152400J0D01*
G01*
X16027400Y-5499100D02*
G75*
G03*
X16027400Y-5499100I-152400J0D01*
G01*
X9677400Y-5499100D02*
G75*
G03*
X9677400Y-5499100I-152400J0D01*
G01*
X9525000Y-4864100D02*
G75*
G03*
X8890000Y-5499100I0J-635000D01*
G01*
X9525000Y-4864100D02*
X15875000Y-4864100D01*
X9677400Y-12484100D02*
G75*
G03*
X9677400Y-12484100I-152400J0D01*
G01*
X15875000Y-13119100D02*
X9525000Y-13119100D01*
X16510000Y-5499100D02*
X16510000Y-12484100D01*
X8890000Y-12484100D02*
G75*
G03*
X9525000Y-13119100I635000J0D01*
G01*
X8890000Y-12484100D02*
X8890000Y-5499100D01*
X15875000Y-13119100D02*
G75*
G03*
X16510000Y-12484100I0J635000D01*
G01*
X16510000Y-5499100D02*
G75*
G03*
X15875000Y-4864100I-635000J0D01*
G01*
D11*
D12*
X11514670Y-6226700D02*
X11534670Y-6246700D01*
X11534670Y-6226700D02*
X11514670Y-6246700D01*
X11514670Y-6354200D02*
X11534670Y-6374200D01*
X11534670Y-6354200D02*
X11514670Y-6374200D01*
X11514670Y-6481700D02*
X11534670Y-6501700D01*
X11534670Y-6481700D02*
X11514670Y-6501700D01*
X11514670Y-6609200D02*
X11534670Y-6629200D01*
X11534670Y-6609200D02*
X11514670Y-6629200D01*
X11514670Y-6736700D02*
X11534670Y-6756700D01*
X11534670Y-6736700D02*
X11514670Y-6756700D01*
X11642170Y-6226700D02*
X11662170Y-6246700D01*
X11662170Y-6226700D02*
X11642170Y-6246700D01*
X11642170Y-6354200D02*
X11662170Y-6374200D01*
X11662170Y-6354200D02*
X11642170Y-6374200D01*
X11642170Y-6481700D02*
X11662170Y-6501700D01*
X11662170Y-6481700D02*
X11642170Y-6501700D01*
X11642170Y-6609200D02*
X11662170Y-6629200D01*
X11662170Y-6609200D02*
X11642170Y-6629200D01*
X11642170Y-6736700D02*
X11662170Y-6756700D01*
X11662170Y-6736700D02*
X11642170Y-6756700D01*
X11769670Y-6226700D02*
X11789670Y-6246700D01*
X11789670Y-6226700D02*
X11769670Y-6246700D01*
X11769670Y-6354200D02*
X11789670Y-6374200D01*
X11789670Y-6354200D02*
X11769670Y-6374200D01*
X11769670Y-6481700D02*
X11789670Y-6501700D01*
X11789670Y-6481700D02*
X11769670Y-6501700D01*
X11769670Y-6609200D02*
X11789670Y-6629200D01*
X11789670Y-6609200D02*
X11769670Y-6629200D01*
X11769670Y-6736700D02*
X11789670Y-6756700D01*
X11789670Y-6736700D02*
X11769670Y-6756700D01*
X11897170Y-6226700D02*
X11917170Y-6246700D01*
X11917170Y-6226700D02*
X11897170Y-6246700D01*
X11897170Y-6354200D02*
X11917170Y-6374200D01*
X11917170Y-6354200D02*
X11897170Y-6374200D01*
X11897170Y-6481700D02*
X11917170Y-6501700D01*
X11917170Y-6481700D02*
X11897170Y-6501700D01*
X11897170Y-6609200D02*
X11917170Y-6629200D01*
X11917170Y-6609200D02*
X11897170Y-6629200D01*
X11897170Y-6736700D02*
X11917170Y-6756700D01*
X11917170Y-6736700D02*
X11897170Y-6756700D01*
X12024670Y-6226700D02*
X12044670Y-6246700D01*
X12044670Y-6226700D02*
X12024670Y-6246700D01*
X12024670Y-6354200D02*
X12044670Y-6374200D01*
X12044670Y-6354200D02*
X12024670Y-6374200D01*
X12024670Y-6481700D02*
X12044670Y-6501700D01*
X12044670Y-6481700D02*
X12024670Y-6501700D01*
X12024670Y-6609200D02*
X12044670Y-6629200D01*
X12044670Y-6609200D02*
X12024670Y-6629200D01*
X12024670Y-6736700D02*
X12044670Y-6756700D01*
X12044670Y-6736700D02*
X12024670Y-6756700D01*
X14075040Y-8866980D02*
X14095040Y-8886980D01*
X14095040Y-8866980D02*
X14075040Y-8886980D01*
X14075040Y-8961980D02*
X14095040Y-8981980D01*
X14095040Y-8961980D02*
X14075040Y-8981980D01*
X14075040Y-9056980D02*
X14095040Y-9076980D01*
X14095040Y-9056980D02*
X14075040Y-9076980D01*
X14075040Y-9151980D02*
X14095040Y-9171980D01*
X14095040Y-9151980D02*
X14075040Y-9171980D01*
X14170040Y-8866980D02*
X14190040Y-8886980D01*
X14190040Y-8866980D02*
X14170040Y-8886980D01*
X14170040Y-8961980D02*
X14190040Y-8981980D01*
X14190040Y-8961980D02*
X14170040Y-8981980D01*
X14170040Y-9056980D02*
X14190040Y-9076980D01*
X14190040Y-9056980D02*
X14170040Y-9076980D01*
X14170040Y-9151980D02*
X14190040Y-9171980D01*
X14190040Y-9151980D02*
X14170040Y-9171980D01*
X14265040Y-8866980D02*
X14285040Y-8886980D01*
X14285040Y-8866980D02*
X14265040Y-8886980D01*
X14265040Y-8961980D02*
X14285040Y-8981980D01*
X14285040Y-8961980D02*
X14265040Y-8981980D01*
X14265040Y-9056980D02*
X14285040Y-9076980D01*
X14285040Y-9056980D02*
X14265040Y-9076980D01*
X14265040Y-9151980D02*
X14285040Y-9171980D01*
X14285040Y-9151980D02*
X14265040Y-9171980D01*
X14360040Y-8866980D02*
X14380040Y-8886980D01*
X14380040Y-8866980D02*
X14360040Y-8886980D01*
X14360040Y-8961980D02*
X14380040Y-8981980D01*
X14380040Y-8961980D02*
X14360040Y-8981980D01*
X14360040Y-9056980D02*
X14380040Y-9076980D01*
X14380040Y-9056980D02*
X14360040Y-9076980D01*
X14360040Y-9151980D02*
X14380040Y-9171980D01*
X14380040Y-9151980D02*
X14360040Y-9171980D01*
D13*
X10585000Y-10952200D02*
G75*
G03*
X10585000Y-10952200I-15000J0D01*
G01*
X10585000Y-11552200D02*
G75*
G03*
X10585000Y-11552200I-15000J0D01*
G01*
X10585000Y-11638000D02*
G75*
G03*
X10585000Y-11638000I-15000J0D01*
G01*
X10585000Y-12238000D02*
G75*
G03*
X10585000Y-12238000I-15000J0D01*
G01*
X10660000Y-10952200D02*
G75*
G03*
X10660000Y-10952200I-15000J0D01*
G01*
X10660000Y-11027200D02*
G75*
G03*
X10660000Y-11027200I-15000J0D01*
G01*
X10660000Y-11102200D02*
G75*
G03*
X10660000Y-11102200I-15000J0D01*
G01*
X10660000Y-11177200D02*
G75*
G03*
X10660000Y-11177200I-15000J0D01*
G01*
X10660000Y-11252200D02*
G75*
G03*
X10660000Y-11252200I-15000J0D01*
G01*
X10660000Y-11327200D02*
G75*
G03*
X10660000Y-11327200I-15000J0D01*
G01*
X10660000Y-11402200D02*
G75*
G03*
X10660000Y-11402200I-15000J0D01*
G01*
X10660000Y-11477200D02*
G75*
G03*
X10660000Y-11477200I-15000J0D01*
G01*
X10660000Y-11552200D02*
G75*
G03*
X10660000Y-11552200I-15000J0D01*
G01*
X10660000Y-11638000D02*
G75*
G03*
X10660000Y-11638000I-15000J0D01*
G01*
X10660000Y-11713000D02*
G75*
G03*
X10660000Y-11713000I-15000J0D01*
G01*
X10660000Y-11788000D02*
G75*
G03*
X10660000Y-11788000I-15000J0D01*
G01*
X10660000Y-11863000D02*
G75*
G03*
X10660000Y-11863000I-15000J0D01*
G01*
X10660000Y-11938000D02*
G75*
G03*
X10660000Y-11938000I-15000J0D01*
G01*
X10660000Y-12013000D02*
G75*
G03*
X10660000Y-12013000I-15000J0D01*
G01*
X10660000Y-12088000D02*
G75*
G03*
X10660000Y-12088000I-15000J0D01*
G01*
X10660000Y-12163000D02*
G75*
G03*
X10660000Y-12163000I-15000J0D01*
G01*
X10660000Y-12238000D02*
G75*
G03*
X10660000Y-12238000I-15000J0D01*
G01*
X10735000Y-10952200D02*
G75*
G03*
X10735000Y-10952200I-15000J0D01*
G01*
X10735000Y-11027200D02*
G75*
G03*
X10735000Y-11027200I-15000J0D01*
G01*
X10735000Y-11252200D02*
G75*
G03*
X10735000Y-11252200I-15000J0D01*
G01*
X10735000Y-11477200D02*
G75*
G03*
X10735000Y-11477200I-15000J0D01*
G01*
X10735000Y-11552200D02*
G75*
G03*
X10735000Y-11552200I-15000J0D01*
G01*
X10735000Y-11638000D02*
G75*
G03*
X10735000Y-11638000I-15000J0D01*
G01*
X10735000Y-11713000D02*
G75*
G03*
X10735000Y-11713000I-15000J0D01*
G01*
X10735000Y-11938000D02*
G75*
G03*
X10735000Y-11938000I-15000J0D01*
G01*
X10735000Y-12163000D02*
G75*
G03*
X10735000Y-12163000I-15000J0D01*
G01*
X10735000Y-12238000D02*
G75*
G03*
X10735000Y-12238000I-15000J0D01*
G01*
X10810000Y-10952200D02*
G75*
G03*
X10810000Y-10952200I-15000J0D01*
G01*
X10810000Y-11027200D02*
G75*
G03*
X10810000Y-11027200I-15000J0D01*
G01*
X10810000Y-11252200D02*
G75*
G03*
X10810000Y-11252200I-15000J0D01*
G01*
X10810000Y-11477200D02*
G75*
G03*
X10810000Y-11477200I-15000J0D01*
G01*
X10810000Y-11552200D02*
G75*
G03*
X10810000Y-11552200I-15000J0D01*
G01*
X10810000Y-11638000D02*
G75*
G03*
X10810000Y-11638000I-15000J0D01*
G01*
X10810000Y-11713000D02*
G75*
G03*
X10810000Y-11713000I-15000J0D01*
G01*
X10810000Y-11938000D02*
G75*
G03*
X10810000Y-11938000I-15000J0D01*
G01*
X10810000Y-12163000D02*
G75*
G03*
X10810000Y-12163000I-15000J0D01*
G01*
X10810000Y-12238000D02*
G75*
G03*
X10810000Y-12238000I-15000J0D01*
G01*
X10885000Y-10952200D02*
G75*
G03*
X10885000Y-10952200I-15000J0D01*
G01*
X10885000Y-11027200D02*
G75*
G03*
X10885000Y-11027200I-15000J0D01*
G01*
X10885000Y-11252200D02*
G75*
G03*
X10885000Y-11252200I-15000J0D01*
G01*
X10885000Y-11477200D02*
G75*
G03*
X10885000Y-11477200I-15000J0D01*
G01*
X10885000Y-11552200D02*
G75*
G03*
X10885000Y-11552200I-15000J0D01*
G01*
X10885000Y-11638000D02*
G75*
G03*
X10885000Y-11638000I-15000J0D01*
G01*
X10885000Y-11713000D02*
G75*
G03*
X10885000Y-11713000I-15000J0D01*
G01*
X10885000Y-11938000D02*
G75*
G03*
X10885000Y-11938000I-15000J0D01*
G01*
X10885000Y-12163000D02*
G75*
G03*
X10885000Y-12163000I-15000J0D01*
G01*
X10885000Y-12238000D02*
G75*
G03*
X10885000Y-12238000I-15000J0D01*
G01*
X10960000Y-10952200D02*
G75*
G03*
X10960000Y-10952200I-15000J0D01*
G01*
X10960000Y-11027200D02*
G75*
G03*
X10960000Y-11027200I-15000J0D01*
G01*
X10960000Y-11102200D02*
G75*
G03*
X10960000Y-11102200I-15000J0D01*
G01*
X10960000Y-11177200D02*
G75*
G03*
X10960000Y-11177200I-15000J0D01*
G01*
X10960000Y-11252200D02*
G75*
G03*
X10960000Y-11252200I-15000J0D01*
G01*
X10960000Y-11327200D02*
G75*
G03*
X10960000Y-11327200I-15000J0D01*
G01*
X10960000Y-11402200D02*
G75*
G03*
X10960000Y-11402200I-15000J0D01*
G01*
X10960000Y-11477200D02*
G75*
G03*
X10960000Y-11477200I-15000J0D01*
G01*
X10960000Y-11552200D02*
G75*
G03*
X10960000Y-11552200I-15000J0D01*
G01*
X10960000Y-11638000D02*
G75*
G03*
X10960000Y-11638000I-15000J0D01*
G01*
X10960000Y-11713000D02*
G75*
G03*
X10960000Y-11713000I-15000J0D01*
G01*
X10960000Y-11788000D02*
G75*
G03*
X10960000Y-11788000I-15000J0D01*
G01*
X10960000Y-11863000D02*
G75*
G03*
X10960000Y-11863000I-15000J0D01*
G01*
X10960000Y-11938000D02*
G75*
G03*
X10960000Y-11938000I-15000J0D01*
G01*
X10960000Y-12013000D02*
G75*
G03*
X10960000Y-12013000I-15000J0D01*
G01*
X10960000Y-12088000D02*
G75*
G03*
X10960000Y-12088000I-15000J0D01*
G01*
X10960000Y-12163000D02*
G75*
G03*
X10960000Y-12163000I-15000J0D01*
G01*
X10960000Y-12238000D02*
G75*
G03*
X10960000Y-12238000I-15000J0D01*
G01*
X11018000Y-10189000D02*
G75*
G03*
X11018000Y-10189000I-15000J0D01*
G01*
X11018000Y-10264000D02*
G75*
G03*
X11018000Y-10264000I-15000J0D01*
G01*
X11018000Y-10339000D02*
G75*
G03*
X11018000Y-10339000I-15000J0D01*
G01*
X11018000Y-10414000D02*
G75*
G03*
X11018000Y-10414000I-15000J0D01*
G01*
X11018000Y-10489000D02*
G75*
G03*
X11018000Y-10489000I-15000J0D01*
G01*
X11018000Y-10564000D02*
G75*
G03*
X11018000Y-10564000I-15000J0D01*
G01*
X11018000Y-10639000D02*
G75*
G03*
X11018000Y-10639000I-15000J0D01*
G01*
X11035000Y-10952200D02*
G75*
G03*
X11035000Y-10952200I-15000J0D01*
G01*
X11035000Y-11552200D02*
G75*
G03*
X11035000Y-11552200I-15000J0D01*
G01*
X11035000Y-11638000D02*
G75*
G03*
X11035000Y-11638000I-15000J0D01*
G01*
X11035000Y-12238000D02*
G75*
G03*
X11035000Y-12238000I-15000J0D01*
G01*
X11093000Y-10264000D02*
G75*
G03*
X11093000Y-10264000I-15000J0D01*
G01*
X11093000Y-10339000D02*
G75*
G03*
X11093000Y-10339000I-15000J0D01*
G01*
X11093000Y-10414000D02*
G75*
G03*
X11093000Y-10414000I-15000J0D01*
G01*
X11093000Y-10489000D02*
G75*
G03*
X11093000Y-10489000I-15000J0D01*
G01*
X11093000Y-10564000D02*
G75*
G03*
X11093000Y-10564000I-15000J0D01*
G01*
X11168000Y-10264000D02*
G75*
G03*
X11168000Y-10264000I-15000J0D01*
G01*
X11168000Y-10564000D02*
G75*
G03*
X11168000Y-10564000I-15000J0D01*
G01*
X11243000Y-10264000D02*
G75*
G03*
X11243000Y-10264000I-15000J0D01*
G01*
X11243000Y-10564000D02*
G75*
G03*
X11243000Y-10564000I-15000J0D01*
G01*
X11318000Y-10264000D02*
G75*
G03*
X11318000Y-10264000I-15000J0D01*
G01*
X11318000Y-10339000D02*
G75*
G03*
X11318000Y-10339000I-15000J0D01*
G01*
X11318000Y-10414000D02*
G75*
G03*
X11318000Y-10414000I-15000J0D01*
G01*
X11318000Y-10489000D02*
G75*
G03*
X11318000Y-10489000I-15000J0D01*
G01*
X11318000Y-10564000D02*
G75*
G03*
X11318000Y-10564000I-15000J0D01*
G01*
X11393000Y-10264000D02*
G75*
G03*
X11393000Y-10264000I-15000J0D01*
G01*
X11393000Y-10564000D02*
G75*
G03*
X11393000Y-10564000I-15000J0D01*
G01*
X11468000Y-10264000D02*
G75*
G03*
X11468000Y-10264000I-15000J0D01*
G01*
X11468000Y-10564000D02*
G75*
G03*
X11468000Y-10564000I-15000J0D01*
G01*
X11543000Y-10264000D02*
G75*
G03*
X11543000Y-10264000I-15000J0D01*
G01*
X11543000Y-10339000D02*
G75*
G03*
X11543000Y-10339000I-15000J0D01*
G01*
X11543000Y-10414000D02*
G75*
G03*
X11543000Y-10414000I-15000J0D01*
G01*
X11543000Y-10489000D02*
G75*
G03*
X11543000Y-10489000I-15000J0D01*
G01*
X11543000Y-10564000D02*
G75*
G03*
X11543000Y-10564000I-15000J0D01*
G01*
X11618000Y-10189000D02*
G75*
G03*
X11618000Y-10189000I-15000J0D01*
G01*
X11618000Y-10264000D02*
G75*
G03*
X11618000Y-10264000I-15000J0D01*
G01*
X11618000Y-10339000D02*
G75*
G03*
X11618000Y-10339000I-15000J0D01*
G01*
X11618000Y-10414000D02*
G75*
G03*
X11618000Y-10414000I-15000J0D01*
G01*
X11618000Y-10489000D02*
G75*
G03*
X11618000Y-10489000I-15000J0D01*
G01*
X11618000Y-10564000D02*
G75*
G03*
X11618000Y-10564000I-15000J0D01*
G01*
X11618000Y-10639000D02*
G75*
G03*
X11618000Y-10639000I-15000J0D01*
G01*
X11780000Y-10189000D02*
G75*
G03*
X11780000Y-10189000I-15000J0D01*
G01*
X11780000Y-10264000D02*
G75*
G03*
X11780000Y-10264000I-15000J0D01*
G01*
X11780000Y-10339000D02*
G75*
G03*
X11780000Y-10339000I-15000J0D01*
G01*
X11780000Y-10414000D02*
G75*
G03*
X11780000Y-10414000I-15000J0D01*
G01*
X11780000Y-10489000D02*
G75*
G03*
X11780000Y-10489000I-15000J0D01*
G01*
X11780000Y-10564000D02*
G75*
G03*
X11780000Y-10564000I-15000J0D01*
G01*
X11780000Y-10639000D02*
G75*
G03*
X11780000Y-10639000I-15000J0D01*
G01*
X11855000Y-10264000D02*
G75*
G03*
X11855000Y-10264000I-15000J0D01*
G01*
X11855000Y-10339000D02*
G75*
G03*
X11855000Y-10339000I-15000J0D01*
G01*
X11855000Y-10414000D02*
G75*
G03*
X11855000Y-10414000I-15000J0D01*
G01*
X11855000Y-10489000D02*
G75*
G03*
X11855000Y-10489000I-15000J0D01*
G01*
X11855000Y-10564000D02*
G75*
G03*
X11855000Y-10564000I-15000J0D01*
G01*
X11930000Y-10264000D02*
G75*
G03*
X11930000Y-10264000I-15000J0D01*
G01*
X11930000Y-10564000D02*
G75*
G03*
X11930000Y-10564000I-15000J0D01*
G01*
X12005000Y-10264000D02*
G75*
G03*
X12005000Y-10264000I-15000J0D01*
G01*
X12005000Y-10564000D02*
G75*
G03*
X12005000Y-10564000I-15000J0D01*
G01*
X12080000Y-10264000D02*
G75*
G03*
X12080000Y-10264000I-15000J0D01*
G01*
X12080000Y-10339000D02*
G75*
G03*
X12080000Y-10339000I-15000J0D01*
G01*
X12080000Y-10414000D02*
G75*
G03*
X12080000Y-10414000I-15000J0D01*
G01*
X12080000Y-10489000D02*
G75*
G03*
X12080000Y-10489000I-15000J0D01*
G01*
X12080000Y-10564000D02*
G75*
G03*
X12080000Y-10564000I-15000J0D01*
G01*
X12155000Y-10264000D02*
G75*
G03*
X12155000Y-10264000I-15000J0D01*
G01*
X12155000Y-10564000D02*
G75*
G03*
X12155000Y-10564000I-15000J0D01*
G01*
X12230000Y-10264000D02*
G75*
G03*
X12230000Y-10264000I-15000J0D01*
G01*
X12230000Y-10564000D02*
G75*
G03*
X12230000Y-10564000I-15000J0D01*
G01*
X12305000Y-10264000D02*
G75*
G03*
X12305000Y-10264000I-15000J0D01*
G01*
X12305000Y-10339000D02*
G75*
G03*
X12305000Y-10339000I-15000J0D01*
G01*
X12305000Y-10414000D02*
G75*
G03*
X12305000Y-10414000I-15000J0D01*
G01*
X12305000Y-10489000D02*
G75*
G03*
X12305000Y-10489000I-15000J0D01*
G01*
X12305000Y-10564000D02*
G75*
G03*
X12305000Y-10564000I-15000J0D01*
G01*
X12380000Y-10189000D02*
G75*
G03*
X12380000Y-10189000I-15000J0D01*
G01*
X12380000Y-10264000D02*
G75*
G03*
X12380000Y-10264000I-15000J0D01*
G01*
X12380000Y-10339000D02*
G75*
G03*
X12380000Y-10339000I-15000J0D01*
G01*
X12380000Y-10414000D02*
G75*
G03*
X12380000Y-10414000I-15000J0D01*
G01*
X12380000Y-10489000D02*
G75*
G03*
X12380000Y-10489000I-15000J0D01*
G01*
X12380000Y-10564000D02*
G75*
G03*
X12380000Y-10564000I-15000J0D01*
G01*
X12380000Y-10639000D02*
G75*
G03*
X12380000Y-10639000I-15000J0D01*
G01*
X13050000Y-10189000D02*
G75*
G03*
X13050000Y-10189000I-15000J0D01*
G01*
X13050000Y-10264000D02*
G75*
G03*
X13050000Y-10264000I-15000J0D01*
G01*
X13050000Y-10339000D02*
G75*
G03*
X13050000Y-10339000I-15000J0D01*
G01*
X13050000Y-10414000D02*
G75*
G03*
X13050000Y-10414000I-15000J0D01*
G01*
X13050000Y-10489000D02*
G75*
G03*
X13050000Y-10489000I-15000J0D01*
G01*
X13050000Y-10564000D02*
G75*
G03*
X13050000Y-10564000I-15000J0D01*
G01*
X13050000Y-10639000D02*
G75*
G03*
X13050000Y-10639000I-15000J0D01*
G01*
X13125000Y-10264000D02*
G75*
G03*
X13125000Y-10264000I-15000J0D01*
G01*
X13125000Y-10339000D02*
G75*
G03*
X13125000Y-10339000I-15000J0D01*
G01*
X13125000Y-10414000D02*
G75*
G03*
X13125000Y-10414000I-15000J0D01*
G01*
X13125000Y-10489000D02*
G75*
G03*
X13125000Y-10489000I-15000J0D01*
G01*
X13125000Y-10564000D02*
G75*
G03*
X13125000Y-10564000I-15000J0D01*
G01*
X13200000Y-10264000D02*
G75*
G03*
X13200000Y-10264000I-15000J0D01*
G01*
X13200000Y-10564000D02*
G75*
G03*
X13200000Y-10564000I-15000J0D01*
G01*
X13275000Y-10264000D02*
G75*
G03*
X13275000Y-10264000I-15000J0D01*
G01*
X13275000Y-10564000D02*
G75*
G03*
X13275000Y-10564000I-15000J0D01*
G01*
X13350000Y-10264000D02*
G75*
G03*
X13350000Y-10264000I-15000J0D01*
G01*
X13350000Y-10339000D02*
G75*
G03*
X13350000Y-10339000I-15000J0D01*
G01*
X13350000Y-10414000D02*
G75*
G03*
X13350000Y-10414000I-15000J0D01*
G01*
X13350000Y-10489000D02*
G75*
G03*
X13350000Y-10489000I-15000J0D01*
G01*
X13350000Y-10564000D02*
G75*
G03*
X13350000Y-10564000I-15000J0D01*
G01*
X13425000Y-10264000D02*
G75*
G03*
X13425000Y-10264000I-15000J0D01*
G01*
X13425000Y-10564000D02*
G75*
G03*
X13425000Y-10564000I-15000J0D01*
G01*
X13500000Y-10264000D02*
G75*
G03*
X13500000Y-10264000I-15000J0D01*
G01*
X13500000Y-10564000D02*
G75*
G03*
X13500000Y-10564000I-15000J0D01*
G01*
X13575000Y-10264000D02*
G75*
G03*
X13575000Y-10264000I-15000J0D01*
G01*
X13575000Y-10339000D02*
G75*
G03*
X13575000Y-10339000I-15000J0D01*
G01*
X13575000Y-10414000D02*
G75*
G03*
X13575000Y-10414000I-15000J0D01*
G01*
X13575000Y-10489000D02*
G75*
G03*
X13575000Y-10489000I-15000J0D01*
G01*
X13575000Y-10564000D02*
G75*
G03*
X13575000Y-10564000I-15000J0D01*
G01*
X13650000Y-10189000D02*
G75*
G03*
X13650000Y-10189000I-15000J0D01*
G01*
X13650000Y-10264000D02*
G75*
G03*
X13650000Y-10264000I-15000J0D01*
G01*
X13650000Y-10339000D02*
G75*
G03*
X13650000Y-10339000I-15000J0D01*
G01*
X13650000Y-10414000D02*
G75*
G03*
X13650000Y-10414000I-15000J0D01*
G01*
X13650000Y-10489000D02*
G75*
G03*
X13650000Y-10489000I-15000J0D01*
G01*
X13650000Y-10564000D02*
G75*
G03*
X13650000Y-10564000I-15000J0D01*
G01*
X13650000Y-10639000D02*
G75*
G03*
X13650000Y-10639000I-15000J0D01*
G01*
X13812000Y-10189000D02*
G75*
G03*
X13812000Y-10189000I-15000J0D01*
G01*
X13812000Y-10264000D02*
G75*
G03*
X13812000Y-10264000I-15000J0D01*
G01*
X13812000Y-10339000D02*
G75*
G03*
X13812000Y-10339000I-15000J0D01*
G01*
X13812000Y-10414000D02*
G75*
G03*
X13812000Y-10414000I-15000J0D01*
G01*
X13812000Y-10489000D02*
G75*
G03*
X13812000Y-10489000I-15000J0D01*
G01*
X13812000Y-10564000D02*
G75*
G03*
X13812000Y-10564000I-15000J0D01*
G01*
X13812000Y-10639000D02*
G75*
G03*
X13812000Y-10639000I-15000J0D01*
G01*
X13887000Y-10264000D02*
G75*
G03*
X13887000Y-10264000I-15000J0D01*
G01*
X13887000Y-10339000D02*
G75*
G03*
X13887000Y-10339000I-15000J0D01*
G01*
X13887000Y-10414000D02*
G75*
G03*
X13887000Y-10414000I-15000J0D01*
G01*
X13887000Y-10489000D02*
G75*
G03*
X13887000Y-10489000I-15000J0D01*
G01*
X13887000Y-10564000D02*
G75*
G03*
X13887000Y-10564000I-15000J0D01*
G01*
X13962000Y-10264000D02*
G75*
G03*
X13962000Y-10264000I-15000J0D01*
G01*
X13962000Y-10564000D02*
G75*
G03*
X13962000Y-10564000I-15000J0D01*
G01*
X14037000Y-10264000D02*
G75*
G03*
X14037000Y-10264000I-15000J0D01*
G01*
X14037000Y-10564000D02*
G75*
G03*
X14037000Y-10564000I-15000J0D01*
G01*
X14112000Y-10264000D02*
G75*
G03*
X14112000Y-10264000I-15000J0D01*
G01*
X14112000Y-10339000D02*
G75*
G03*
X14112000Y-10339000I-15000J0D01*
G01*
X14112000Y-10414000D02*
G75*
G03*
X14112000Y-10414000I-15000J0D01*
G01*
X14112000Y-10489000D02*
G75*
G03*
X14112000Y-10489000I-15000J0D01*
G01*
X14112000Y-10564000D02*
G75*
G03*
X14112000Y-10564000I-15000J0D01*
G01*
X14187000Y-10264000D02*
G75*
G03*
X14187000Y-10264000I-15000J0D01*
G01*
X14187000Y-10564000D02*
G75*
G03*
X14187000Y-10564000I-15000J0D01*
G01*
X14262000Y-10264000D02*
G75*
G03*
X14262000Y-10264000I-15000J0D01*
G01*
X14262000Y-10564000D02*
G75*
G03*
X14262000Y-10564000I-15000J0D01*
G01*
X14337000Y-10264000D02*
G75*
G03*
X14337000Y-10264000I-15000J0D01*
G01*
X14337000Y-10339000D02*
G75*
G03*
X14337000Y-10339000I-15000J0D01*
G01*
X14337000Y-10414000D02*
G75*
G03*
X14337000Y-10414000I-15000J0D01*
G01*
X14337000Y-10489000D02*
G75*
G03*
X14337000Y-10489000I-15000J0D01*
G01*
X14337000Y-10564000D02*
G75*
G03*
X14337000Y-10564000I-15000J0D01*
G01*
X14395000Y-10952200D02*
G75*
G03*
X14395000Y-10952200I-15000J0D01*
G01*
X14395000Y-11552200D02*
G75*
G03*
X14395000Y-11552200I-15000J0D01*
G01*
X14395000Y-11638000D02*
G75*
G03*
X14395000Y-11638000I-15000J0D01*
G01*
X14395000Y-12238000D02*
G75*
G03*
X14395000Y-12238000I-15000J0D01*
G01*
X14412000Y-10189000D02*
G75*
G03*
X14412000Y-10189000I-15000J0D01*
G01*
X14412000Y-10264000D02*
G75*
G03*
X14412000Y-10264000I-15000J0D01*
G01*
X14412000Y-10339000D02*
G75*
G03*
X14412000Y-10339000I-15000J0D01*
G01*
X14412000Y-10414000D02*
G75*
G03*
X14412000Y-10414000I-15000J0D01*
G01*
X14412000Y-10489000D02*
G75*
G03*
X14412000Y-10489000I-15000J0D01*
G01*
X14412000Y-10564000D02*
G75*
G03*
X14412000Y-10564000I-15000J0D01*
G01*
X14412000Y-10639000D02*
G75*
G03*
X14412000Y-10639000I-15000J0D01*
G01*
X14470000Y-10952200D02*
G75*
G03*
X14470000Y-10952200I-15000J0D01*
G01*
X14470000Y-11027200D02*
G75*
G03*
X14470000Y-11027200I-15000J0D01*
G01*
X14470000Y-11102200D02*
G75*
G03*
X14470000Y-11102200I-15000J0D01*
G01*
X14470000Y-11177200D02*
G75*
G03*
X14470000Y-11177200I-15000J0D01*
G01*
X14470000Y-11252200D02*
G75*
G03*
X14470000Y-11252200I-15000J0D01*
G01*
X14470000Y-11327200D02*
G75*
G03*
X14470000Y-11327200I-15000J0D01*
G01*
X14470000Y-11402200D02*
G75*
G03*
X14470000Y-11402200I-15000J0D01*
G01*
X14470000Y-11477200D02*
G75*
G03*
X14470000Y-11477200I-15000J0D01*
G01*
X14470000Y-11552200D02*
G75*
G03*
X14470000Y-11552200I-15000J0D01*
G01*
X14470000Y-11638000D02*
G75*
G03*
X14470000Y-11638000I-15000J0D01*
G01*
X14470000Y-11713000D02*
G75*
G03*
X14470000Y-11713000I-15000J0D01*
G01*
X14470000Y-11788000D02*
G75*
G03*
X14470000Y-11788000I-15000J0D01*
G01*
X14470000Y-11863000D02*
G75*
G03*
X14470000Y-11863000I-15000J0D01*
G01*
X14470000Y-11938000D02*
G75*
G03*
X14470000Y-11938000I-15000J0D01*
G01*
X14470000Y-12013000D02*
G75*
G03*
X14470000Y-12013000I-15000J0D01*
G01*
X14470000Y-12088000D02*
G75*
G03*
X14470000Y-12088000I-15000J0D01*
G01*
X14470000Y-12163000D02*
G75*
G03*
X14470000Y-12163000I-15000J0D01*
G01*
X14470000Y-12238000D02*
G75*
G03*
X14470000Y-12238000I-15000J0D01*
G01*
X14545000Y-10952200D02*
G75*
G03*
X14545000Y-10952200I-15000J0D01*
G01*
X14545000Y-11027200D02*
G75*
G03*
X14545000Y-11027200I-15000J0D01*
G01*
X14545000Y-11252200D02*
G75*
G03*
X14545000Y-11252200I-15000J0D01*
G01*
X14545000Y-11477200D02*
G75*
G03*
X14545000Y-11477200I-15000J0D01*
G01*
X14545000Y-11552200D02*
G75*
G03*
X14545000Y-11552200I-15000J0D01*
G01*
X14545000Y-11638000D02*
G75*
G03*
X14545000Y-11638000I-15000J0D01*
G01*
X14545000Y-11713000D02*
G75*
G03*
X14545000Y-11713000I-15000J0D01*
G01*
X14545000Y-11938000D02*
G75*
G03*
X14545000Y-11938000I-15000J0D01*
G01*
X14545000Y-12163000D02*
G75*
G03*
X14545000Y-12163000I-15000J0D01*
G01*
X14545000Y-12238000D02*
G75*
G03*
X14545000Y-12238000I-15000J0D01*
G01*
X14620000Y-10952200D02*
G75*
G03*
X14620000Y-10952200I-15000J0D01*
G01*
X14620000Y-11027200D02*
G75*
G03*
X14620000Y-11027200I-15000J0D01*
G01*
X14620000Y-11252200D02*
G75*
G03*
X14620000Y-11252200I-15000J0D01*
G01*
X14620000Y-11477200D02*
G75*
G03*
X14620000Y-11477200I-15000J0D01*
G01*
X14620000Y-11552200D02*
G75*
G03*
X14620000Y-11552200I-15000J0D01*
G01*
X14620000Y-11638000D02*
G75*
G03*
X14620000Y-11638000I-15000J0D01*
G01*
X14620000Y-11713000D02*
G75*
G03*
X14620000Y-11713000I-15000J0D01*
G01*
X14620000Y-11938000D02*
G75*
G03*
X14620000Y-11938000I-15000J0D01*
G01*
X14620000Y-12163000D02*
G75*
G03*
X14620000Y-12163000I-15000J0D01*
G01*
X14620000Y-12238000D02*
G75*
G03*
X14620000Y-12238000I-15000J0D01*
G01*
X14695000Y-10952200D02*
G75*
G03*
X14695000Y-10952200I-15000J0D01*
G01*
X14695000Y-11027200D02*
G75*
G03*
X14695000Y-11027200I-15000J0D01*
G01*
X14695000Y-11252200D02*
G75*
G03*
X14695000Y-11252200I-15000J0D01*
G01*
X14695000Y-11477200D02*
G75*
G03*
X14695000Y-11477200I-15000J0D01*
G01*
X14695000Y-11552200D02*
G75*
G03*
X14695000Y-11552200I-15000J0D01*
G01*
X14695000Y-11638000D02*
G75*
G03*
X14695000Y-11638000I-15000J0D01*
G01*
X14695000Y-11713000D02*
G75*
G03*
X14695000Y-11713000I-15000J0D01*
G01*
X14695000Y-11938000D02*
G75*
G03*
X14695000Y-11938000I-15000J0D01*
G01*
X14695000Y-12163000D02*
G75*
G03*
X14695000Y-12163000I-15000J0D01*
G01*
X14695000Y-12238000D02*
G75*
G03*
X14695000Y-12238000I-15000J0D01*
G01*
X14770000Y-10952200D02*
G75*
G03*
X14770000Y-10952200I-15000J0D01*
G01*
X14770000Y-11027200D02*
G75*
G03*
X14770000Y-11027200I-15000J0D01*
G01*
X14770000Y-11102200D02*
G75*
G03*
X14770000Y-11102200I-15000J0D01*
G01*
X14770000Y-11177200D02*
G75*
G03*
X14770000Y-11177200I-15000J0D01*
G01*
X14770000Y-11252200D02*
G75*
G03*
X14770000Y-11252200I-15000J0D01*
G01*
X14770000Y-11327200D02*
G75*
G03*
X14770000Y-11327200I-15000J0D01*
G01*
X14770000Y-11402200D02*
G75*
G03*
X14770000Y-11402200I-15000J0D01*
G01*
X14770000Y-11477200D02*
G75*
G03*
X14770000Y-11477200I-15000J0D01*
G01*
X14770000Y-11552200D02*
G75*
G03*
X14770000Y-11552200I-15000J0D01*
G01*
X14770000Y-11638000D02*
G75*
G03*
X14770000Y-11638000I-15000J0D01*
G01*
X14770000Y-11713000D02*
G75*
G03*
X14770000Y-11713000I-15000J0D01*
G01*
X14770000Y-11788000D02*
G75*
G03*
X14770000Y-11788000I-15000J0D01*
G01*
X14770000Y-11863000D02*
G75*
G03*
X14770000Y-11863000I-15000J0D01*
G01*
X14770000Y-11938000D02*
G75*
G03*
X14770000Y-11938000I-15000J0D01*
G01*
X14770000Y-12013000D02*
G75*
G03*
X14770000Y-12013000I-15000J0D01*
G01*
X14770000Y-12088000D02*
G75*
G03*
X14770000Y-12088000I-15000J0D01*
G01*
X14770000Y-12163000D02*
G75*
G03*
X14770000Y-12163000I-15000J0D01*
G01*
X14770000Y-12238000D02*
G75*
G03*
X14770000Y-12238000I-15000J0D01*
G01*
X14845000Y-10952200D02*
G75*
G03*
X14845000Y-10952200I-15000J0D01*
G01*
X14845000Y-11552200D02*
G75*
G03*
X14845000Y-11552200I-15000J0D01*
G01*
X14845000Y-11638000D02*
G75*
G03*
X14845000Y-11638000I-15000J0D01*
G01*
X14845000Y-12238000D02*
G75*
G03*
X14845000Y-12238000I-15000J0D01*
G01*
D14*
X9177020Y-10945180D02*
X9177020Y-10985180D01*
X9157020Y-10965180D02*
X9197020Y-10965180D01*
X9177020Y-12006900D02*
X9177020Y-12046900D01*
X9157020Y-12026900D02*
X9197020Y-12026900D01*
X9293860Y-7765100D02*
X9293860Y-7805100D01*
X9273860Y-7785100D02*
X9313860Y-7785100D01*
X9382760Y-8872540D02*
X9382760Y-8912540D01*
X9362760Y-8892540D02*
X9402760Y-8892540D01*
X9390336Y-7699546D02*
X9390336Y-7739546D01*
X9370336Y-7719546D02*
X9410336Y-7719546D01*
X9420860Y-6462080D02*
X9420860Y-6502080D01*
X9400860Y-6482080D02*
X9440860Y-6482080D01*
X9453755Y-8946074D02*
X9453755Y-8986074D01*
X9433755Y-8966074D02*
X9473755Y-8966074D01*
X9461237Y-7628644D02*
X9461237Y-7668644D01*
X9441237Y-7648644D02*
X9481237Y-7648644D01*
X9504975Y-11387950D02*
X9504975Y-11427950D01*
X9484975Y-11407950D02*
X9524975Y-11407950D01*
X9505640Y-11287682D02*
X9505640Y-11327682D01*
X9485640Y-11307682D02*
X9525640Y-11307682D01*
X9506305Y-11187415D02*
X9506305Y-11227415D01*
X9486305Y-11207415D02*
X9526305Y-11207415D01*
X9509216Y-11488739D02*
X9509216Y-11528739D01*
X9489216Y-11508739D02*
X9529216Y-11508739D01*
X9512886Y-11591469D02*
X9512886Y-11631469D01*
X9492886Y-11611469D02*
X9532886Y-11611469D01*
X9514719Y-11694902D02*
X9514719Y-11734902D01*
X9494719Y-11714902D02*
X9534719Y-11714902D01*
X9519393Y-11798636D02*
X9519393Y-11838636D01*
X9499393Y-11818636D02*
X9539393Y-11818636D01*
X9524310Y-9017320D02*
X9524310Y-9057320D01*
X9504310Y-9037320D02*
X9544310Y-9037320D01*
X9532139Y-7557742D02*
X9532139Y-7597742D01*
X9512139Y-7577742D02*
X9552139Y-7577742D01*
X9787140Y-9200200D02*
X9787140Y-9240200D01*
X9767140Y-9220200D02*
X9807140Y-9220200D01*
X9880600Y-5809300D02*
X9880600Y-5849300D01*
X9860600Y-5829300D02*
X9900600Y-5829300D01*
X9897186Y-10210616D02*
X9897186Y-10250616D01*
X9877186Y-10230616D02*
X9917186Y-10230616D01*
X9911080Y-7612010D02*
X9911080Y-7652010D01*
X9891080Y-7632010D02*
X9931080Y-7632010D01*
X9954140Y-6260848D02*
X9954140Y-6300848D01*
X9934140Y-6280848D02*
X9974140Y-6280848D01*
X9954261Y-6361119D02*
X9954261Y-6401119D01*
X9934261Y-6381119D02*
X9974261Y-6381119D01*
X9955122Y-6060358D02*
X9955122Y-6100358D01*
X9935122Y-6080358D02*
X9975122Y-6080358D01*
X9956813Y-6160614D02*
X9956813Y-6200614D01*
X9936813Y-6180614D02*
X9976813Y-6180614D01*
X9959340Y-10300020D02*
X9959340Y-10340020D01*
X9939340Y-10320020D02*
X9979340Y-10320020D01*
X9980182Y-8150446D02*
X9980182Y-8190446D01*
X9960182Y-8170446D02*
X10000182Y-8170446D01*
X10014530Y-11280460D02*
X10014530Y-11320460D01*
X9994530Y-11300460D02*
X10034530Y-11300460D01*
X10016218Y-12394522D02*
X10016218Y-12434522D01*
X9996218Y-12414522D02*
X10036218Y-12414522D01*
X10026070Y-10472162D02*
X10026070Y-10512162D01*
X10006070Y-10492162D02*
X10046070Y-10492162D01*
X10070064Y-7652650D02*
X10070064Y-7692650D01*
X10050064Y-7672650D02*
X10090064Y-7672650D01*
X10109200Y-10589580D02*
X10109200Y-10629580D01*
X10089200Y-10609580D02*
X10129200Y-10609580D01*
X10153070Y-8151180D02*
X10153070Y-8191180D01*
X10133070Y-8171180D02*
X10173070Y-8171180D01*
X10166930Y-10467660D02*
X10166930Y-10507660D01*
X10146930Y-10487660D02*
X10186930Y-10487660D01*
X10170334Y-7652650D02*
X10170334Y-7692650D01*
X10150334Y-7672650D02*
X10190334Y-7672650D01*
X10178980Y-11857697D02*
X10178980Y-11897697D01*
X10158980Y-11877697D02*
X10198980Y-11877697D01*
X10355580Y-5702620D02*
X10355580Y-5742620D01*
X10335580Y-5722620D02*
X10375580Y-5722620D01*
X10383520Y-11283000D02*
X10383520Y-11323000D01*
X10363520Y-11303000D02*
X10403520Y-11303000D01*
X10424160Y-6576380D02*
X10424160Y-6616380D01*
X10404160Y-6596380D02*
X10444160Y-6596380D01*
X10427669Y-6708683D02*
X10427669Y-6748683D01*
X10407669Y-6728683D02*
X10447669Y-6728683D01*
X10429240Y-6830380D02*
X10429240Y-6870380D01*
X10409240Y-6850380D02*
X10449240Y-6850380D01*
X10464800Y-8196900D02*
X10464800Y-8236900D01*
X10444800Y-8216900D02*
X10484800Y-8216900D01*
X10464800Y-8298500D02*
X10464800Y-8338500D01*
X10444800Y-8318500D02*
X10484800Y-8318500D01*
X10464800Y-8400100D02*
X10464800Y-8440100D01*
X10444800Y-8420100D02*
X10484800Y-8420100D01*
X10464800Y-8501700D02*
X10464800Y-8541700D01*
X10444800Y-8521700D02*
X10484800Y-8521700D01*
X10464800Y-8603300D02*
X10464800Y-8643300D01*
X10444800Y-8623300D02*
X10484800Y-8623300D01*
X10464800Y-8704900D02*
X10464800Y-8744900D01*
X10444800Y-8724900D02*
X10484800Y-8724900D01*
X10566400Y-8196900D02*
X10566400Y-8236900D01*
X10546400Y-8216900D02*
X10586400Y-8216900D01*
X10566400Y-8755700D02*
X10566400Y-8795700D01*
X10546400Y-8775700D02*
X10586400Y-8775700D01*
X10609055Y-9613695D02*
X10609055Y-9653695D01*
X10589055Y-9633695D02*
X10629055Y-9633695D01*
X10645140Y-9738680D02*
X10645140Y-9778680D01*
X10625140Y-9758680D02*
X10665140Y-9758680D01*
X10668000Y-8196900D02*
X10668000Y-8236900D01*
X10648000Y-8216900D02*
X10688000Y-8216900D01*
X10668000Y-8755700D02*
X10668000Y-8795700D01*
X10648000Y-8775700D02*
X10688000Y-8775700D01*
X10693400Y-10178100D02*
X10693400Y-10218100D01*
X10673400Y-10198100D02*
X10713400Y-10198100D01*
X10693400Y-10330500D02*
X10693400Y-10370500D01*
X10673400Y-10350500D02*
X10713400Y-10350500D01*
X10693400Y-10482900D02*
X10693400Y-10522900D01*
X10673400Y-10502900D02*
X10713400Y-10502900D01*
X10693400Y-10635300D02*
X10693400Y-10675300D01*
X10673400Y-10655300D02*
X10713400Y-10655300D01*
X10693400Y-10787700D02*
X10693400Y-10827700D01*
X10673400Y-10807700D02*
X10713400Y-10807700D01*
X10740394Y-7220850D02*
X10740394Y-7260850D01*
X10720394Y-7240850D02*
X10760394Y-7240850D01*
X10820350Y-8193969D02*
X10820350Y-8233969D01*
X10800350Y-8213969D02*
X10840350Y-8213969D01*
X10820400Y-7904800D02*
X10820400Y-7944800D01*
X10800400Y-7924800D02*
X10840400Y-7924800D01*
X10820400Y-8755700D02*
X10820400Y-8795700D01*
X10800400Y-8775700D02*
X10840400Y-8775700D01*
X10840664Y-7220850D02*
X10840664Y-7260850D01*
X10820664Y-7240850D02*
X10860664Y-7240850D01*
X10922000Y-8755700D02*
X10922000Y-8795700D01*
X10902000Y-8775700D02*
X10942000Y-8775700D01*
X10940691Y-7227826D02*
X10940691Y-7267826D01*
X10920691Y-7247826D02*
X10960691Y-7247826D01*
X10978935Y-6359425D02*
X10978935Y-6399425D01*
X10958935Y-6379425D02*
X10998935Y-6379425D01*
X10990607Y-6259837D02*
X10990607Y-6299837D01*
X10970607Y-6279837D02*
X11010607Y-6279837D01*
X11010900Y-8196900D02*
X11010900Y-8236900D01*
X10990900Y-8216900D02*
X11030900Y-8216900D01*
X11010900Y-8298500D02*
X11010900Y-8338500D01*
X10990900Y-8318500D02*
X11030900Y-8318500D01*
X11010900Y-8400100D02*
X11010900Y-8440100D01*
X10990900Y-8420100D02*
X11030900Y-8420100D01*
X11010900Y-8501700D02*
X11010900Y-8541700D01*
X10990900Y-8521700D02*
X11030900Y-8521700D01*
X11010900Y-8603300D02*
X11010900Y-8643300D01*
X10990900Y-8623300D02*
X11030900Y-8623300D01*
X11010900Y-8704900D02*
X11010900Y-8744900D01*
X10990900Y-8724900D02*
X11030900Y-8724900D01*
X11040878Y-7223739D02*
X11040878Y-7263739D01*
X11020878Y-7243739D02*
X11060878Y-7243739D01*
X11059160Y-6436680D02*
X11059160Y-6476680D01*
X11039160Y-6456680D02*
X11079160Y-6456680D01*
X11069320Y-6914200D02*
X11069320Y-6954200D01*
X11049320Y-6934200D02*
X11089320Y-6934200D01*
X11074400Y-8984300D02*
X11074400Y-9024300D01*
X11054400Y-9004300D02*
X11094400Y-9004300D01*
X11074400Y-9959660D02*
X11074400Y-9999660D01*
X11054400Y-9979660D02*
X11094400Y-9979660D01*
X11141147Y-7223233D02*
X11141147Y-7263233D01*
X11121147Y-7243233D02*
X11161147Y-7243233D01*
X11168380Y-6430910D02*
X11168380Y-6470910D01*
X11148380Y-6450910D02*
X11188380Y-6450910D01*
X11170920Y-5865180D02*
X11170920Y-5905180D01*
X11150920Y-5885180D02*
X11190920Y-5885180D01*
X11201400Y-8986840D02*
X11201400Y-9026840D01*
X11181400Y-9006840D02*
X11221400Y-9006840D01*
X11207815Y-6159007D02*
X11207815Y-6199007D01*
X11187815Y-6179007D02*
X11227815Y-6179007D01*
X11226800Y-11194100D02*
X11226800Y-11234100D01*
X11206800Y-11214100D02*
X11246800Y-11214100D01*
X11226800Y-11295700D02*
X11226800Y-11335700D01*
X11206800Y-11315700D02*
X11246800Y-11315700D01*
X11226800Y-11397300D02*
X11226800Y-11437300D01*
X11206800Y-11417300D02*
X11246800Y-11417300D01*
X11226800Y-11498900D02*
X11226800Y-11538900D01*
X11206800Y-11518900D02*
X11246800Y-11518900D01*
X11226800Y-11752900D02*
X11226800Y-11792900D01*
X11206800Y-11772900D02*
X11246800Y-11772900D01*
X11226800Y-11854500D02*
X11226800Y-11894500D01*
X11206800Y-11874500D02*
X11246800Y-11874500D01*
X11226800Y-12057700D02*
X11226800Y-12097700D01*
X11206800Y-12077700D02*
X11246800Y-12077700D01*
X11226800Y-12159300D02*
X11226800Y-12199300D01*
X11206800Y-12179300D02*
X11246800Y-12179300D01*
X11243133Y-7220850D02*
X11243133Y-7260850D01*
X11223133Y-7240850D02*
X11263133Y-7240850D01*
X11247120Y-8133400D02*
X11247120Y-8173400D01*
X11227120Y-8153400D02*
X11267120Y-8153400D01*
X11252564Y-6485381D02*
X11252564Y-6525381D01*
X11232564Y-6505381D02*
X11272564Y-6505381D01*
X11259820Y-5601020D02*
X11259820Y-5641020D01*
X11239820Y-5621020D02*
X11279820Y-5621020D01*
X11269980Y-7465380D02*
X11269980Y-7505380D01*
X11249980Y-7485380D02*
X11289980Y-7485380D01*
X11277600Y-10838500D02*
X11277600Y-10878500D01*
X11257600Y-10858500D02*
X11297600Y-10858500D01*
X11313160Y-6736400D02*
X11313160Y-6776400D01*
X11293160Y-6756400D02*
X11333160Y-6756400D01*
X11316318Y-6167907D02*
X11316318Y-6207907D01*
X11296318Y-6187907D02*
X11336318Y-6187907D01*
X11319572Y-6067690D02*
X11319572Y-6107690D01*
X11299572Y-6087690D02*
X11339572Y-6087690D01*
X11336020Y-7949830D02*
X11336020Y-7989830D01*
X11316020Y-7969830D02*
X11356020Y-7969830D01*
X11356340Y-8403400D02*
X11356340Y-8443400D01*
X11336340Y-8423400D02*
X11376340Y-8423400D01*
X11379200Y-10838500D02*
X11379200Y-10878500D01*
X11359200Y-10858500D02*
X11399200Y-10858500D01*
X11384280Y-5822000D02*
X11384280Y-5862000D01*
X11364280Y-5842000D02*
X11404280Y-5842000D01*
X11392898Y-7222230D02*
X11392898Y-7262230D01*
X11372898Y-7242230D02*
X11412898Y-7242230D01*
X11397587Y-7040680D02*
X11397587Y-7080680D01*
X11377587Y-7060680D02*
X11417587Y-7060680D01*
X11480800Y-10838500D02*
X11480800Y-10878500D01*
X11460800Y-10858500D02*
X11500800Y-10858500D01*
X11495897Y-7069687D02*
X11495897Y-7109687D01*
X11475897Y-7089687D02*
X11515897Y-7089687D01*
X11524821Y-6973679D02*
X11524821Y-7013679D01*
X11504821Y-6993679D02*
X11544821Y-6993679D01*
X11534240Y-6014350D02*
X11534240Y-6054350D01*
X11514240Y-6034350D02*
X11554240Y-6034350D01*
X11541760Y-8415340D02*
X11541760Y-8455340D01*
X11521760Y-8435340D02*
X11561760Y-8435340D01*
X11557000Y-5653900D02*
X11557000Y-5693900D01*
X11537000Y-5673900D02*
X11577000Y-5673900D01*
X11582400Y-10838500D02*
X11582400Y-10878500D01*
X11562400Y-10858500D02*
X11602400Y-10858500D01*
X11597762Y-7808970D02*
X11597762Y-7848970D01*
X11577762Y-7828970D02*
X11617762Y-7828970D01*
X11699312Y-7125020D02*
X11699312Y-7165020D01*
X11679312Y-7145020D02*
X11719312Y-7145020D01*
X11701780Y-9525320D02*
X11701780Y-9565320D01*
X11681780Y-9545320D02*
X11721780Y-9545320D01*
X11772744Y-7056741D02*
X11772744Y-7096741D01*
X11752744Y-7076741D02*
X11792744Y-7076741D01*
X11813540Y-9962200D02*
X11813540Y-10002200D01*
X11793540Y-9982200D02*
X11833540Y-9982200D01*
X11816080Y-7270156D02*
X11816080Y-7310156D01*
X11796080Y-7290156D02*
X11836080Y-7290156D01*
X11825686Y-5982650D02*
X11825686Y-6022650D01*
X11805686Y-6002650D02*
X11845686Y-6002650D01*
X11912600Y-10838500D02*
X11912600Y-10878500D01*
X11892600Y-10858500D02*
X11932600Y-10858500D01*
X11925300Y-5580240D02*
X11925300Y-5620240D01*
X11905300Y-5600240D02*
X11945300Y-5600240D01*
X11933888Y-6958752D02*
X11933888Y-6998752D01*
X11913888Y-6978752D02*
X11953888Y-6978752D01*
X11973560Y-7270156D02*
X11973560Y-7310156D01*
X11953560Y-7290156D02*
X11993560Y-7290156D01*
X12014200Y-10838500D02*
X12014200Y-10878500D01*
X11994200Y-10858500D02*
X12034200Y-10858500D01*
X12026626Y-6996880D02*
X12026626Y-7036880D01*
X12006626Y-7016880D02*
X12046626Y-7016880D01*
X12080240Y-9530400D02*
X12080240Y-9570400D01*
X12060240Y-9550400D02*
X12100240Y-9550400D01*
X12090400Y-8552500D02*
X12090400Y-8592500D01*
X12070400Y-8572500D02*
X12110400Y-8572500D01*
X12090400Y-9009700D02*
X12090400Y-9049700D01*
X12070400Y-9029700D02*
X12110400Y-9029700D01*
X12090400Y-9136700D02*
X12090400Y-9176700D01*
X12070400Y-9156700D02*
X12110400Y-9156700D01*
X12115800Y-10838500D02*
X12115800Y-10878500D01*
X12095800Y-10858500D02*
X12135800Y-10858500D01*
X12125960Y-7264720D02*
X12125960Y-7304720D01*
X12105960Y-7284720D02*
X12145960Y-7284720D01*
X12141200Y-6840540D02*
X12141200Y-6880540D01*
X12121200Y-6860540D02*
X12161200Y-6860540D01*
X12151360Y-6996880D02*
X12151360Y-7036880D01*
X12131360Y-7016880D02*
X12171360Y-7016880D01*
X12166600Y-8476300D02*
X12166600Y-8516300D01*
X12146600Y-8496300D02*
X12186600Y-8496300D01*
X12217400Y-10838500D02*
X12217400Y-10878500D01*
X12197400Y-10858500D02*
X12237400Y-10858500D01*
X12219158Y-6766830D02*
X12219158Y-6806830D01*
X12199158Y-6786830D02*
X12239158Y-6786830D01*
X12242800Y-8857300D02*
X12242800Y-8897300D01*
X12222800Y-8877300D02*
X12262800Y-8877300D01*
X12250420Y-6146430D02*
X12250420Y-6186430D01*
X12230420Y-6166430D02*
X12270420Y-6166430D01*
X12258040Y-5204780D02*
X12258040Y-5244780D01*
X12238040Y-5224780D02*
X12278040Y-5224780D01*
X12275770Y-6248720D02*
X12275770Y-6288720D01*
X12255770Y-6268720D02*
X12295770Y-6268720D01*
X12278360Y-7259710D02*
X12278360Y-7299710D01*
X12258360Y-7279710D02*
X12298360Y-7279710D01*
X12369800Y-8857300D02*
X12369800Y-8897300D01*
X12349800Y-8877300D02*
X12389800Y-8877300D01*
X12376090Y-6304600D02*
X12376090Y-6344600D01*
X12356090Y-6324600D02*
X12396090Y-6324600D01*
X12379960Y-5943920D02*
X12379960Y-5983920D01*
X12359960Y-5963920D02*
X12399960Y-5963920D01*
X12476361Y-6304600D02*
X12476361Y-6344600D01*
X12456361Y-6324600D02*
X12496361Y-6324600D01*
X12496800Y-8857300D02*
X12496800Y-8897300D01*
X12476800Y-8877300D02*
X12516800Y-8877300D01*
X12537440Y-7473000D02*
X12537440Y-7513000D01*
X12517440Y-7493000D02*
X12557440Y-7493000D01*
X12550140Y-7760020D02*
X12550140Y-7800020D01*
X12530140Y-7780020D02*
X12570140Y-7780020D01*
X12554530Y-6726240D02*
X12554530Y-6766240D01*
X12534530Y-6746240D02*
X12574530Y-6746240D01*
X12557760Y-6896420D02*
X12557760Y-6936420D01*
X12537760Y-6916420D02*
X12577760Y-6916420D01*
X12573000Y-8374700D02*
X12573000Y-8414700D01*
X12553000Y-8394700D02*
X12593000Y-8394700D01*
X12573000Y-8501700D02*
X12573000Y-8541700D01*
X12553000Y-8521700D02*
X12593000Y-8521700D01*
X12573000Y-8628700D02*
X12573000Y-8668700D01*
X12553000Y-8648700D02*
X12593000Y-8648700D01*
X12623800Y-8857300D02*
X12623800Y-8897300D01*
X12603800Y-8877300D02*
X12643800Y-8877300D01*
X12631353Y-7689590D02*
X12631353Y-7729590D01*
X12611353Y-7709590D02*
X12651353Y-7709590D01*
X12648834Y-5473655D02*
X12648834Y-5513655D01*
X12628834Y-5493655D02*
X12668834Y-5493655D01*
X12684973Y-5380043D02*
X12684973Y-5420043D01*
X12664973Y-5400043D02*
X12704973Y-5400043D01*
X12700000Y-8374700D02*
X12700000Y-8414700D01*
X12680000Y-8394700D02*
X12720000Y-8394700D01*
X12700000Y-8501700D02*
X12700000Y-8541700D01*
X12680000Y-8521700D02*
X12720000Y-8521700D01*
X12700000Y-8628700D02*
X12700000Y-8668700D01*
X12680000Y-8648700D02*
X12720000Y-8648700D01*
X12712598Y-7619160D02*
X12712598Y-7659160D01*
X12692598Y-7639160D02*
X12732598Y-7639160D01*
X12725400Y-10178100D02*
X12725400Y-10218100D01*
X12705400Y-10198100D02*
X12745400Y-10198100D01*
X12725400Y-10330500D02*
X12725400Y-10370500D01*
X12705400Y-10350500D02*
X12745400Y-10350500D01*
X12725400Y-10482900D02*
X12725400Y-10522900D01*
X12705400Y-10502900D02*
X12745400Y-10502900D01*
X12725400Y-10635300D02*
X12725400Y-10675300D01*
X12705400Y-10655300D02*
X12745400Y-10655300D01*
X12725400Y-10787700D02*
X12725400Y-10827700D01*
X12705400Y-10807700D02*
X12745400Y-10807700D01*
X12748260Y-6147120D02*
X12748260Y-6187120D01*
X12728260Y-6167120D02*
X12768260Y-6167120D01*
X12750800Y-8857300D02*
X12750800Y-8897300D01*
X12730800Y-8877300D02*
X12770800Y-8877300D01*
X12768580Y-5506830D02*
X12768580Y-5546830D01*
X12748580Y-5526830D02*
X12788580Y-5526830D01*
X12786610Y-7548730D02*
X12786610Y-7588730D01*
X12766610Y-7568730D02*
X12806610Y-7568730D01*
X12827000Y-8374700D02*
X12827000Y-8414700D01*
X12807000Y-8394700D02*
X12847000Y-8394700D01*
X12827000Y-8501700D02*
X12827000Y-8541700D01*
X12807000Y-8521700D02*
X12847000Y-8521700D01*
X12827000Y-8628700D02*
X12827000Y-8668700D01*
X12807000Y-8648700D02*
X12847000Y-8648700D01*
X12877800Y-8857300D02*
X12877800Y-8897300D01*
X12857800Y-8877300D02*
X12897800Y-8877300D01*
X12915566Y-7430585D02*
X12915566Y-7470585D01*
X12895566Y-7450585D02*
X12935566Y-7450585D01*
X12915900Y-5819460D02*
X12915900Y-5859460D01*
X12895900Y-5839460D02*
X12935900Y-5839460D01*
X12920980Y-5700080D02*
X12920980Y-5740080D01*
X12900980Y-5720080D02*
X12940980Y-5720080D01*
X12986012Y-7359230D02*
X12986012Y-7399230D01*
X12966012Y-7379230D02*
X13006012Y-7379230D01*
X13004800Y-8857300D02*
X13004800Y-8897300D01*
X12984800Y-8877300D02*
X13024800Y-8877300D01*
X13101320Y-7221540D02*
X13101320Y-7261540D01*
X13081320Y-7241540D02*
X13121320Y-7241540D01*
X13131800Y-8857300D02*
X13131800Y-8897300D01*
X13111800Y-8877300D02*
X13151800Y-8877300D01*
X13157200Y-7022730D02*
X13157200Y-7062730D01*
X13137200Y-7042730D02*
X13177200Y-7042730D01*
X13182600Y-10838500D02*
X13182600Y-10878500D01*
X13162600Y-10858500D02*
X13202600Y-10858500D01*
X13225780Y-6472240D02*
X13225780Y-6512240D01*
X13205780Y-6492240D02*
X13245780Y-6492240D01*
X13284200Y-10838500D02*
X13284200Y-10878500D01*
X13264200Y-10858500D02*
X13304200Y-10858500D01*
X13385800Y-10838500D02*
X13385800Y-10878500D01*
X13365800Y-10858500D02*
X13405800Y-10858500D01*
X13411200Y-6495100D02*
X13411200Y-6535100D01*
X13391200Y-6515100D02*
X13431200Y-6515100D01*
X13411200Y-6596700D02*
X13411200Y-6636700D01*
X13391200Y-6616700D02*
X13431200Y-6616700D01*
X13411200Y-6698300D02*
X13411200Y-6738300D01*
X13391200Y-6718300D02*
X13431200Y-6718300D01*
X13411200Y-6799900D02*
X13411200Y-6839900D01*
X13391200Y-6819900D02*
X13431200Y-6819900D01*
X13444220Y-5910900D02*
X13444220Y-5950900D01*
X13424220Y-5930900D02*
X13464220Y-5930900D01*
X13449300Y-6136960D02*
X13449300Y-6176960D01*
X13429300Y-6156960D02*
X13469300Y-6156960D01*
X13464540Y-9530400D02*
X13464540Y-9570400D01*
X13444540Y-9550400D02*
X13484540Y-9550400D01*
X13467080Y-5372420D02*
X13467080Y-5412420D01*
X13447080Y-5392420D02*
X13487080Y-5392420D01*
X13487400Y-10838500D02*
X13487400Y-10878500D01*
X13467400Y-10858500D02*
X13507400Y-10858500D01*
X13490932Y-7267820D02*
X13490932Y-7307820D01*
X13470932Y-7287820D02*
X13510932Y-7287820D01*
X13490932Y-7372820D02*
X13490932Y-7412820D01*
X13470932Y-7392820D02*
X13510932Y-7392820D01*
X13510260Y-6266500D02*
X13510260Y-6306500D01*
X13490260Y-6286500D02*
X13530260Y-6286500D01*
X13526124Y-9747524D02*
X13526124Y-9787524D01*
X13506124Y-9767524D02*
X13546124Y-9767524D01*
X13560370Y-8489000D02*
X13560370Y-8529000D01*
X13540370Y-8509000D02*
X13580370Y-8509000D01*
X13596620Y-7022730D02*
X13596620Y-7062730D01*
X13576620Y-7042730D02*
X13616620Y-7042730D01*
X13606780Y-5231510D02*
X13606780Y-5271510D01*
X13586780Y-5251510D02*
X13626780Y-5251510D01*
X13611860Y-6149660D02*
X13611860Y-6189660D01*
X13591860Y-6169660D02*
X13631860Y-6169660D01*
X13630800Y-8561101D02*
X13630800Y-8601101D01*
X13610800Y-8581101D02*
X13650800Y-8581101D01*
X13657580Y-6512880D02*
X13657580Y-6552880D01*
X13637580Y-6532880D02*
X13677580Y-6532880D01*
X13701746Y-8632794D02*
X13701746Y-8672794D01*
X13681746Y-8652794D02*
X13721746Y-8652794D01*
X13716000Y-7485700D02*
X13716000Y-7525700D01*
X13696000Y-7505700D02*
X13736000Y-7505700D01*
X13774136Y-8705184D02*
X13774136Y-8745184D01*
X13754136Y-8725184D02*
X13794136Y-8725184D01*
X13792200Y-7155500D02*
X13792200Y-7195500D01*
X13772200Y-7175500D02*
X13812200Y-7175500D01*
X13792200Y-7485700D02*
X13792200Y-7525700D01*
X13772200Y-7505700D02*
X13812200Y-7505700D01*
X13794740Y-6708460D02*
X13794740Y-6748460D01*
X13774740Y-6728460D02*
X13814740Y-6728460D01*
X13817600Y-10838500D02*
X13817600Y-10878500D01*
X13797600Y-10858500D02*
X13837600Y-10858500D01*
X13868400Y-7155500D02*
X13868400Y-7195500D01*
X13848400Y-7175500D02*
X13888400Y-7175500D01*
X13868400Y-7485700D02*
X13868400Y-7525700D01*
X13848400Y-7505700D02*
X13888400Y-7505700D01*
X13919200Y-10838500D02*
X13919200Y-10878500D01*
X13899200Y-10858500D02*
X13939200Y-10858500D01*
X14020800Y-10838500D02*
X14020800Y-10878500D01*
X14000800Y-10858500D02*
X14040800Y-10858500D01*
X14036040Y-6060760D02*
X14036040Y-6100760D01*
X14016040Y-6080760D02*
X14056040Y-6080760D01*
X14051280Y-8623620D02*
X14051280Y-8663620D01*
X14031280Y-8643620D02*
X14071280Y-8643620D01*
X14058900Y-6393500D02*
X14058900Y-6433500D01*
X14038900Y-6413500D02*
X14078900Y-6413500D01*
X14058900Y-6482400D02*
X14058900Y-6522400D01*
X14038900Y-6502400D02*
X14078900Y-6502400D01*
X14058900Y-6571300D02*
X14058900Y-6611300D01*
X14038900Y-6591300D02*
X14078900Y-6591300D01*
X14081760Y-9949500D02*
X14081760Y-9989500D01*
X14061760Y-9969500D02*
X14101760Y-9969500D01*
X14112240Y-8265480D02*
X14112240Y-8305480D01*
X14092240Y-8285480D02*
X14132240Y-8285480D01*
X14122400Y-10838500D02*
X14122400Y-10878500D01*
X14102400Y-10858500D02*
X14142400Y-10858500D01*
X14160500Y-6050600D02*
X14160500Y-6090600D01*
X14140500Y-6070600D02*
X14180500Y-6070600D01*
X14163040Y-6650040D02*
X14163040Y-6690040D01*
X14143040Y-6670040D02*
X14183040Y-6670040D01*
X14173200Y-11194100D02*
X14173200Y-11234100D01*
X14153200Y-11214100D02*
X14193200Y-11214100D01*
X14173200Y-11295700D02*
X14173200Y-11335700D01*
X14153200Y-11315700D02*
X14193200Y-11315700D01*
X14173200Y-11397300D02*
X14173200Y-11437300D01*
X14153200Y-11417300D02*
X14193200Y-11417300D01*
X14173200Y-11498900D02*
X14173200Y-11538900D01*
X14153200Y-11518900D02*
X14193200Y-11518900D01*
X14173200Y-11752900D02*
X14173200Y-11792900D01*
X14153200Y-11772900D02*
X14193200Y-11772900D01*
X14173200Y-11854500D02*
X14173200Y-11894500D01*
X14153200Y-11874500D02*
X14193200Y-11874500D01*
X14173200Y-12057700D02*
X14173200Y-12097700D01*
X14153200Y-12077700D02*
X14193200Y-12077700D01*
X14173200Y-12159300D02*
X14173200Y-12199300D01*
X14153200Y-12179300D02*
X14193200Y-12179300D01*
X14181210Y-7236780D02*
X14181210Y-7276780D01*
X14161210Y-7256780D02*
X14201210Y-7256780D01*
X14181210Y-7406960D02*
X14181210Y-7446960D01*
X14161210Y-7426960D02*
X14201210Y-7426960D01*
X14201140Y-7051360D02*
X14201140Y-7091360D01*
X14181140Y-7071360D02*
X14221140Y-7071360D01*
X14222110Y-9411020D02*
X14222110Y-9451020D01*
X14202110Y-9431020D02*
X14242110Y-9431020D01*
X14361151Y-8461320D02*
X14361151Y-8501320D01*
X14341151Y-8481320D02*
X14381151Y-8481320D01*
X14513560Y-8715060D02*
X14513560Y-8755060D01*
X14493560Y-8735060D02*
X14533560Y-8735060D01*
X14528800Y-8461060D02*
X14528800Y-8501060D01*
X14508800Y-8481060D02*
X14548800Y-8481060D01*
X14554200Y-6799900D02*
X14554200Y-6839900D01*
X14534200Y-6819900D02*
X14574200Y-6819900D01*
X14554200Y-6926900D02*
X14554200Y-6966900D01*
X14534200Y-6946900D02*
X14574200Y-6946900D01*
X14610080Y-5829620D02*
X14610080Y-5869620D01*
X14590080Y-5849620D02*
X14630080Y-5849620D01*
X14681200Y-6799900D02*
X14681200Y-6839900D01*
X14661200Y-6819900D02*
X14701200Y-6819900D01*
X14681200Y-6926900D02*
X14681200Y-6966900D01*
X14661200Y-6946900D02*
X14701200Y-6946900D01*
X14683740Y-8537260D02*
X14683740Y-8577260D01*
X14663740Y-8557260D02*
X14703740Y-8557260D01*
X14706600Y-10178100D02*
X14706600Y-10218100D01*
X14686600Y-10198100D02*
X14726600Y-10198100D01*
X14706600Y-10330500D02*
X14706600Y-10370500D01*
X14686600Y-10350500D02*
X14726600Y-10350500D01*
X14706600Y-10482900D02*
X14706600Y-10522900D01*
X14686600Y-10502900D02*
X14726600Y-10502900D01*
X14706600Y-10635300D02*
X14706600Y-10675300D01*
X14686600Y-10655300D02*
X14726600Y-10655300D01*
X14706600Y-10787700D02*
X14706600Y-10827700D01*
X14686600Y-10807700D02*
X14726600Y-10807700D01*
X14770100Y-9654860D02*
X14770100Y-9694860D01*
X14750100Y-9674860D02*
X14790100Y-9674860D01*
X14838680Y-8704900D02*
X14838680Y-8744900D01*
X14818680Y-8724900D02*
X14858680Y-8724900D01*
X14859000Y-7180900D02*
X14859000Y-7220900D01*
X14839000Y-7200900D02*
X14879000Y-7200900D01*
X14859000Y-7307900D02*
X14859000Y-7347900D01*
X14839000Y-7327900D02*
X14879000Y-7327900D01*
X14894560Y-9855520D02*
X14894560Y-9895520D01*
X14874560Y-9875520D02*
X14914560Y-9875520D01*
X14930120Y-9957120D02*
X14930120Y-9997120D01*
X14910120Y-9977120D02*
X14950120Y-9977120D01*
X14952980Y-5824540D02*
X14952980Y-5864540D01*
X14932980Y-5844540D02*
X14972980Y-5844540D01*
X14986000Y-7180900D02*
X14986000Y-7220900D01*
X14966000Y-7200900D02*
X15006000Y-7200900D01*
X14986000Y-7307900D02*
X14986000Y-7347900D01*
X14966000Y-7327900D02*
X15006000Y-7327900D01*
X15113000Y-7180900D02*
X15113000Y-7220900D01*
X15093000Y-7200900D02*
X15133000Y-7200900D01*
X15113000Y-7307900D02*
X15113000Y-7347900D01*
X15093000Y-7327900D02*
X15133000Y-7327900D01*
X15163800Y-10711500D02*
X15163800Y-10751500D01*
X15143800Y-10731500D02*
X15183800Y-10731500D01*
X15336520Y-10703880D02*
X15336520Y-10743880D01*
X15316520Y-10723880D02*
X15356520Y-10723880D01*
X15431490Y-11338880D02*
X15431490Y-11378880D01*
X15411490Y-11358880D02*
X15451490Y-11358880D01*
X15476220Y-12271060D02*
X15476220Y-12311060D01*
X15456220Y-12291060D02*
X15496220Y-12291060D01*
X15483840Y-12415840D02*
X15483840Y-12455840D01*
X15463840Y-12435840D02*
X15503840Y-12435840D01*
X15491070Y-11544620D02*
X15491070Y-11584620D01*
X15471070Y-11564620D02*
X15511070Y-11564620D01*
X15722600Y-6634800D02*
X15722600Y-6674800D01*
X15702600Y-6654800D02*
X15742600Y-6654800D01*
X15722600Y-6761800D02*
X15722600Y-6801800D01*
X15702600Y-6781800D02*
X15742600Y-6781800D01*
X15722600Y-6888800D02*
X15722600Y-6928800D01*
X15702600Y-6908800D02*
X15742600Y-6908800D01*
X15722600Y-7015800D02*
X15722600Y-7055800D01*
X15702600Y-7035800D02*
X15742600Y-7035800D01*
X15897653Y-11387982D02*
X15897653Y-11427982D01*
X15877653Y-11407982D02*
X15917653Y-11407982D01*
X15897876Y-11488252D02*
X15897876Y-11528252D01*
X15877876Y-11508252D02*
X15917876Y-11508252D01*
X15898765Y-11287718D02*
X15898765Y-11327718D01*
X15878765Y-11307718D02*
X15918765Y-11307718D01*
X15902250Y-11186480D02*
X15902250Y-11226480D01*
X15882250Y-11206480D02*
X15922250Y-11206480D01*
X15902860Y-11688619D02*
X15902860Y-11728619D01*
X15882860Y-11708619D02*
X15922860Y-11708619D01*
X15903713Y-11588352D02*
X15903713Y-11628352D01*
X15883713Y-11608352D02*
X15923713Y-11608352D01*
X16225520Y-10960420D02*
X16225520Y-11000420D01*
X16205520Y-10980420D02*
X16245520Y-10980420D01*
X16225520Y-11907840D02*
X16225520Y-11947840D01*
X16205520Y-11927840D02*
X16245520Y-11927840D01*
D15*
X10254673Y-5135913D02*
X10254673Y-5093487D01*
X10212247Y-5093487D01*
X10212247Y-5135913D01*
X10254673Y-5135913D01*
D11*
X10263460Y-5179700D02*
X10263460Y-5049700D01*
X10263460Y-5049700D02*
G75*
G03*
X10203460Y-5049700I-30000J0D01*
G01*
X10203460Y-5049700D02*
X10203460Y-5179700D01*
X10203460Y-5179700D02*
G75*
G03*
X10263460Y-5179700I30000J0D01*
G01*
D15*
X10254673Y-5518413D02*
X10254673Y-5475987D01*
X10212247Y-5475987D01*
X10212247Y-5518413D01*
X10254673Y-5518413D01*
D11*
X10263460Y-5547200D02*
X10263460Y-5447200D01*
X10263460Y-5447200D02*
G75*
G03*
X10203460Y-5447200I-30000J0D01*
G01*
X10203460Y-5447200D02*
X10203460Y-5547200D01*
X10203460Y-5547200D02*
G75*
G03*
X10263460Y-5547200I30000J0D01*
G01*
D15*
X11118673Y-5135913D02*
X11118673Y-5093487D01*
X11076247Y-5093487D01*
X11076247Y-5135913D01*
X11118673Y-5135913D01*
D11*
X11127460Y-5179700D02*
X11127460Y-5049700D01*
X11127460Y-5049700D02*
G75*
G03*
X11067460Y-5049700I-30000J0D01*
G01*
X11067460Y-5049700D02*
X11067460Y-5179700D01*
X11067460Y-5179700D02*
G75*
G03*
X11127460Y-5179700I30000J0D01*
G01*
D15*
X11118673Y-5518413D02*
X11118673Y-5475987D01*
X11076247Y-5475987D01*
X11076247Y-5518413D01*
X11118673Y-5518413D01*
D11*
X11127460Y-5547200D02*
X11127460Y-5447200D01*
X11127460Y-5447200D02*
G75*
G03*
X11067460Y-5447200I-30000J0D01*
G01*
X11067460Y-5447200D02*
X11067460Y-5547200D01*
X11067460Y-5547200D02*
G75*
G03*
X11127460Y-5547200I30000J0D01*
G01*
D16*
X15341600Y-7086600D02*
X15379700Y-7048500D01*
X15341600Y-7010400D01*
X15303500Y-7048500D01*
X15341600Y-7086600D01*
X15341600Y-7289800D02*
X15379700Y-7251700D01*
X15341600Y-7213600D01*
X15303500Y-7251700D01*
X15341600Y-7289800D01*
X15341600Y-7493000D02*
X15379700Y-7454900D01*
X15341600Y-7416800D01*
X15303500Y-7454900D01*
X15341600Y-7493000D01*
D17*
X12246500Y-9020700D02*
X12391500Y-9165700D01*
X12391500Y-9020700D02*
X12246500Y-9165700D01*
X12391500Y-9093200D02*
G75*
G03*
X12391500Y-9093200I-72500J0D01*
G01*
X12246500Y-9274700D02*
X12391500Y-9419700D01*
X12391500Y-9274700D02*
X12246500Y-9419700D01*
X12391500Y-9347200D02*
G75*
G03*
X12391500Y-9347200I-72500J0D01*
G01*
X12246500Y-9528700D02*
X12391500Y-9673700D01*
X12391500Y-9528700D02*
X12246500Y-9673700D01*
X12391500Y-9601200D02*
G75*
G03*
X12391500Y-9601200I-72500J0D01*
G01*
X12246500Y-9782700D02*
X12391500Y-9927700D01*
X12391500Y-9782700D02*
X12246500Y-9927700D01*
X12391500Y-9855200D02*
G75*
G03*
X12391500Y-9855200I-72500J0D01*
G01*
X12500500Y-9020700D02*
X12645500Y-9165700D01*
X12645500Y-9020700D02*
X12500500Y-9165700D01*
X12645500Y-9093200D02*
G75*
G03*
X12645500Y-9093200I-72500J0D01*
G01*
X12500500Y-9274700D02*
X12645500Y-9419700D01*
X12645500Y-9274700D02*
X12500500Y-9419700D01*
X12645500Y-9347200D02*
G75*
G03*
X12645500Y-9347200I-72500J0D01*
G01*
X12500500Y-9528700D02*
X12645500Y-9673700D01*
X12645500Y-9528700D02*
X12500500Y-9673700D01*
X12645500Y-9601200D02*
G75*
G03*
X12645500Y-9601200I-72500J0D01*
G01*
X12500500Y-9782700D02*
X12645500Y-9927700D01*
X12645500Y-9782700D02*
X12500500Y-9927700D01*
X12645500Y-9855200D02*
G75*
G03*
X12645500Y-9855200I-72500J0D01*
G01*
X12754500Y-9020700D02*
X12899500Y-9165700D01*
X12899500Y-9020700D02*
X12754500Y-9165700D01*
X12899500Y-9093200D02*
G75*
G03*
X12899500Y-9093200I-72500J0D01*
G01*
X12754500Y-9274700D02*
X12899500Y-9419700D01*
X12899500Y-9274700D02*
X12754500Y-9419700D01*
X12899500Y-9347200D02*
G75*
G03*
X12899500Y-9347200I-72500J0D01*
G01*
X12754500Y-9528700D02*
X12899500Y-9673700D01*
X12899500Y-9528700D02*
X12754500Y-9673700D01*
X12899500Y-9601200D02*
G75*
G03*
X12899500Y-9601200I-72500J0D01*
G01*
X12754500Y-9782700D02*
X12899500Y-9927700D01*
X12899500Y-9782700D02*
X12754500Y-9927700D01*
X12899500Y-9855200D02*
G75*
G03*
X12899500Y-9855200I-72500J0D01*
G01*
X13008500Y-9020700D02*
X13153500Y-9165700D01*
X13153500Y-9020700D02*
X13008500Y-9165700D01*
X13153500Y-9093200D02*
G75*
G03*
X13153500Y-9093200I-72500J0D01*
G01*
X13008500Y-9274700D02*
X13153500Y-9419700D01*
X13153500Y-9274700D02*
X13008500Y-9419700D01*
X13153500Y-9347200D02*
G75*
G03*
X13153500Y-9347200I-72500J0D01*
G01*
X13008500Y-9528700D02*
X13153500Y-9673700D01*
X13153500Y-9528700D02*
X13008500Y-9673700D01*
X13153500Y-9601200D02*
G75*
G03*
X13153500Y-9601200I-72500J0D01*
G01*
X13008500Y-9782700D02*
X13153500Y-9927700D01*
X13153500Y-9782700D02*
X13008500Y-9927700D01*
X13153500Y-9855200D02*
G75*
G03*
X13153500Y-9855200I-72500J0D01*
G01*
D18*
X11725000Y-11238500D02*
X11875000Y-11388500D01*
X11875000Y-11238500D02*
X11725000Y-11388500D01*
X11800000Y-11238500D02*
X11800000Y-11388500D01*
X11725000Y-11313500D02*
X11875000Y-11313500D01*
X11725000Y-12038500D02*
X11875000Y-12188500D01*
X11875000Y-12038500D02*
X11725000Y-12188500D01*
X11800000Y-12038500D02*
X11800000Y-12188500D01*
X11725000Y-12113500D02*
X11875000Y-12113500D01*
X11875000Y-11488500D02*
X12025000Y-11638500D01*
X12025000Y-11488500D02*
X11875000Y-11638500D01*
X11950000Y-11488500D02*
X11950000Y-11638500D01*
X11875000Y-11563500D02*
X12025000Y-11563500D01*
X11875000Y-11788500D02*
X12025000Y-11938500D01*
X12025000Y-11788500D02*
X11875000Y-11938500D01*
X11950000Y-11788500D02*
X11950000Y-11938500D01*
X11875000Y-11863500D02*
X12025000Y-11863500D01*
X12025000Y-11238500D02*
X12175000Y-11388500D01*
X12175000Y-11238500D02*
X12025000Y-11388500D01*
X12100000Y-11238500D02*
X12100000Y-11388500D01*
X12025000Y-11313500D02*
X12175000Y-11313500D01*
X12025000Y-12038500D02*
X12175000Y-12188500D01*
X12175000Y-12038500D02*
X12025000Y-12188500D01*
X12100000Y-12038500D02*
X12100000Y-12188500D01*
X12025000Y-12113500D02*
X12175000Y-12113500D01*
X12175000Y-11488500D02*
X12325000Y-11638500D01*
X12325000Y-11488500D02*
X12175000Y-11638500D01*
X12250000Y-11488500D02*
X12250000Y-11638500D01*
X12175000Y-11563500D02*
X12325000Y-11563500D01*
X12175000Y-11788500D02*
X12325000Y-11938500D01*
X12325000Y-11788500D02*
X12175000Y-11938500D01*
X12250000Y-11788500D02*
X12250000Y-11938500D01*
X12175000Y-11863500D02*
X12325000Y-11863500D01*
X12325000Y-11238500D02*
X12475000Y-11388500D01*
X12475000Y-11238500D02*
X12325000Y-11388500D01*
X12400000Y-11238500D02*
X12400000Y-11388500D01*
X12325000Y-11313500D02*
X12475000Y-11313500D01*
X12325000Y-12038500D02*
X12475000Y-12188500D01*
X12475000Y-12038500D02*
X12325000Y-12188500D01*
X12400000Y-12038500D02*
X12400000Y-12188500D01*
X12325000Y-12113500D02*
X12475000Y-12113500D01*
X12475000Y-11488500D02*
X12625000Y-11638500D01*
X12625000Y-11488500D02*
X12475000Y-11638500D01*
X12550000Y-11488500D02*
X12550000Y-11638500D01*
X12475000Y-11563500D02*
X12625000Y-11563500D01*
X12475000Y-11788500D02*
X12625000Y-11938500D01*
X12625000Y-11788500D02*
X12475000Y-11938500D01*
X12550000Y-11788500D02*
X12550000Y-11938500D01*
X12475000Y-11863500D02*
X12625000Y-11863500D01*
X12625000Y-11238500D02*
X12775000Y-11388500D01*
X12775000Y-11238500D02*
X12625000Y-11388500D01*
X12700000Y-11238500D02*
X12700000Y-11388500D01*
X12625000Y-11313500D02*
X12775000Y-11313500D01*
X12625000Y-12038500D02*
X12775000Y-12188500D01*
X12775000Y-12038500D02*
X12625000Y-12188500D01*
X12700000Y-12038500D02*
X12700000Y-12188500D01*
X12625000Y-12113500D02*
X12775000Y-12113500D01*
X12775000Y-11488500D02*
X12925000Y-11638500D01*
X12925000Y-11488500D02*
X12775000Y-11638500D01*
X12850000Y-11488500D02*
X12850000Y-11638500D01*
X12775000Y-11563500D02*
X12925000Y-11563500D01*
X12775000Y-11788500D02*
X12925000Y-11938500D01*
X12925000Y-11788500D02*
X12775000Y-11938500D01*
X12850000Y-11788500D02*
X12850000Y-11938500D01*
X12775000Y-11863500D02*
X12925000Y-11863500D01*
X12925000Y-11238500D02*
X13075000Y-11388500D01*
X13075000Y-11238500D02*
X12925000Y-11388500D01*
X13000000Y-11238500D02*
X13000000Y-11388500D01*
X12925000Y-11313500D02*
X13075000Y-11313500D01*
X12925000Y-12038500D02*
X13075000Y-12188500D01*
X13075000Y-12038500D02*
X12925000Y-12188500D01*
X13000000Y-12038500D02*
X13000000Y-12188500D01*
X12925000Y-12113500D02*
X13075000Y-12113500D01*
X13075000Y-11488500D02*
X13225000Y-11638500D01*
X13225000Y-11488500D02*
X13075000Y-11638500D01*
X13150000Y-11488500D02*
X13150000Y-11638500D01*
X13075000Y-11563500D02*
X13225000Y-11563500D01*
X13075000Y-11788500D02*
X13225000Y-11938500D01*
X13225000Y-11788500D02*
X13075000Y-11938500D01*
X13150000Y-11788500D02*
X13150000Y-11938500D01*
X13075000Y-11863500D02*
X13225000Y-11863500D01*
X13225000Y-11238500D02*
X13375000Y-11388500D01*
X13375000Y-11238500D02*
X13225000Y-11388500D01*
X13300000Y-11238500D02*
X13300000Y-11388500D01*
X13225000Y-11313500D02*
X13375000Y-11313500D01*
X13225000Y-12038500D02*
X13375000Y-12188500D01*
X13375000Y-12038500D02*
X13225000Y-12188500D01*
X13300000Y-12038500D02*
X13300000Y-12188500D01*
X13225000Y-12113500D02*
X13375000Y-12113500D01*
X13375000Y-11488500D02*
X13525000Y-11638500D01*
X13525000Y-11488500D02*
X13375000Y-11638500D01*
X13450000Y-11488500D02*
X13450000Y-11638500D01*
X13375000Y-11563500D02*
X13525000Y-11563500D01*
X13375000Y-11788500D02*
X13525000Y-11938500D01*
X13525000Y-11788500D02*
X13375000Y-11938500D01*
X13450000Y-11788500D02*
X13450000Y-11938500D01*
X13375000Y-11863500D02*
X13525000Y-11863500D01*
X13525000Y-11238500D02*
X13675000Y-11388500D01*
X13675000Y-11238500D02*
X13525000Y-11388500D01*
X13600000Y-11238500D02*
X13600000Y-11388500D01*
X13525000Y-11313500D02*
X13675000Y-11313500D01*
X13525000Y-12038500D02*
X13675000Y-12188500D01*
X13675000Y-12038500D02*
X13525000Y-12188500D01*
X13600000Y-12038500D02*
X13600000Y-12188500D01*
X13525000Y-12113500D02*
X13675000Y-12113500D01*
D11*
X9129619Y-13420576D02*
X9129619Y-13220576D01*
X9129619Y-13220576D02*
X9177238Y-13220576D01*
X9177238Y-13220576D02*
X9205810Y-13230100D01*
X9205810Y-13230100D02*
X9224857Y-13249148D01*
X9224857Y-13249148D02*
X9234381Y-13268195D01*
X9234381Y-13268195D02*
X9243905Y-13306290D01*
X9243905Y-13306290D02*
X9243905Y-13334862D01*
X9243905Y-13334862D02*
X9234381Y-13372957D01*
X9234381Y-13372957D02*
X9224857Y-13392005D01*
X9224857Y-13392005D02*
X9205810Y-13411052D01*
X9205810Y-13411052D02*
X9177238Y-13420576D01*
X9177238Y-13420576D02*
X9129619Y-13420576D01*
X9329619Y-13420576D02*
X9329619Y-13287243D01*
X9329619Y-13325338D02*
X9339143Y-13306290D01*
X9339143Y-13306290D02*
X9348667Y-13296767D01*
X9348667Y-13296767D02*
X9367714Y-13287243D01*
X9367714Y-13287243D02*
X9386762Y-13287243D01*
X9453429Y-13420576D02*
X9453429Y-13287243D01*
X9453429Y-13220576D02*
X9443905Y-13230100D01*
X9443905Y-13230100D02*
X9453429Y-13239624D01*
X9453429Y-13239624D02*
X9462952Y-13230100D01*
X9462952Y-13230100D02*
X9453429Y-13220576D01*
X9453429Y-13220576D02*
X9453429Y-13239624D01*
X9577238Y-13420576D02*
X9558190Y-13411052D01*
X9558190Y-13411052D02*
X9548667Y-13392005D01*
X9548667Y-13392005D02*
X9548667Y-13220576D01*
X9682000Y-13420576D02*
X9662952Y-13411052D01*
X9662952Y-13411052D02*
X9653429Y-13392005D01*
X9653429Y-13392005D02*
X9653429Y-13220576D01*
X9878190Y-13420576D02*
X9878190Y-13220576D01*
X9878190Y-13220576D02*
X9944857Y-13363433D01*
X9944857Y-13363433D02*
X10011524Y-13220576D01*
X10011524Y-13220576D02*
X10011524Y-13420576D01*
X10192476Y-13420576D02*
X10192476Y-13315814D01*
X10192476Y-13315814D02*
X10182952Y-13296767D01*
X10182952Y-13296767D02*
X10163905Y-13287243D01*
X10163905Y-13287243D02*
X10125809Y-13287243D01*
X10125809Y-13287243D02*
X10106762Y-13296767D01*
X10192476Y-13411052D02*
X10173429Y-13420576D01*
X10173429Y-13420576D02*
X10125809Y-13420576D01*
X10125809Y-13420576D02*
X10106762Y-13411052D01*
X10106762Y-13411052D02*
X10097238Y-13392005D01*
X10097238Y-13392005D02*
X10097238Y-13372957D01*
X10097238Y-13372957D02*
X10106762Y-13353909D01*
X10106762Y-13353909D02*
X10125809Y-13344386D01*
X10125809Y-13344386D02*
X10173429Y-13344386D01*
X10173429Y-13344386D02*
X10192476Y-13334862D01*
X10287714Y-13287243D02*
X10287714Y-13487243D01*
X10287714Y-13296767D02*
X10306762Y-13287243D01*
X10306762Y-13287243D02*
X10344857Y-13287243D01*
X10344857Y-13287243D02*
X10363905Y-13296767D01*
X10363905Y-13296767D02*
X10373429Y-13306290D01*
X10373429Y-13306290D02*
X10382952Y-13325338D01*
X10382952Y-13325338D02*
X10382952Y-13382481D01*
X10382952Y-13382481D02*
X10373429Y-13401528D01*
X10373429Y-13401528D02*
X10363905Y-13411052D01*
X10363905Y-13411052D02*
X10344857Y-13420576D01*
X10344857Y-13420576D02*
X10306762Y-13420576D01*
X10306762Y-13420576D02*
X10287714Y-13411052D01*
X10468667Y-13401528D02*
X10478190Y-13411052D01*
X10478190Y-13411052D02*
X10468667Y-13420576D01*
X10468667Y-13420576D02*
X10459143Y-13411052D01*
X10459143Y-13411052D02*
X10468667Y-13401528D01*
X10468667Y-13401528D02*
X10468667Y-13420576D01*
X10468667Y-13296767D02*
X10478190Y-13306290D01*
X10478190Y-13306290D02*
X10468667Y-13315814D01*
X10468667Y-13315814D02*
X10459143Y-13306290D01*
X10459143Y-13306290D02*
X10468667Y-13296767D01*
X10468667Y-13296767D02*
X10468667Y-13315814D01*
D12*
X8862000Y-13757100D02*
X8882000Y-13777100D01*
X8882000Y-13757100D02*
X8862000Y-13777100D01*
D11*
X9167714Y-13640576D02*
X9186762Y-13640576D01*
X9186762Y-13640576D02*
X9205810Y-13650100D01*
X9205810Y-13650100D02*
X9215333Y-13659624D01*
X9215333Y-13659624D02*
X9224857Y-13678671D01*
X9224857Y-13678671D02*
X9234381Y-13716767D01*
X9234381Y-13716767D02*
X9234381Y-13764386D01*
X9234381Y-13764386D02*
X9224857Y-13802481D01*
X9224857Y-13802481D02*
X9215333Y-13821528D01*
X9215333Y-13821528D02*
X9205810Y-13831052D01*
X9205810Y-13831052D02*
X9186762Y-13840576D01*
X9186762Y-13840576D02*
X9167714Y-13840576D01*
X9167714Y-13840576D02*
X9148667Y-13831052D01*
X9148667Y-13831052D02*
X9139143Y-13821528D01*
X9139143Y-13821528D02*
X9129619Y-13802481D01*
X9129619Y-13802481D02*
X9120095Y-13764386D01*
X9120095Y-13764386D02*
X9120095Y-13716767D01*
X9120095Y-13716767D02*
X9129619Y-13678671D01*
X9129619Y-13678671D02*
X9139143Y-13659624D01*
X9139143Y-13659624D02*
X9148667Y-13650100D01*
X9148667Y-13650100D02*
X9167714Y-13640576D01*
X9320095Y-13821528D02*
X9329619Y-13831052D01*
X9329619Y-13831052D02*
X9320095Y-13840576D01*
X9320095Y-13840576D02*
X9310571Y-13831052D01*
X9310571Y-13831052D02*
X9320095Y-13821528D01*
X9320095Y-13821528D02*
X9320095Y-13840576D01*
X9405810Y-13659624D02*
X9415333Y-13650100D01*
X9415333Y-13650100D02*
X9434381Y-13640576D01*
X9434381Y-13640576D02*
X9482000Y-13640576D01*
X9482000Y-13640576D02*
X9501048Y-13650100D01*
X9501048Y-13650100D02*
X9510571Y-13659624D01*
X9510571Y-13659624D02*
X9520095Y-13678671D01*
X9520095Y-13678671D02*
X9520095Y-13697719D01*
X9520095Y-13697719D02*
X9510571Y-13726290D01*
X9510571Y-13726290D02*
X9396286Y-13840576D01*
X9396286Y-13840576D02*
X9520095Y-13840576D01*
X9643905Y-13640576D02*
X9662952Y-13640576D01*
X9662952Y-13640576D02*
X9682000Y-13650100D01*
X9682000Y-13650100D02*
X9691524Y-13659624D01*
X9691524Y-13659624D02*
X9701048Y-13678671D01*
X9701048Y-13678671D02*
X9710571Y-13716767D01*
X9710571Y-13716767D02*
X9710571Y-13764386D01*
X9710571Y-13764386D02*
X9701048Y-13802481D01*
X9701048Y-13802481D02*
X9691524Y-13821528D01*
X9691524Y-13821528D02*
X9682000Y-13831052D01*
X9682000Y-13831052D02*
X9662952Y-13840576D01*
X9662952Y-13840576D02*
X9643905Y-13840576D01*
X9643905Y-13840576D02*
X9624857Y-13831052D01*
X9624857Y-13831052D02*
X9615333Y-13821528D01*
X9615333Y-13821528D02*
X9605810Y-13802481D01*
X9605810Y-13802481D02*
X9596286Y-13764386D01*
X9596286Y-13764386D02*
X9596286Y-13716767D01*
X9596286Y-13716767D02*
X9605810Y-13678671D01*
X9605810Y-13678671D02*
X9615333Y-13659624D01*
X9615333Y-13659624D02*
X9624857Y-13650100D01*
X9624857Y-13650100D02*
X9643905Y-13640576D01*
X9834381Y-13640576D02*
X9853429Y-13640576D01*
X9853429Y-13640576D02*
X9872476Y-13650100D01*
X9872476Y-13650100D02*
X9882000Y-13659624D01*
X9882000Y-13659624D02*
X9891524Y-13678671D01*
X9891524Y-13678671D02*
X9901048Y-13716767D01*
X9901048Y-13716767D02*
X9901048Y-13764386D01*
X9901048Y-13764386D02*
X9891524Y-13802481D01*
X9891524Y-13802481D02*
X9882000Y-13821528D01*
X9882000Y-13821528D02*
X9872476Y-13831052D01*
X9872476Y-13831052D02*
X9853429Y-13840576D01*
X9853429Y-13840576D02*
X9834381Y-13840576D01*
X9834381Y-13840576D02*
X9815333Y-13831052D01*
X9815333Y-13831052D02*
X9805810Y-13821528D01*
X9805810Y-13821528D02*
X9796286Y-13802481D01*
X9796286Y-13802481D02*
X9786762Y-13764386D01*
X9786762Y-13764386D02*
X9786762Y-13716767D01*
X9786762Y-13716767D02*
X9796286Y-13678671D01*
X9796286Y-13678671D02*
X9805810Y-13659624D01*
X9805810Y-13659624D02*
X9815333Y-13650100D01*
X9815333Y-13650100D02*
X9834381Y-13640576D01*
X9986762Y-13840576D02*
X9986762Y-13707243D01*
X9986762Y-13726290D02*
X9996286Y-13716767D01*
X9996286Y-13716767D02*
X10015333Y-13707243D01*
X10015333Y-13707243D02*
X10043905Y-13707243D01*
X10043905Y-13707243D02*
X10062952Y-13716767D01*
X10062952Y-13716767D02*
X10072476Y-13735814D01*
X10072476Y-13735814D02*
X10072476Y-13840576D01*
X10072476Y-13735814D02*
X10082000Y-13716767D01*
X10082000Y-13716767D02*
X10101048Y-13707243D01*
X10101048Y-13707243D02*
X10129619Y-13707243D01*
X10129619Y-13707243D02*
X10148667Y-13716767D01*
X10148667Y-13716767D02*
X10158191Y-13735814D01*
X10158191Y-13735814D02*
X10158191Y-13840576D01*
X10253429Y-13840576D02*
X10253429Y-13707243D01*
X10253429Y-13726290D02*
X10262952Y-13716767D01*
X10262952Y-13716767D02*
X10282000Y-13707243D01*
X10282000Y-13707243D02*
X10310572Y-13707243D01*
X10310572Y-13707243D02*
X10329619Y-13716767D01*
X10329619Y-13716767D02*
X10339143Y-13735814D01*
X10339143Y-13735814D02*
X10339143Y-13840576D01*
X10339143Y-13735814D02*
X10348667Y-13716767D01*
X10348667Y-13716767D02*
X10367714Y-13707243D01*
X10367714Y-13707243D02*
X10396286Y-13707243D01*
X10396286Y-13707243D02*
X10415333Y-13716767D01*
X10415333Y-13716767D02*
X10424857Y-13735814D01*
X10424857Y-13735814D02*
X10424857Y-13840576D01*
X10782952Y-13631052D02*
X10611524Y-13888195D01*
X11007714Y-13640576D02*
X11026762Y-13640576D01*
X11026762Y-13640576D02*
X11045810Y-13650100D01*
X11045810Y-13650100D02*
X11055333Y-13659624D01*
X11055333Y-13659624D02*
X11064857Y-13678671D01*
X11064857Y-13678671D02*
X11074381Y-13716767D01*
X11074381Y-13716767D02*
X11074381Y-13764386D01*
X11074381Y-13764386D02*
X11064857Y-13802481D01*
X11064857Y-13802481D02*
X11055333Y-13821528D01*
X11055333Y-13821528D02*
X11045810Y-13831052D01*
X11045810Y-13831052D02*
X11026762Y-13840576D01*
X11026762Y-13840576D02*
X11007714Y-13840576D01*
X11007714Y-13840576D02*
X10988667Y-13831052D01*
X10988667Y-13831052D02*
X10979143Y-13821528D01*
X10979143Y-13821528D02*
X10969619Y-13802481D01*
X10969619Y-13802481D02*
X10960095Y-13764386D01*
X10960095Y-13764386D02*
X10960095Y-13716767D01*
X10960095Y-13716767D02*
X10969619Y-13678671D01*
X10969619Y-13678671D02*
X10979143Y-13659624D01*
X10979143Y-13659624D02*
X10988667Y-13650100D01*
X10988667Y-13650100D02*
X11007714Y-13640576D01*
X11160095Y-13821528D02*
X11169619Y-13831052D01*
X11169619Y-13831052D02*
X11160095Y-13840576D01*
X11160095Y-13840576D02*
X11150572Y-13831052D01*
X11150572Y-13831052D02*
X11160095Y-13821528D01*
X11160095Y-13821528D02*
X11160095Y-13840576D01*
X11293429Y-13640576D02*
X11312476Y-13640576D01*
X11312476Y-13640576D02*
X11331524Y-13650100D01*
X11331524Y-13650100D02*
X11341048Y-13659624D01*
X11341048Y-13659624D02*
X11350571Y-13678671D01*
X11350571Y-13678671D02*
X11360095Y-13716767D01*
X11360095Y-13716767D02*
X11360095Y-13764386D01*
X11360095Y-13764386D02*
X11350571Y-13802481D01*
X11350571Y-13802481D02*
X11341048Y-13821528D01*
X11341048Y-13821528D02*
X11331524Y-13831052D01*
X11331524Y-13831052D02*
X11312476Y-13840576D01*
X11312476Y-13840576D02*
X11293429Y-13840576D01*
X11293429Y-13840576D02*
X11274381Y-13831052D01*
X11274381Y-13831052D02*
X11264857Y-13821528D01*
X11264857Y-13821528D02*
X11255333Y-13802481D01*
X11255333Y-13802481D02*
X11245810Y-13764386D01*
X11245810Y-13764386D02*
X11245810Y-13716767D01*
X11245810Y-13716767D02*
X11255333Y-13678671D01*
X11255333Y-13678671D02*
X11264857Y-13659624D01*
X11264857Y-13659624D02*
X11274381Y-13650100D01*
X11274381Y-13650100D02*
X11293429Y-13640576D01*
X11483905Y-13640576D02*
X11502952Y-13640576D01*
X11502952Y-13640576D02*
X11522000Y-13650100D01*
X11522000Y-13650100D02*
X11531524Y-13659624D01*
X11531524Y-13659624D02*
X11541048Y-13678671D01*
X11541048Y-13678671D02*
X11550571Y-13716767D01*
X11550571Y-13716767D02*
X11550571Y-13764386D01*
X11550571Y-13764386D02*
X11541048Y-13802481D01*
X11541048Y-13802481D02*
X11531524Y-13821528D01*
X11531524Y-13821528D02*
X11522000Y-13831052D01*
X11522000Y-13831052D02*
X11502952Y-13840576D01*
X11502952Y-13840576D02*
X11483905Y-13840576D01*
X11483905Y-13840576D02*
X11464857Y-13831052D01*
X11464857Y-13831052D02*
X11455333Y-13821528D01*
X11455333Y-13821528D02*
X11445810Y-13802481D01*
X11445810Y-13802481D02*
X11436286Y-13764386D01*
X11436286Y-13764386D02*
X11436286Y-13716767D01*
X11436286Y-13716767D02*
X11445810Y-13678671D01*
X11445810Y-13678671D02*
X11455333Y-13659624D01*
X11455333Y-13659624D02*
X11464857Y-13650100D01*
X11464857Y-13650100D02*
X11483905Y-13640576D01*
X11617238Y-13640576D02*
X11750571Y-13640576D01*
X11750571Y-13640576D02*
X11664857Y-13840576D01*
X11836286Y-13840576D02*
X11874381Y-13840576D01*
X11874381Y-13840576D02*
X11893429Y-13831052D01*
X11893429Y-13831052D02*
X11902952Y-13821528D01*
X11902952Y-13821528D02*
X11922000Y-13792957D01*
X11922000Y-13792957D02*
X11931524Y-13754862D01*
X11931524Y-13754862D02*
X11931524Y-13678671D01*
X11931524Y-13678671D02*
X11922000Y-13659624D01*
X11922000Y-13659624D02*
X11912476Y-13650100D01*
X11912476Y-13650100D02*
X11893429Y-13640576D01*
X11893429Y-13640576D02*
X11855333Y-13640576D01*
X11855333Y-13640576D02*
X11836286Y-13650100D01*
X11836286Y-13650100D02*
X11826762Y-13659624D01*
X11826762Y-13659624D02*
X11817238Y-13678671D01*
X11817238Y-13678671D02*
X11817238Y-13726290D01*
X11817238Y-13726290D02*
X11826762Y-13745338D01*
X11826762Y-13745338D02*
X11836286Y-13754862D01*
X11836286Y-13754862D02*
X11855333Y-13764386D01*
X11855333Y-13764386D02*
X11893429Y-13764386D01*
X11893429Y-13764386D02*
X11912476Y-13754862D01*
X11912476Y-13754862D02*
X11922000Y-13745338D01*
X11922000Y-13745338D02*
X11931524Y-13726290D01*
X12007714Y-13640576D02*
X12007714Y-13678671D01*
X12083905Y-13640576D02*
X12083905Y-13678671D01*
X12346762Y-13916767D02*
X12337238Y-13907243D01*
X12337238Y-13907243D02*
X12318191Y-13878671D01*
X12318191Y-13878671D02*
X12308667Y-13859624D01*
X12308667Y-13859624D02*
X12299143Y-13831052D01*
X12299143Y-13831052D02*
X12289619Y-13783433D01*
X12289619Y-13783433D02*
X12289619Y-13745338D01*
X12289619Y-13745338D02*
X12299143Y-13697719D01*
X12299143Y-13697719D02*
X12308667Y-13669148D01*
X12308667Y-13669148D02*
X12318191Y-13650100D01*
X12318191Y-13650100D02*
X12337238Y-13621528D01*
X12337238Y-13621528D02*
X12346762Y-13612005D01*
X12508667Y-13707243D02*
X12508667Y-13840576D01*
X12461048Y-13631052D02*
X12413429Y-13773909D01*
X12413429Y-13773909D02*
X12537238Y-13773909D01*
X12718191Y-13840576D02*
X12603905Y-13840576D01*
X12661048Y-13840576D02*
X12661048Y-13640576D01*
X12661048Y-13640576D02*
X12642000Y-13669148D01*
X12642000Y-13669148D02*
X12622952Y-13688195D01*
X12622952Y-13688195D02*
X12603905Y-13697719D01*
X12923905Y-13840576D02*
X12923905Y-13640576D01*
X13009619Y-13840576D02*
X13009619Y-13735814D01*
X13009619Y-13735814D02*
X13000095Y-13716767D01*
X13000095Y-13716767D02*
X12981048Y-13707243D01*
X12981048Y-13707243D02*
X12952476Y-13707243D01*
X12952476Y-13707243D02*
X12933429Y-13716767D01*
X12933429Y-13716767D02*
X12923905Y-13726290D01*
X13133429Y-13840576D02*
X13114381Y-13831052D01*
X13114381Y-13831052D02*
X13104857Y-13821528D01*
X13104857Y-13821528D02*
X13095333Y-13802481D01*
X13095333Y-13802481D02*
X13095333Y-13745338D01*
X13095333Y-13745338D02*
X13104857Y-13726290D01*
X13104857Y-13726290D02*
X13114381Y-13716767D01*
X13114381Y-13716767D02*
X13133429Y-13707243D01*
X13133429Y-13707243D02*
X13162000Y-13707243D01*
X13162000Y-13707243D02*
X13181048Y-13716767D01*
X13181048Y-13716767D02*
X13190572Y-13726290D01*
X13190572Y-13726290D02*
X13200095Y-13745338D01*
X13200095Y-13745338D02*
X13200095Y-13802481D01*
X13200095Y-13802481D02*
X13190572Y-13821528D01*
X13190572Y-13821528D02*
X13181048Y-13831052D01*
X13181048Y-13831052D02*
X13162000Y-13840576D01*
X13162000Y-13840576D02*
X13133429Y-13840576D01*
X13314381Y-13840576D02*
X13295333Y-13831052D01*
X13295333Y-13831052D02*
X13285810Y-13812005D01*
X13285810Y-13812005D02*
X13285810Y-13640576D01*
X13466762Y-13831052D02*
X13447714Y-13840576D01*
X13447714Y-13840576D02*
X13409619Y-13840576D01*
X13409619Y-13840576D02*
X13390572Y-13831052D01*
X13390572Y-13831052D02*
X13381048Y-13812005D01*
X13381048Y-13812005D02*
X13381048Y-13735814D01*
X13381048Y-13735814D02*
X13390572Y-13716767D01*
X13390572Y-13716767D02*
X13409619Y-13707243D01*
X13409619Y-13707243D02*
X13447714Y-13707243D01*
X13447714Y-13707243D02*
X13466762Y-13716767D01*
X13466762Y-13716767D02*
X13476286Y-13735814D01*
X13476286Y-13735814D02*
X13476286Y-13754862D01*
X13476286Y-13754862D02*
X13381048Y-13773909D01*
X13552476Y-13831052D02*
X13571524Y-13840576D01*
X13571524Y-13840576D02*
X13609619Y-13840576D01*
X13609619Y-13840576D02*
X13628667Y-13831052D01*
X13628667Y-13831052D02*
X13638191Y-13812005D01*
X13638191Y-13812005D02*
X13638191Y-13802481D01*
X13638191Y-13802481D02*
X13628667Y-13783433D01*
X13628667Y-13783433D02*
X13609619Y-13773909D01*
X13609619Y-13773909D02*
X13581048Y-13773909D01*
X13581048Y-13773909D02*
X13562000Y-13764386D01*
X13562000Y-13764386D02*
X13552476Y-13745338D01*
X13552476Y-13745338D02*
X13552476Y-13735814D01*
X13552476Y-13735814D02*
X13562000Y-13716767D01*
X13562000Y-13716767D02*
X13581048Y-13707243D01*
X13581048Y-13707243D02*
X13609619Y-13707243D01*
X13609619Y-13707243D02*
X13628667Y-13716767D01*
X13704857Y-13916767D02*
X13714381Y-13907243D01*
X13714381Y-13907243D02*
X13733429Y-13878671D01*
X13733429Y-13878671D02*
X13742953Y-13859624D01*
X13742953Y-13859624D02*
X13752476Y-13831052D01*
X13752476Y-13831052D02*
X13762000Y-13783433D01*
X13762000Y-13783433D02*
X13762000Y-13745338D01*
X13762000Y-13745338D02*
X13752476Y-13697719D01*
X13752476Y-13697719D02*
X13742953Y-13669148D01*
X13742953Y-13669148D02*
X13733429Y-13650100D01*
X13733429Y-13650100D02*
X13714381Y-13621528D01*
X13714381Y-13621528D02*
X13704857Y-13612005D01*
D13*
X8882000Y-14031100D02*
G75*
G03*
X8882000Y-14031100I-15000J0D01*
G01*
D11*
X9167714Y-13904576D02*
X9186762Y-13904576D01*
X9186762Y-13904576D02*
X9205810Y-13914100D01*
X9205810Y-13914100D02*
X9215333Y-13923624D01*
X9215333Y-13923624D02*
X9224857Y-13942671D01*
X9224857Y-13942671D02*
X9234381Y-13980767D01*
X9234381Y-13980767D02*
X9234381Y-14028386D01*
X9234381Y-14028386D02*
X9224857Y-14066481D01*
X9224857Y-14066481D02*
X9215333Y-14085528D01*
X9215333Y-14085528D02*
X9205810Y-14095052D01*
X9205810Y-14095052D02*
X9186762Y-14104576D01*
X9186762Y-14104576D02*
X9167714Y-14104576D01*
X9167714Y-14104576D02*
X9148667Y-14095052D01*
X9148667Y-14095052D02*
X9139143Y-14085528D01*
X9139143Y-14085528D02*
X9129619Y-14066481D01*
X9129619Y-14066481D02*
X9120095Y-14028386D01*
X9120095Y-14028386D02*
X9120095Y-13980767D01*
X9120095Y-13980767D02*
X9129619Y-13942671D01*
X9129619Y-13942671D02*
X9139143Y-13923624D01*
X9139143Y-13923624D02*
X9148667Y-13914100D01*
X9148667Y-13914100D02*
X9167714Y-13904576D01*
X9320095Y-14085528D02*
X9329619Y-14095052D01*
X9329619Y-14095052D02*
X9320095Y-14104576D01*
X9320095Y-14104576D02*
X9310571Y-14095052D01*
X9310571Y-14095052D02*
X9320095Y-14085528D01*
X9320095Y-14085528D02*
X9320095Y-14104576D01*
X9396286Y-13904576D02*
X9520095Y-13904576D01*
X9520095Y-13904576D02*
X9453429Y-13980767D01*
X9453429Y-13980767D02*
X9482000Y-13980767D01*
X9482000Y-13980767D02*
X9501048Y-13990290D01*
X9501048Y-13990290D02*
X9510571Y-13999814D01*
X9510571Y-13999814D02*
X9520095Y-14018862D01*
X9520095Y-14018862D02*
X9520095Y-14066481D01*
X9520095Y-14066481D02*
X9510571Y-14085528D01*
X9510571Y-14085528D02*
X9501048Y-14095052D01*
X9501048Y-14095052D02*
X9482000Y-14104576D01*
X9482000Y-14104576D02*
X9424857Y-14104576D01*
X9424857Y-14104576D02*
X9405810Y-14095052D01*
X9405810Y-14095052D02*
X9396286Y-14085528D01*
X9643905Y-13904576D02*
X9662952Y-13904576D01*
X9662952Y-13904576D02*
X9682000Y-13914100D01*
X9682000Y-13914100D02*
X9691524Y-13923624D01*
X9691524Y-13923624D02*
X9701048Y-13942671D01*
X9701048Y-13942671D02*
X9710571Y-13980767D01*
X9710571Y-13980767D02*
X9710571Y-14028386D01*
X9710571Y-14028386D02*
X9701048Y-14066481D01*
X9701048Y-14066481D02*
X9691524Y-14085528D01*
X9691524Y-14085528D02*
X9682000Y-14095052D01*
X9682000Y-14095052D02*
X9662952Y-14104576D01*
X9662952Y-14104576D02*
X9643905Y-14104576D01*
X9643905Y-14104576D02*
X9624857Y-14095052D01*
X9624857Y-14095052D02*
X9615333Y-14085528D01*
X9615333Y-14085528D02*
X9605810Y-14066481D01*
X9605810Y-14066481D02*
X9596286Y-14028386D01*
X9596286Y-14028386D02*
X9596286Y-13980767D01*
X9596286Y-13980767D02*
X9605810Y-13942671D01*
X9605810Y-13942671D02*
X9615333Y-13923624D01*
X9615333Y-13923624D02*
X9624857Y-13914100D01*
X9624857Y-13914100D02*
X9643905Y-13904576D01*
X9834381Y-13904576D02*
X9853429Y-13904576D01*
X9853429Y-13904576D02*
X9872476Y-13914100D01*
X9872476Y-13914100D02*
X9882000Y-13923624D01*
X9882000Y-13923624D02*
X9891524Y-13942671D01*
X9891524Y-13942671D02*
X9901048Y-13980767D01*
X9901048Y-13980767D02*
X9901048Y-14028386D01*
X9901048Y-14028386D02*
X9891524Y-14066481D01*
X9891524Y-14066481D02*
X9882000Y-14085528D01*
X9882000Y-14085528D02*
X9872476Y-14095052D01*
X9872476Y-14095052D02*
X9853429Y-14104576D01*
X9853429Y-14104576D02*
X9834381Y-14104576D01*
X9834381Y-14104576D02*
X9815333Y-14095052D01*
X9815333Y-14095052D02*
X9805810Y-14085528D01*
X9805810Y-14085528D02*
X9796286Y-14066481D01*
X9796286Y-14066481D02*
X9786762Y-14028386D01*
X9786762Y-14028386D02*
X9786762Y-13980767D01*
X9786762Y-13980767D02*
X9796286Y-13942671D01*
X9796286Y-13942671D02*
X9805810Y-13923624D01*
X9805810Y-13923624D02*
X9815333Y-13914100D01*
X9815333Y-13914100D02*
X9834381Y-13904576D01*
X9986762Y-14104576D02*
X9986762Y-13971243D01*
X9986762Y-13990290D02*
X9996286Y-13980767D01*
X9996286Y-13980767D02*
X10015333Y-13971243D01*
X10015333Y-13971243D02*
X10043905Y-13971243D01*
X10043905Y-13971243D02*
X10062952Y-13980767D01*
X10062952Y-13980767D02*
X10072476Y-13999814D01*
X10072476Y-13999814D02*
X10072476Y-14104576D01*
X10072476Y-13999814D02*
X10082000Y-13980767D01*
X10082000Y-13980767D02*
X10101048Y-13971243D01*
X10101048Y-13971243D02*
X10129619Y-13971243D01*
X10129619Y-13971243D02*
X10148667Y-13980767D01*
X10148667Y-13980767D02*
X10158191Y-13999814D01*
X10158191Y-13999814D02*
X10158191Y-14104576D01*
X10253429Y-14104576D02*
X10253429Y-13971243D01*
X10253429Y-13990290D02*
X10262952Y-13980767D01*
X10262952Y-13980767D02*
X10282000Y-13971243D01*
X10282000Y-13971243D02*
X10310572Y-13971243D01*
X10310572Y-13971243D02*
X10329619Y-13980767D01*
X10329619Y-13980767D02*
X10339143Y-13999814D01*
X10339143Y-13999814D02*
X10339143Y-14104576D01*
X10339143Y-13999814D02*
X10348667Y-13980767D01*
X10348667Y-13980767D02*
X10367714Y-13971243D01*
X10367714Y-13971243D02*
X10396286Y-13971243D01*
X10396286Y-13971243D02*
X10415333Y-13980767D01*
X10415333Y-13980767D02*
X10424857Y-13999814D01*
X10424857Y-13999814D02*
X10424857Y-14104576D01*
X10782952Y-13895052D02*
X10611524Y-14152195D01*
X11007714Y-13904576D02*
X11026762Y-13904576D01*
X11026762Y-13904576D02*
X11045810Y-13914100D01*
X11045810Y-13914100D02*
X11055333Y-13923624D01*
X11055333Y-13923624D02*
X11064857Y-13942671D01*
X11064857Y-13942671D02*
X11074381Y-13980767D01*
X11074381Y-13980767D02*
X11074381Y-14028386D01*
X11074381Y-14028386D02*
X11064857Y-14066481D01*
X11064857Y-14066481D02*
X11055333Y-14085528D01*
X11055333Y-14085528D02*
X11045810Y-14095052D01*
X11045810Y-14095052D02*
X11026762Y-14104576D01*
X11026762Y-14104576D02*
X11007714Y-14104576D01*
X11007714Y-14104576D02*
X10988667Y-14095052D01*
X10988667Y-14095052D02*
X10979143Y-14085528D01*
X10979143Y-14085528D02*
X10969619Y-14066481D01*
X10969619Y-14066481D02*
X10960095Y-14028386D01*
X10960095Y-14028386D02*
X10960095Y-13980767D01*
X10960095Y-13980767D02*
X10969619Y-13942671D01*
X10969619Y-13942671D02*
X10979143Y-13923624D01*
X10979143Y-13923624D02*
X10988667Y-13914100D01*
X10988667Y-13914100D02*
X11007714Y-13904576D01*
X11160095Y-14085528D02*
X11169619Y-14095052D01*
X11169619Y-14095052D02*
X11160095Y-14104576D01*
X11160095Y-14104576D02*
X11150572Y-14095052D01*
X11150572Y-14095052D02*
X11160095Y-14085528D01*
X11160095Y-14085528D02*
X11160095Y-14104576D01*
X11293429Y-13904576D02*
X11312476Y-13904576D01*
X11312476Y-13904576D02*
X11331524Y-13914100D01*
X11331524Y-13914100D02*
X11341048Y-13923624D01*
X11341048Y-13923624D02*
X11350571Y-13942671D01*
X11350571Y-13942671D02*
X11360095Y-13980767D01*
X11360095Y-13980767D02*
X11360095Y-14028386D01*
X11360095Y-14028386D02*
X11350571Y-14066481D01*
X11350571Y-14066481D02*
X11341048Y-14085528D01*
X11341048Y-14085528D02*
X11331524Y-14095052D01*
X11331524Y-14095052D02*
X11312476Y-14104576D01*
X11312476Y-14104576D02*
X11293429Y-14104576D01*
X11293429Y-14104576D02*
X11274381Y-14095052D01*
X11274381Y-14095052D02*
X11264857Y-14085528D01*
X11264857Y-14085528D02*
X11255333Y-14066481D01*
X11255333Y-14066481D02*
X11245810Y-14028386D01*
X11245810Y-14028386D02*
X11245810Y-13980767D01*
X11245810Y-13980767D02*
X11255333Y-13942671D01*
X11255333Y-13942671D02*
X11264857Y-13923624D01*
X11264857Y-13923624D02*
X11274381Y-13914100D01*
X11274381Y-13914100D02*
X11293429Y-13904576D01*
X11550571Y-14104576D02*
X11436286Y-14104576D01*
X11493429Y-14104576D02*
X11493429Y-13904576D01*
X11493429Y-13904576D02*
X11474381Y-13933148D01*
X11474381Y-13933148D02*
X11455333Y-13952195D01*
X11455333Y-13952195D02*
X11436286Y-13961719D01*
X11741048Y-14104576D02*
X11626762Y-14104576D01*
X11683905Y-14104576D02*
X11683905Y-13904576D01*
X11683905Y-13904576D02*
X11664857Y-13933148D01*
X11664857Y-13933148D02*
X11645810Y-13952195D01*
X11645810Y-13952195D02*
X11626762Y-13961719D01*
X11855333Y-13990290D02*
X11836286Y-13980767D01*
X11836286Y-13980767D02*
X11826762Y-13971243D01*
X11826762Y-13971243D02*
X11817238Y-13952195D01*
X11817238Y-13952195D02*
X11817238Y-13942671D01*
X11817238Y-13942671D02*
X11826762Y-13923624D01*
X11826762Y-13923624D02*
X11836286Y-13914100D01*
X11836286Y-13914100D02*
X11855333Y-13904576D01*
X11855333Y-13904576D02*
X11893429Y-13904576D01*
X11893429Y-13904576D02*
X11912476Y-13914100D01*
X11912476Y-13914100D02*
X11922000Y-13923624D01*
X11922000Y-13923624D02*
X11931524Y-13942671D01*
X11931524Y-13942671D02*
X11931524Y-13952195D01*
X11931524Y-13952195D02*
X11922000Y-13971243D01*
X11922000Y-13971243D02*
X11912476Y-13980767D01*
X11912476Y-13980767D02*
X11893429Y-13990290D01*
X11893429Y-13990290D02*
X11855333Y-13990290D01*
X11855333Y-13990290D02*
X11836286Y-13999814D01*
X11836286Y-13999814D02*
X11826762Y-14009338D01*
X11826762Y-14009338D02*
X11817238Y-14028386D01*
X11817238Y-14028386D02*
X11817238Y-14066481D01*
X11817238Y-14066481D02*
X11826762Y-14085528D01*
X11826762Y-14085528D02*
X11836286Y-14095052D01*
X11836286Y-14095052D02*
X11855333Y-14104576D01*
X11855333Y-14104576D02*
X11893429Y-14104576D01*
X11893429Y-14104576D02*
X11912476Y-14095052D01*
X11912476Y-14095052D02*
X11922000Y-14085528D01*
X11922000Y-14085528D02*
X11931524Y-14066481D01*
X11931524Y-14066481D02*
X11931524Y-14028386D01*
X11931524Y-14028386D02*
X11922000Y-14009338D01*
X11922000Y-14009338D02*
X11912476Y-13999814D01*
X11912476Y-13999814D02*
X11893429Y-13990290D01*
X12007714Y-13904576D02*
X12007714Y-13942671D01*
X12083905Y-13904576D02*
X12083905Y-13942671D01*
X12346762Y-14180767D02*
X12337238Y-14171243D01*
X12337238Y-14171243D02*
X12318191Y-14142671D01*
X12318191Y-14142671D02*
X12308667Y-14123624D01*
X12308667Y-14123624D02*
X12299143Y-14095052D01*
X12299143Y-14095052D02*
X12289619Y-14047433D01*
X12289619Y-14047433D02*
X12289619Y-14009338D01*
X12289619Y-14009338D02*
X12299143Y-13961719D01*
X12299143Y-13961719D02*
X12308667Y-13933148D01*
X12308667Y-13933148D02*
X12318191Y-13914100D01*
X12318191Y-13914100D02*
X12337238Y-13885528D01*
X12337238Y-13885528D02*
X12346762Y-13876005D01*
X12413429Y-13923624D02*
X12422952Y-13914100D01*
X12422952Y-13914100D02*
X12442000Y-13904576D01*
X12442000Y-13904576D02*
X12489619Y-13904576D01*
X12489619Y-13904576D02*
X12508667Y-13914100D01*
X12508667Y-13914100D02*
X12518191Y-13923624D01*
X12518191Y-13923624D02*
X12527714Y-13942671D01*
X12527714Y-13942671D02*
X12527714Y-13961719D01*
X12527714Y-13961719D02*
X12518191Y-13990290D01*
X12518191Y-13990290D02*
X12403905Y-14104576D01*
X12403905Y-14104576D02*
X12527714Y-14104576D01*
X12622952Y-14104576D02*
X12661048Y-14104576D01*
X12661048Y-14104576D02*
X12680095Y-14095052D01*
X12680095Y-14095052D02*
X12689619Y-14085528D01*
X12689619Y-14085528D02*
X12708667Y-14056957D01*
X12708667Y-14056957D02*
X12718191Y-14018862D01*
X12718191Y-14018862D02*
X12718191Y-13942671D01*
X12718191Y-13942671D02*
X12708667Y-13923624D01*
X12708667Y-13923624D02*
X12699143Y-13914100D01*
X12699143Y-13914100D02*
X12680095Y-13904576D01*
X12680095Y-13904576D02*
X12642000Y-13904576D01*
X12642000Y-13904576D02*
X12622952Y-13914100D01*
X12622952Y-13914100D02*
X12613429Y-13923624D01*
X12613429Y-13923624D02*
X12603905Y-13942671D01*
X12603905Y-13942671D02*
X12603905Y-13990290D01*
X12603905Y-13990290D02*
X12613429Y-14009338D01*
X12613429Y-14009338D02*
X12622952Y-14018862D01*
X12622952Y-14018862D02*
X12642000Y-14028386D01*
X12642000Y-14028386D02*
X12680095Y-14028386D01*
X12680095Y-14028386D02*
X12699143Y-14018862D01*
X12699143Y-14018862D02*
X12708667Y-14009338D01*
X12708667Y-14009338D02*
X12718191Y-13990290D01*
X12889619Y-13904576D02*
X12851524Y-13904576D01*
X12851524Y-13904576D02*
X12832476Y-13914100D01*
X12832476Y-13914100D02*
X12822952Y-13923624D01*
X12822952Y-13923624D02*
X12803905Y-13952195D01*
X12803905Y-13952195D02*
X12794381Y-13990290D01*
X12794381Y-13990290D02*
X12794381Y-14066481D01*
X12794381Y-14066481D02*
X12803905Y-14085528D01*
X12803905Y-14085528D02*
X12813429Y-14095052D01*
X12813429Y-14095052D02*
X12832476Y-14104576D01*
X12832476Y-14104576D02*
X12870572Y-14104576D01*
X12870572Y-14104576D02*
X12889619Y-14095052D01*
X12889619Y-14095052D02*
X12899143Y-14085528D01*
X12899143Y-14085528D02*
X12908667Y-14066481D01*
X12908667Y-14066481D02*
X12908667Y-14018862D01*
X12908667Y-14018862D02*
X12899143Y-13999814D01*
X12899143Y-13999814D02*
X12889619Y-13990290D01*
X12889619Y-13990290D02*
X12870572Y-13980767D01*
X12870572Y-13980767D02*
X12832476Y-13980767D01*
X12832476Y-13980767D02*
X12813429Y-13990290D01*
X12813429Y-13990290D02*
X12803905Y-13999814D01*
X12803905Y-13999814D02*
X12794381Y-14018862D01*
X13114381Y-14104576D02*
X13114381Y-13904576D01*
X13200095Y-14104576D02*
X13200095Y-13999814D01*
X13200095Y-13999814D02*
X13190572Y-13980767D01*
X13190572Y-13980767D02*
X13171524Y-13971243D01*
X13171524Y-13971243D02*
X13142952Y-13971243D01*
X13142952Y-13971243D02*
X13123905Y-13980767D01*
X13123905Y-13980767D02*
X13114381Y-13990290D01*
X13323905Y-14104576D02*
X13304857Y-14095052D01*
X13304857Y-14095052D02*
X13295333Y-14085528D01*
X13295333Y-14085528D02*
X13285810Y-14066481D01*
X13285810Y-14066481D02*
X13285810Y-14009338D01*
X13285810Y-14009338D02*
X13295333Y-13990290D01*
X13295333Y-13990290D02*
X13304857Y-13980767D01*
X13304857Y-13980767D02*
X13323905Y-13971243D01*
X13323905Y-13971243D02*
X13352476Y-13971243D01*
X13352476Y-13971243D02*
X13371524Y-13980767D01*
X13371524Y-13980767D02*
X13381048Y-13990290D01*
X13381048Y-13990290D02*
X13390572Y-14009338D01*
X13390572Y-14009338D02*
X13390572Y-14066481D01*
X13390572Y-14066481D02*
X13381048Y-14085528D01*
X13381048Y-14085528D02*
X13371524Y-14095052D01*
X13371524Y-14095052D02*
X13352476Y-14104576D01*
X13352476Y-14104576D02*
X13323905Y-14104576D01*
X13504857Y-14104576D02*
X13485810Y-14095052D01*
X13485810Y-14095052D02*
X13476286Y-14076005D01*
X13476286Y-14076005D02*
X13476286Y-13904576D01*
X13657238Y-14095052D02*
X13638191Y-14104576D01*
X13638191Y-14104576D02*
X13600095Y-14104576D01*
X13600095Y-14104576D02*
X13581048Y-14095052D01*
X13581048Y-14095052D02*
X13571524Y-14076005D01*
X13571524Y-14076005D02*
X13571524Y-13999814D01*
X13571524Y-13999814D02*
X13581048Y-13980767D01*
X13581048Y-13980767D02*
X13600095Y-13971243D01*
X13600095Y-13971243D02*
X13638191Y-13971243D01*
X13638191Y-13971243D02*
X13657238Y-13980767D01*
X13657238Y-13980767D02*
X13666762Y-13999814D01*
X13666762Y-13999814D02*
X13666762Y-14018862D01*
X13666762Y-14018862D02*
X13571524Y-14037909D01*
X13742953Y-14095052D02*
X13762000Y-14104576D01*
X13762000Y-14104576D02*
X13800095Y-14104576D01*
X13800095Y-14104576D02*
X13819143Y-14095052D01*
X13819143Y-14095052D02*
X13828667Y-14076005D01*
X13828667Y-14076005D02*
X13828667Y-14066481D01*
X13828667Y-14066481D02*
X13819143Y-14047433D01*
X13819143Y-14047433D02*
X13800095Y-14037909D01*
X13800095Y-14037909D02*
X13771524Y-14037909D01*
X13771524Y-14037909D02*
X13752476Y-14028386D01*
X13752476Y-14028386D02*
X13742953Y-14009338D01*
X13742953Y-14009338D02*
X13742953Y-13999814D01*
X13742953Y-13999814D02*
X13752476Y-13980767D01*
X13752476Y-13980767D02*
X13771524Y-13971243D01*
X13771524Y-13971243D02*
X13800095Y-13971243D01*
X13800095Y-13971243D02*
X13819143Y-13980767D01*
X13895334Y-14180767D02*
X13904857Y-14171243D01*
X13904857Y-14171243D02*
X13923905Y-14142671D01*
X13923905Y-14142671D02*
X13933429Y-14123624D01*
X13933429Y-14123624D02*
X13942953Y-14095052D01*
X13942953Y-14095052D02*
X13952476Y-14047433D01*
X13952476Y-14047433D02*
X13952476Y-14009338D01*
X13952476Y-14009338D02*
X13942953Y-13961719D01*
X13942953Y-13961719D02*
X13933429Y-13933148D01*
X13933429Y-13933148D02*
X13923905Y-13914100D01*
X13923905Y-13914100D02*
X13904857Y-13885528D01*
X13904857Y-13885528D02*
X13895334Y-13876005D01*
D14*
X8862000Y-14275100D02*
X8862000Y-14315100D01*
X8842000Y-14295100D02*
X8882000Y-14295100D01*
D11*
X9167714Y-14168576D02*
X9186762Y-14168576D01*
X9186762Y-14168576D02*
X9205810Y-14178100D01*
X9205810Y-14178100D02*
X9215333Y-14187624D01*
X9215333Y-14187624D02*
X9224857Y-14206671D01*
X9224857Y-14206671D02*
X9234381Y-14244767D01*
X9234381Y-14244767D02*
X9234381Y-14292386D01*
X9234381Y-14292386D02*
X9224857Y-14330481D01*
X9224857Y-14330481D02*
X9215333Y-14349528D01*
X9215333Y-14349528D02*
X9205810Y-14359052D01*
X9205810Y-14359052D02*
X9186762Y-14368576D01*
X9186762Y-14368576D02*
X9167714Y-14368576D01*
X9167714Y-14368576D02*
X9148667Y-14359052D01*
X9148667Y-14359052D02*
X9139143Y-14349528D01*
X9139143Y-14349528D02*
X9129619Y-14330481D01*
X9129619Y-14330481D02*
X9120095Y-14292386D01*
X9120095Y-14292386D02*
X9120095Y-14244767D01*
X9120095Y-14244767D02*
X9129619Y-14206671D01*
X9129619Y-14206671D02*
X9139143Y-14187624D01*
X9139143Y-14187624D02*
X9148667Y-14178100D01*
X9148667Y-14178100D02*
X9167714Y-14168576D01*
X9320095Y-14349528D02*
X9329619Y-14359052D01*
X9329619Y-14359052D02*
X9320095Y-14368576D01*
X9320095Y-14368576D02*
X9310571Y-14359052D01*
X9310571Y-14359052D02*
X9320095Y-14349528D01*
X9320095Y-14349528D02*
X9320095Y-14368576D01*
X9501048Y-14235243D02*
X9501048Y-14368576D01*
X9453429Y-14159052D02*
X9405810Y-14301909D01*
X9405810Y-14301909D02*
X9529619Y-14301909D01*
X9643905Y-14168576D02*
X9662952Y-14168576D01*
X9662952Y-14168576D02*
X9682000Y-14178100D01*
X9682000Y-14178100D02*
X9691524Y-14187624D01*
X9691524Y-14187624D02*
X9701048Y-14206671D01*
X9701048Y-14206671D02*
X9710571Y-14244767D01*
X9710571Y-14244767D02*
X9710571Y-14292386D01*
X9710571Y-14292386D02*
X9701048Y-14330481D01*
X9701048Y-14330481D02*
X9691524Y-14349528D01*
X9691524Y-14349528D02*
X9682000Y-14359052D01*
X9682000Y-14359052D02*
X9662952Y-14368576D01*
X9662952Y-14368576D02*
X9643905Y-14368576D01*
X9643905Y-14368576D02*
X9624857Y-14359052D01*
X9624857Y-14359052D02*
X9615333Y-14349528D01*
X9615333Y-14349528D02*
X9605810Y-14330481D01*
X9605810Y-14330481D02*
X9596286Y-14292386D01*
X9596286Y-14292386D02*
X9596286Y-14244767D01*
X9596286Y-14244767D02*
X9605810Y-14206671D01*
X9605810Y-14206671D02*
X9615333Y-14187624D01*
X9615333Y-14187624D02*
X9624857Y-14178100D01*
X9624857Y-14178100D02*
X9643905Y-14168576D01*
X9834381Y-14168576D02*
X9853429Y-14168576D01*
X9853429Y-14168576D02*
X9872476Y-14178100D01*
X9872476Y-14178100D02*
X9882000Y-14187624D01*
X9882000Y-14187624D02*
X9891524Y-14206671D01*
X9891524Y-14206671D02*
X9901048Y-14244767D01*
X9901048Y-14244767D02*
X9901048Y-14292386D01*
X9901048Y-14292386D02*
X9891524Y-14330481D01*
X9891524Y-14330481D02*
X9882000Y-14349528D01*
X9882000Y-14349528D02*
X9872476Y-14359052D01*
X9872476Y-14359052D02*
X9853429Y-14368576D01*
X9853429Y-14368576D02*
X9834381Y-14368576D01*
X9834381Y-14368576D02*
X9815333Y-14359052D01*
X9815333Y-14359052D02*
X9805810Y-14349528D01*
X9805810Y-14349528D02*
X9796286Y-14330481D01*
X9796286Y-14330481D02*
X9786762Y-14292386D01*
X9786762Y-14292386D02*
X9786762Y-14244767D01*
X9786762Y-14244767D02*
X9796286Y-14206671D01*
X9796286Y-14206671D02*
X9805810Y-14187624D01*
X9805810Y-14187624D02*
X9815333Y-14178100D01*
X9815333Y-14178100D02*
X9834381Y-14168576D01*
X9986762Y-14368576D02*
X9986762Y-14235243D01*
X9986762Y-14254290D02*
X9996286Y-14244767D01*
X9996286Y-14244767D02*
X10015333Y-14235243D01*
X10015333Y-14235243D02*
X10043905Y-14235243D01*
X10043905Y-14235243D02*
X10062952Y-14244767D01*
X10062952Y-14244767D02*
X10072476Y-14263814D01*
X10072476Y-14263814D02*
X10072476Y-14368576D01*
X10072476Y-14263814D02*
X10082000Y-14244767D01*
X10082000Y-14244767D02*
X10101048Y-14235243D01*
X10101048Y-14235243D02*
X10129619Y-14235243D01*
X10129619Y-14235243D02*
X10148667Y-14244767D01*
X10148667Y-14244767D02*
X10158191Y-14263814D01*
X10158191Y-14263814D02*
X10158191Y-14368576D01*
X10253429Y-14368576D02*
X10253429Y-14235243D01*
X10253429Y-14254290D02*
X10262952Y-14244767D01*
X10262952Y-14244767D02*
X10282000Y-14235243D01*
X10282000Y-14235243D02*
X10310572Y-14235243D01*
X10310572Y-14235243D02*
X10329619Y-14244767D01*
X10329619Y-14244767D02*
X10339143Y-14263814D01*
X10339143Y-14263814D02*
X10339143Y-14368576D01*
X10339143Y-14263814D02*
X10348667Y-14244767D01*
X10348667Y-14244767D02*
X10367714Y-14235243D01*
X10367714Y-14235243D02*
X10396286Y-14235243D01*
X10396286Y-14235243D02*
X10415333Y-14244767D01*
X10415333Y-14244767D02*
X10424857Y-14263814D01*
X10424857Y-14263814D02*
X10424857Y-14368576D01*
X10782952Y-14159052D02*
X10611524Y-14416195D01*
X11007714Y-14168576D02*
X11026762Y-14168576D01*
X11026762Y-14168576D02*
X11045810Y-14178100D01*
X11045810Y-14178100D02*
X11055333Y-14187624D01*
X11055333Y-14187624D02*
X11064857Y-14206671D01*
X11064857Y-14206671D02*
X11074381Y-14244767D01*
X11074381Y-14244767D02*
X11074381Y-14292386D01*
X11074381Y-14292386D02*
X11064857Y-14330481D01*
X11064857Y-14330481D02*
X11055333Y-14349528D01*
X11055333Y-14349528D02*
X11045810Y-14359052D01*
X11045810Y-14359052D02*
X11026762Y-14368576D01*
X11026762Y-14368576D02*
X11007714Y-14368576D01*
X11007714Y-14368576D02*
X10988667Y-14359052D01*
X10988667Y-14359052D02*
X10979143Y-14349528D01*
X10979143Y-14349528D02*
X10969619Y-14330481D01*
X10969619Y-14330481D02*
X10960095Y-14292386D01*
X10960095Y-14292386D02*
X10960095Y-14244767D01*
X10960095Y-14244767D02*
X10969619Y-14206671D01*
X10969619Y-14206671D02*
X10979143Y-14187624D01*
X10979143Y-14187624D02*
X10988667Y-14178100D01*
X10988667Y-14178100D02*
X11007714Y-14168576D01*
X11160095Y-14349528D02*
X11169619Y-14359052D01*
X11169619Y-14359052D02*
X11160095Y-14368576D01*
X11160095Y-14368576D02*
X11150572Y-14359052D01*
X11150572Y-14359052D02*
X11160095Y-14349528D01*
X11160095Y-14349528D02*
X11160095Y-14368576D01*
X11293429Y-14168576D02*
X11312476Y-14168576D01*
X11312476Y-14168576D02*
X11331524Y-14178100D01*
X11331524Y-14178100D02*
X11341048Y-14187624D01*
X11341048Y-14187624D02*
X11350571Y-14206671D01*
X11350571Y-14206671D02*
X11360095Y-14244767D01*
X11360095Y-14244767D02*
X11360095Y-14292386D01*
X11360095Y-14292386D02*
X11350571Y-14330481D01*
X11350571Y-14330481D02*
X11341048Y-14349528D01*
X11341048Y-14349528D02*
X11331524Y-14359052D01*
X11331524Y-14359052D02*
X11312476Y-14368576D01*
X11312476Y-14368576D02*
X11293429Y-14368576D01*
X11293429Y-14368576D02*
X11274381Y-14359052D01*
X11274381Y-14359052D02*
X11264857Y-14349528D01*
X11264857Y-14349528D02*
X11255333Y-14330481D01*
X11255333Y-14330481D02*
X11245810Y-14292386D01*
X11245810Y-14292386D02*
X11245810Y-14244767D01*
X11245810Y-14244767D02*
X11255333Y-14206671D01*
X11255333Y-14206671D02*
X11264857Y-14187624D01*
X11264857Y-14187624D02*
X11274381Y-14178100D01*
X11274381Y-14178100D02*
X11293429Y-14168576D01*
X11550571Y-14368576D02*
X11436286Y-14368576D01*
X11493429Y-14368576D02*
X11493429Y-14168576D01*
X11493429Y-14168576D02*
X11474381Y-14197148D01*
X11474381Y-14197148D02*
X11455333Y-14216195D01*
X11455333Y-14216195D02*
X11436286Y-14225719D01*
X11731524Y-14168576D02*
X11636286Y-14168576D01*
X11636286Y-14168576D02*
X11626762Y-14263814D01*
X11626762Y-14263814D02*
X11636286Y-14254290D01*
X11636286Y-14254290D02*
X11655333Y-14244767D01*
X11655333Y-14244767D02*
X11702952Y-14244767D01*
X11702952Y-14244767D02*
X11722000Y-14254290D01*
X11722000Y-14254290D02*
X11731524Y-14263814D01*
X11731524Y-14263814D02*
X11741048Y-14282862D01*
X11741048Y-14282862D02*
X11741048Y-14330481D01*
X11741048Y-14330481D02*
X11731524Y-14349528D01*
X11731524Y-14349528D02*
X11722000Y-14359052D01*
X11722000Y-14359052D02*
X11702952Y-14368576D01*
X11702952Y-14368576D02*
X11655333Y-14368576D01*
X11655333Y-14368576D02*
X11636286Y-14359052D01*
X11636286Y-14359052D02*
X11626762Y-14349528D01*
X11807714Y-14168576D02*
X11941048Y-14168576D01*
X11941048Y-14168576D02*
X11855333Y-14368576D01*
X12007714Y-14168576D02*
X12007714Y-14206671D01*
X12083905Y-14168576D02*
X12083905Y-14206671D01*
X12346762Y-14444767D02*
X12337238Y-14435243D01*
X12337238Y-14435243D02*
X12318191Y-14406671D01*
X12318191Y-14406671D02*
X12308667Y-14387624D01*
X12308667Y-14387624D02*
X12299143Y-14359052D01*
X12299143Y-14359052D02*
X12289619Y-14311433D01*
X12289619Y-14311433D02*
X12289619Y-14273338D01*
X12289619Y-14273338D02*
X12299143Y-14225719D01*
X12299143Y-14225719D02*
X12308667Y-14197148D01*
X12308667Y-14197148D02*
X12318191Y-14178100D01*
X12318191Y-14178100D02*
X12337238Y-14149528D01*
X12337238Y-14149528D02*
X12346762Y-14140005D01*
X12413429Y-14187624D02*
X12422952Y-14178100D01*
X12422952Y-14178100D02*
X12442000Y-14168576D01*
X12442000Y-14168576D02*
X12489619Y-14168576D01*
X12489619Y-14168576D02*
X12508667Y-14178100D01*
X12508667Y-14178100D02*
X12518191Y-14187624D01*
X12518191Y-14187624D02*
X12527714Y-14206671D01*
X12527714Y-14206671D02*
X12527714Y-14225719D01*
X12527714Y-14225719D02*
X12518191Y-14254290D01*
X12518191Y-14254290D02*
X12403905Y-14368576D01*
X12403905Y-14368576D02*
X12527714Y-14368576D01*
X12642000Y-14254290D02*
X12622952Y-14244767D01*
X12622952Y-14244767D02*
X12613429Y-14235243D01*
X12613429Y-14235243D02*
X12603905Y-14216195D01*
X12603905Y-14216195D02*
X12603905Y-14206671D01*
X12603905Y-14206671D02*
X12613429Y-14187624D01*
X12613429Y-14187624D02*
X12622952Y-14178100D01*
X12622952Y-14178100D02*
X12642000Y-14168576D01*
X12642000Y-14168576D02*
X12680095Y-14168576D01*
X12680095Y-14168576D02*
X12699143Y-14178100D01*
X12699143Y-14178100D02*
X12708667Y-14187624D01*
X12708667Y-14187624D02*
X12718191Y-14206671D01*
X12718191Y-14206671D02*
X12718191Y-14216195D01*
X12718191Y-14216195D02*
X12708667Y-14235243D01*
X12708667Y-14235243D02*
X12699143Y-14244767D01*
X12699143Y-14244767D02*
X12680095Y-14254290D01*
X12680095Y-14254290D02*
X12642000Y-14254290D01*
X12642000Y-14254290D02*
X12622952Y-14263814D01*
X12622952Y-14263814D02*
X12613429Y-14273338D01*
X12613429Y-14273338D02*
X12603905Y-14292386D01*
X12603905Y-14292386D02*
X12603905Y-14330481D01*
X12603905Y-14330481D02*
X12613429Y-14349528D01*
X12613429Y-14349528D02*
X12622952Y-14359052D01*
X12622952Y-14359052D02*
X12642000Y-14368576D01*
X12642000Y-14368576D02*
X12680095Y-14368576D01*
X12680095Y-14368576D02*
X12699143Y-14359052D01*
X12699143Y-14359052D02*
X12708667Y-14349528D01*
X12708667Y-14349528D02*
X12718191Y-14330481D01*
X12718191Y-14330481D02*
X12718191Y-14292386D01*
X12718191Y-14292386D02*
X12708667Y-14273338D01*
X12708667Y-14273338D02*
X12699143Y-14263814D01*
X12699143Y-14263814D02*
X12680095Y-14254290D01*
X12794381Y-14187624D02*
X12803905Y-14178100D01*
X12803905Y-14178100D02*
X12822952Y-14168576D01*
X12822952Y-14168576D02*
X12870572Y-14168576D01*
X12870572Y-14168576D02*
X12889619Y-14178100D01*
X12889619Y-14178100D02*
X12899143Y-14187624D01*
X12899143Y-14187624D02*
X12908667Y-14206671D01*
X12908667Y-14206671D02*
X12908667Y-14225719D01*
X12908667Y-14225719D02*
X12899143Y-14254290D01*
X12899143Y-14254290D02*
X12784857Y-14368576D01*
X12784857Y-14368576D02*
X12908667Y-14368576D01*
X13114381Y-14368576D02*
X13114381Y-14168576D01*
X13200095Y-14368576D02*
X13200095Y-14263814D01*
X13200095Y-14263814D02*
X13190572Y-14244767D01*
X13190572Y-14244767D02*
X13171524Y-14235243D01*
X13171524Y-14235243D02*
X13142952Y-14235243D01*
X13142952Y-14235243D02*
X13123905Y-14244767D01*
X13123905Y-14244767D02*
X13114381Y-14254290D01*
X13323905Y-14368576D02*
X13304857Y-14359052D01*
X13304857Y-14359052D02*
X13295333Y-14349528D01*
X13295333Y-14349528D02*
X13285810Y-14330481D01*
X13285810Y-14330481D02*
X13285810Y-14273338D01*
X13285810Y-14273338D02*
X13295333Y-14254290D01*
X13295333Y-14254290D02*
X13304857Y-14244767D01*
X13304857Y-14244767D02*
X13323905Y-14235243D01*
X13323905Y-14235243D02*
X13352476Y-14235243D01*
X13352476Y-14235243D02*
X13371524Y-14244767D01*
X13371524Y-14244767D02*
X13381048Y-14254290D01*
X13381048Y-14254290D02*
X13390572Y-14273338D01*
X13390572Y-14273338D02*
X13390572Y-14330481D01*
X13390572Y-14330481D02*
X13381048Y-14349528D01*
X13381048Y-14349528D02*
X13371524Y-14359052D01*
X13371524Y-14359052D02*
X13352476Y-14368576D01*
X13352476Y-14368576D02*
X13323905Y-14368576D01*
X13504857Y-14368576D02*
X13485810Y-14359052D01*
X13485810Y-14359052D02*
X13476286Y-14340005D01*
X13476286Y-14340005D02*
X13476286Y-14168576D01*
X13657238Y-14359052D02*
X13638191Y-14368576D01*
X13638191Y-14368576D02*
X13600095Y-14368576D01*
X13600095Y-14368576D02*
X13581048Y-14359052D01*
X13581048Y-14359052D02*
X13571524Y-14340005D01*
X13571524Y-14340005D02*
X13571524Y-14263814D01*
X13571524Y-14263814D02*
X13581048Y-14244767D01*
X13581048Y-14244767D02*
X13600095Y-14235243D01*
X13600095Y-14235243D02*
X13638191Y-14235243D01*
X13638191Y-14235243D02*
X13657238Y-14244767D01*
X13657238Y-14244767D02*
X13666762Y-14263814D01*
X13666762Y-14263814D02*
X13666762Y-14282862D01*
X13666762Y-14282862D02*
X13571524Y-14301909D01*
X13742953Y-14359052D02*
X13762000Y-14368576D01*
X13762000Y-14368576D02*
X13800095Y-14368576D01*
X13800095Y-14368576D02*
X13819143Y-14359052D01*
X13819143Y-14359052D02*
X13828667Y-14340005D01*
X13828667Y-14340005D02*
X13828667Y-14330481D01*
X13828667Y-14330481D02*
X13819143Y-14311433D01*
X13819143Y-14311433D02*
X13800095Y-14301909D01*
X13800095Y-14301909D02*
X13771524Y-14301909D01*
X13771524Y-14301909D02*
X13752476Y-14292386D01*
X13752476Y-14292386D02*
X13742953Y-14273338D01*
X13742953Y-14273338D02*
X13742953Y-14263814D01*
X13742953Y-14263814D02*
X13752476Y-14244767D01*
X13752476Y-14244767D02*
X13771524Y-14235243D01*
X13771524Y-14235243D02*
X13800095Y-14235243D01*
X13800095Y-14235243D02*
X13819143Y-14244767D01*
X13895334Y-14444767D02*
X13904857Y-14435243D01*
X13904857Y-14435243D02*
X13923905Y-14406671D01*
X13923905Y-14406671D02*
X13933429Y-14387624D01*
X13933429Y-14387624D02*
X13942953Y-14359052D01*
X13942953Y-14359052D02*
X13952476Y-14311433D01*
X13952476Y-14311433D02*
X13952476Y-14273338D01*
X13952476Y-14273338D02*
X13942953Y-14225719D01*
X13942953Y-14225719D02*
X13933429Y-14197148D01*
X13933429Y-14197148D02*
X13923905Y-14178100D01*
X13923905Y-14178100D02*
X13904857Y-14149528D01*
X13904857Y-14149528D02*
X13895334Y-14140005D01*
D15*
X8873213Y-14580313D02*
X8873213Y-14537887D01*
X8830787Y-14537887D01*
X8830787Y-14580313D01*
X8873213Y-14580313D01*
D11*
X9167714Y-14432576D02*
X9186762Y-14432576D01*
X9186762Y-14432576D02*
X9205810Y-14442100D01*
X9205810Y-14442100D02*
X9215333Y-14451624D01*
X9215333Y-14451624D02*
X9224857Y-14470671D01*
X9224857Y-14470671D02*
X9234381Y-14508767D01*
X9234381Y-14508767D02*
X9234381Y-14556386D01*
X9234381Y-14556386D02*
X9224857Y-14594481D01*
X9224857Y-14594481D02*
X9215333Y-14613528D01*
X9215333Y-14613528D02*
X9205810Y-14623052D01*
X9205810Y-14623052D02*
X9186762Y-14632576D01*
X9186762Y-14632576D02*
X9167714Y-14632576D01*
X9167714Y-14632576D02*
X9148667Y-14623052D01*
X9148667Y-14623052D02*
X9139143Y-14613528D01*
X9139143Y-14613528D02*
X9129619Y-14594481D01*
X9129619Y-14594481D02*
X9120095Y-14556386D01*
X9120095Y-14556386D02*
X9120095Y-14508767D01*
X9120095Y-14508767D02*
X9129619Y-14470671D01*
X9129619Y-14470671D02*
X9139143Y-14451624D01*
X9139143Y-14451624D02*
X9148667Y-14442100D01*
X9148667Y-14442100D02*
X9167714Y-14432576D01*
X9320095Y-14613528D02*
X9329619Y-14623052D01*
X9329619Y-14623052D02*
X9320095Y-14632576D01*
X9320095Y-14632576D02*
X9310571Y-14623052D01*
X9310571Y-14623052D02*
X9320095Y-14613528D01*
X9320095Y-14613528D02*
X9320095Y-14632576D01*
X9501048Y-14432576D02*
X9462952Y-14432576D01*
X9462952Y-14432576D02*
X9443905Y-14442100D01*
X9443905Y-14442100D02*
X9434381Y-14451624D01*
X9434381Y-14451624D02*
X9415333Y-14480195D01*
X9415333Y-14480195D02*
X9405810Y-14518290D01*
X9405810Y-14518290D02*
X9405810Y-14594481D01*
X9405810Y-14594481D02*
X9415333Y-14613528D01*
X9415333Y-14613528D02*
X9424857Y-14623052D01*
X9424857Y-14623052D02*
X9443905Y-14632576D01*
X9443905Y-14632576D02*
X9482000Y-14632576D01*
X9482000Y-14632576D02*
X9501048Y-14623052D01*
X9501048Y-14623052D02*
X9510571Y-14613528D01*
X9510571Y-14613528D02*
X9520095Y-14594481D01*
X9520095Y-14594481D02*
X9520095Y-14546862D01*
X9520095Y-14546862D02*
X9510571Y-14527814D01*
X9510571Y-14527814D02*
X9501048Y-14518290D01*
X9501048Y-14518290D02*
X9482000Y-14508767D01*
X9482000Y-14508767D02*
X9443905Y-14508767D01*
X9443905Y-14508767D02*
X9424857Y-14518290D01*
X9424857Y-14518290D02*
X9415333Y-14527814D01*
X9415333Y-14527814D02*
X9405810Y-14546862D01*
X9643905Y-14432576D02*
X9662952Y-14432576D01*
X9662952Y-14432576D02*
X9682000Y-14442100D01*
X9682000Y-14442100D02*
X9691524Y-14451624D01*
X9691524Y-14451624D02*
X9701048Y-14470671D01*
X9701048Y-14470671D02*
X9710571Y-14508767D01*
X9710571Y-14508767D02*
X9710571Y-14556386D01*
X9710571Y-14556386D02*
X9701048Y-14594481D01*
X9701048Y-14594481D02*
X9691524Y-14613528D01*
X9691524Y-14613528D02*
X9682000Y-14623052D01*
X9682000Y-14623052D02*
X9662952Y-14632576D01*
X9662952Y-14632576D02*
X9643905Y-14632576D01*
X9643905Y-14632576D02*
X9624857Y-14623052D01*
X9624857Y-14623052D02*
X9615333Y-14613528D01*
X9615333Y-14613528D02*
X9605810Y-14594481D01*
X9605810Y-14594481D02*
X9596286Y-14556386D01*
X9596286Y-14556386D02*
X9596286Y-14508767D01*
X9596286Y-14508767D02*
X9605810Y-14470671D01*
X9605810Y-14470671D02*
X9615333Y-14451624D01*
X9615333Y-14451624D02*
X9624857Y-14442100D01*
X9624857Y-14442100D02*
X9643905Y-14432576D01*
X9834381Y-14432576D02*
X9853429Y-14432576D01*
X9853429Y-14432576D02*
X9872476Y-14442100D01*
X9872476Y-14442100D02*
X9882000Y-14451624D01*
X9882000Y-14451624D02*
X9891524Y-14470671D01*
X9891524Y-14470671D02*
X9901048Y-14508767D01*
X9901048Y-14508767D02*
X9901048Y-14556386D01*
X9901048Y-14556386D02*
X9891524Y-14594481D01*
X9891524Y-14594481D02*
X9882000Y-14613528D01*
X9882000Y-14613528D02*
X9872476Y-14623052D01*
X9872476Y-14623052D02*
X9853429Y-14632576D01*
X9853429Y-14632576D02*
X9834381Y-14632576D01*
X9834381Y-14632576D02*
X9815333Y-14623052D01*
X9815333Y-14623052D02*
X9805810Y-14613528D01*
X9805810Y-14613528D02*
X9796286Y-14594481D01*
X9796286Y-14594481D02*
X9786762Y-14556386D01*
X9786762Y-14556386D02*
X9786762Y-14508767D01*
X9786762Y-14508767D02*
X9796286Y-14470671D01*
X9796286Y-14470671D02*
X9805810Y-14451624D01*
X9805810Y-14451624D02*
X9815333Y-14442100D01*
X9815333Y-14442100D02*
X9834381Y-14432576D01*
X9986762Y-14632576D02*
X9986762Y-14499243D01*
X9986762Y-14518290D02*
X9996286Y-14508767D01*
X9996286Y-14508767D02*
X10015333Y-14499243D01*
X10015333Y-14499243D02*
X10043905Y-14499243D01*
X10043905Y-14499243D02*
X10062952Y-14508767D01*
X10062952Y-14508767D02*
X10072476Y-14527814D01*
X10072476Y-14527814D02*
X10072476Y-14632576D01*
X10072476Y-14527814D02*
X10082000Y-14508767D01*
X10082000Y-14508767D02*
X10101048Y-14499243D01*
X10101048Y-14499243D02*
X10129619Y-14499243D01*
X10129619Y-14499243D02*
X10148667Y-14508767D01*
X10148667Y-14508767D02*
X10158191Y-14527814D01*
X10158191Y-14527814D02*
X10158191Y-14632576D01*
X10253429Y-14632576D02*
X10253429Y-14499243D01*
X10253429Y-14518290D02*
X10262952Y-14508767D01*
X10262952Y-14508767D02*
X10282000Y-14499243D01*
X10282000Y-14499243D02*
X10310572Y-14499243D01*
X10310572Y-14499243D02*
X10329619Y-14508767D01*
X10329619Y-14508767D02*
X10339143Y-14527814D01*
X10339143Y-14527814D02*
X10339143Y-14632576D01*
X10339143Y-14527814D02*
X10348667Y-14508767D01*
X10348667Y-14508767D02*
X10367714Y-14499243D01*
X10367714Y-14499243D02*
X10396286Y-14499243D01*
X10396286Y-14499243D02*
X10415333Y-14508767D01*
X10415333Y-14508767D02*
X10424857Y-14527814D01*
X10424857Y-14527814D02*
X10424857Y-14632576D01*
X10782952Y-14423052D02*
X10611524Y-14680195D01*
X11007714Y-14432576D02*
X11026762Y-14432576D01*
X11026762Y-14432576D02*
X11045810Y-14442100D01*
X11045810Y-14442100D02*
X11055333Y-14451624D01*
X11055333Y-14451624D02*
X11064857Y-14470671D01*
X11064857Y-14470671D02*
X11074381Y-14508767D01*
X11074381Y-14508767D02*
X11074381Y-14556386D01*
X11074381Y-14556386D02*
X11064857Y-14594481D01*
X11064857Y-14594481D02*
X11055333Y-14613528D01*
X11055333Y-14613528D02*
X11045810Y-14623052D01*
X11045810Y-14623052D02*
X11026762Y-14632576D01*
X11026762Y-14632576D02*
X11007714Y-14632576D01*
X11007714Y-14632576D02*
X10988667Y-14623052D01*
X10988667Y-14623052D02*
X10979143Y-14613528D01*
X10979143Y-14613528D02*
X10969619Y-14594481D01*
X10969619Y-14594481D02*
X10960095Y-14556386D01*
X10960095Y-14556386D02*
X10960095Y-14508767D01*
X10960095Y-14508767D02*
X10969619Y-14470671D01*
X10969619Y-14470671D02*
X10979143Y-14451624D01*
X10979143Y-14451624D02*
X10988667Y-14442100D01*
X10988667Y-14442100D02*
X11007714Y-14432576D01*
X11160095Y-14613528D02*
X11169619Y-14623052D01*
X11169619Y-14623052D02*
X11160095Y-14632576D01*
X11160095Y-14632576D02*
X11150572Y-14623052D01*
X11150572Y-14623052D02*
X11160095Y-14613528D01*
X11160095Y-14613528D02*
X11160095Y-14632576D01*
X11293429Y-14432576D02*
X11312476Y-14432576D01*
X11312476Y-14432576D02*
X11331524Y-14442100D01*
X11331524Y-14442100D02*
X11341048Y-14451624D01*
X11341048Y-14451624D02*
X11350571Y-14470671D01*
X11350571Y-14470671D02*
X11360095Y-14508767D01*
X11360095Y-14508767D02*
X11360095Y-14556386D01*
X11360095Y-14556386D02*
X11350571Y-14594481D01*
X11350571Y-14594481D02*
X11341048Y-14613528D01*
X11341048Y-14613528D02*
X11331524Y-14623052D01*
X11331524Y-14623052D02*
X11312476Y-14632576D01*
X11312476Y-14632576D02*
X11293429Y-14632576D01*
X11293429Y-14632576D02*
X11274381Y-14623052D01*
X11274381Y-14623052D02*
X11264857Y-14613528D01*
X11264857Y-14613528D02*
X11255333Y-14594481D01*
X11255333Y-14594481D02*
X11245810Y-14556386D01*
X11245810Y-14556386D02*
X11245810Y-14508767D01*
X11245810Y-14508767D02*
X11255333Y-14470671D01*
X11255333Y-14470671D02*
X11264857Y-14451624D01*
X11264857Y-14451624D02*
X11274381Y-14442100D01*
X11274381Y-14442100D02*
X11293429Y-14432576D01*
X11436286Y-14451624D02*
X11445810Y-14442100D01*
X11445810Y-14442100D02*
X11464857Y-14432576D01*
X11464857Y-14432576D02*
X11512476Y-14432576D01*
X11512476Y-14432576D02*
X11531524Y-14442100D01*
X11531524Y-14442100D02*
X11541048Y-14451624D01*
X11541048Y-14451624D02*
X11550571Y-14470671D01*
X11550571Y-14470671D02*
X11550571Y-14489719D01*
X11550571Y-14489719D02*
X11541048Y-14518290D01*
X11541048Y-14518290D02*
X11426762Y-14632576D01*
X11426762Y-14632576D02*
X11550571Y-14632576D01*
X11617238Y-14432576D02*
X11741048Y-14432576D01*
X11741048Y-14432576D02*
X11674381Y-14508767D01*
X11674381Y-14508767D02*
X11702952Y-14508767D01*
X11702952Y-14508767D02*
X11722000Y-14518290D01*
X11722000Y-14518290D02*
X11731524Y-14527814D01*
X11731524Y-14527814D02*
X11741048Y-14546862D01*
X11741048Y-14546862D02*
X11741048Y-14594481D01*
X11741048Y-14594481D02*
X11731524Y-14613528D01*
X11731524Y-14613528D02*
X11722000Y-14623052D01*
X11722000Y-14623052D02*
X11702952Y-14632576D01*
X11702952Y-14632576D02*
X11645810Y-14632576D01*
X11645810Y-14632576D02*
X11626762Y-14623052D01*
X11626762Y-14623052D02*
X11617238Y-14613528D01*
X11912476Y-14432576D02*
X11874381Y-14432576D01*
X11874381Y-14432576D02*
X11855333Y-14442100D01*
X11855333Y-14442100D02*
X11845810Y-14451624D01*
X11845810Y-14451624D02*
X11826762Y-14480195D01*
X11826762Y-14480195D02*
X11817238Y-14518290D01*
X11817238Y-14518290D02*
X11817238Y-14594481D01*
X11817238Y-14594481D02*
X11826762Y-14613528D01*
X11826762Y-14613528D02*
X11836286Y-14623052D01*
X11836286Y-14623052D02*
X11855333Y-14632576D01*
X11855333Y-14632576D02*
X11893429Y-14632576D01*
X11893429Y-14632576D02*
X11912476Y-14623052D01*
X11912476Y-14623052D02*
X11922000Y-14613528D01*
X11922000Y-14613528D02*
X11931524Y-14594481D01*
X11931524Y-14594481D02*
X11931524Y-14546862D01*
X11931524Y-14546862D02*
X11922000Y-14527814D01*
X11922000Y-14527814D02*
X11912476Y-14518290D01*
X11912476Y-14518290D02*
X11893429Y-14508767D01*
X11893429Y-14508767D02*
X11855333Y-14508767D01*
X11855333Y-14508767D02*
X11836286Y-14518290D01*
X11836286Y-14518290D02*
X11826762Y-14527814D01*
X11826762Y-14527814D02*
X11817238Y-14546862D01*
X12007714Y-14432576D02*
X12007714Y-14470671D01*
X12083905Y-14432576D02*
X12083905Y-14470671D01*
X12346762Y-14708767D02*
X12337238Y-14699243D01*
X12337238Y-14699243D02*
X12318191Y-14670671D01*
X12318191Y-14670671D02*
X12308667Y-14651624D01*
X12308667Y-14651624D02*
X12299143Y-14623052D01*
X12299143Y-14623052D02*
X12289619Y-14575433D01*
X12289619Y-14575433D02*
X12289619Y-14537338D01*
X12289619Y-14537338D02*
X12299143Y-14489719D01*
X12299143Y-14489719D02*
X12308667Y-14461148D01*
X12308667Y-14461148D02*
X12318191Y-14442100D01*
X12318191Y-14442100D02*
X12337238Y-14413528D01*
X12337238Y-14413528D02*
X12346762Y-14404005D01*
X12461048Y-14432576D02*
X12480095Y-14432576D01*
X12480095Y-14432576D02*
X12499143Y-14442100D01*
X12499143Y-14442100D02*
X12508667Y-14451624D01*
X12508667Y-14451624D02*
X12518191Y-14470671D01*
X12518191Y-14470671D02*
X12527714Y-14508767D01*
X12527714Y-14508767D02*
X12527714Y-14556386D01*
X12527714Y-14556386D02*
X12518191Y-14594481D01*
X12518191Y-14594481D02*
X12508667Y-14613528D01*
X12508667Y-14613528D02*
X12499143Y-14623052D01*
X12499143Y-14623052D02*
X12480095Y-14632576D01*
X12480095Y-14632576D02*
X12461048Y-14632576D01*
X12461048Y-14632576D02*
X12442000Y-14623052D01*
X12442000Y-14623052D02*
X12432476Y-14613528D01*
X12432476Y-14613528D02*
X12422952Y-14594481D01*
X12422952Y-14594481D02*
X12413429Y-14556386D01*
X12413429Y-14556386D02*
X12413429Y-14508767D01*
X12413429Y-14508767D02*
X12422952Y-14470671D01*
X12422952Y-14470671D02*
X12432476Y-14451624D01*
X12432476Y-14451624D02*
X12442000Y-14442100D01*
X12442000Y-14442100D02*
X12461048Y-14432576D01*
X12733429Y-14632576D02*
X12733429Y-14432576D01*
X12819143Y-14632576D02*
X12819143Y-14527814D01*
X12819143Y-14527814D02*
X12809619Y-14508767D01*
X12809619Y-14508767D02*
X12790572Y-14499243D01*
X12790572Y-14499243D02*
X12762000Y-14499243D01*
X12762000Y-14499243D02*
X12742952Y-14508767D01*
X12742952Y-14508767D02*
X12733429Y-14518290D01*
X12942952Y-14632576D02*
X12923905Y-14623052D01*
X12923905Y-14623052D02*
X12914381Y-14613528D01*
X12914381Y-14613528D02*
X12904857Y-14594481D01*
X12904857Y-14594481D02*
X12904857Y-14537338D01*
X12904857Y-14537338D02*
X12914381Y-14518290D01*
X12914381Y-14518290D02*
X12923905Y-14508767D01*
X12923905Y-14508767D02*
X12942952Y-14499243D01*
X12942952Y-14499243D02*
X12971524Y-14499243D01*
X12971524Y-14499243D02*
X12990572Y-14508767D01*
X12990572Y-14508767D02*
X13000095Y-14518290D01*
X13000095Y-14518290D02*
X13009619Y-14537338D01*
X13009619Y-14537338D02*
X13009619Y-14594481D01*
X13009619Y-14594481D02*
X13000095Y-14613528D01*
X13000095Y-14613528D02*
X12990572Y-14623052D01*
X12990572Y-14623052D02*
X12971524Y-14632576D01*
X12971524Y-14632576D02*
X12942952Y-14632576D01*
X13123905Y-14632576D02*
X13104857Y-14623052D01*
X13104857Y-14623052D02*
X13095333Y-14604005D01*
X13095333Y-14604005D02*
X13095333Y-14432576D01*
X13276286Y-14623052D02*
X13257238Y-14632576D01*
X13257238Y-14632576D02*
X13219143Y-14632576D01*
X13219143Y-14632576D02*
X13200095Y-14623052D01*
X13200095Y-14623052D02*
X13190572Y-14604005D01*
X13190572Y-14604005D02*
X13190572Y-14527814D01*
X13190572Y-14527814D02*
X13200095Y-14508767D01*
X13200095Y-14508767D02*
X13219143Y-14499243D01*
X13219143Y-14499243D02*
X13257238Y-14499243D01*
X13257238Y-14499243D02*
X13276286Y-14508767D01*
X13276286Y-14508767D02*
X13285810Y-14527814D01*
X13285810Y-14527814D02*
X13285810Y-14546862D01*
X13285810Y-14546862D02*
X13190572Y-14565909D01*
X13362000Y-14623052D02*
X13381048Y-14632576D01*
X13381048Y-14632576D02*
X13419143Y-14632576D01*
X13419143Y-14632576D02*
X13438191Y-14623052D01*
X13438191Y-14623052D02*
X13447714Y-14604005D01*
X13447714Y-14604005D02*
X13447714Y-14594481D01*
X13447714Y-14594481D02*
X13438191Y-14575433D01*
X13438191Y-14575433D02*
X13419143Y-14565909D01*
X13419143Y-14565909D02*
X13390572Y-14565909D01*
X13390572Y-14565909D02*
X13371524Y-14556386D01*
X13371524Y-14556386D02*
X13362000Y-14537338D01*
X13362000Y-14537338D02*
X13362000Y-14527814D01*
X13362000Y-14527814D02*
X13371524Y-14508767D01*
X13371524Y-14508767D02*
X13390572Y-14499243D01*
X13390572Y-14499243D02*
X13419143Y-14499243D01*
X13419143Y-14499243D02*
X13438191Y-14508767D01*
X13653429Y-14556386D02*
X13805810Y-14556386D01*
X13729619Y-14632576D02*
X13729619Y-14480195D01*
X14106762Y-14499243D02*
X14106762Y-14632576D01*
X14059143Y-14423052D02*
X14011524Y-14565909D01*
X14011524Y-14565909D02*
X14135333Y-14565909D01*
X14322000Y-14623052D02*
X14341048Y-14632576D01*
X14341048Y-14632576D02*
X14379143Y-14632576D01*
X14379143Y-14632576D02*
X14398191Y-14623052D01*
X14398191Y-14623052D02*
X14407714Y-14604005D01*
X14407714Y-14604005D02*
X14407714Y-14594481D01*
X14407714Y-14594481D02*
X14398191Y-14575433D01*
X14398191Y-14575433D02*
X14379143Y-14565909D01*
X14379143Y-14565909D02*
X14350572Y-14565909D01*
X14350572Y-14565909D02*
X14331524Y-14556386D01*
X14331524Y-14556386D02*
X14322000Y-14537338D01*
X14322000Y-14537338D02*
X14322000Y-14527814D01*
X14322000Y-14527814D02*
X14331524Y-14508767D01*
X14331524Y-14508767D02*
X14350572Y-14499243D01*
X14350572Y-14499243D02*
X14379143Y-14499243D01*
X14379143Y-14499243D02*
X14398191Y-14508767D01*
X14522000Y-14632576D02*
X14502953Y-14623052D01*
X14502953Y-14623052D02*
X14493429Y-14604005D01*
X14493429Y-14604005D02*
X14493429Y-14432576D01*
X14626762Y-14632576D02*
X14607714Y-14623052D01*
X14607714Y-14623052D02*
X14598191Y-14613528D01*
X14598191Y-14613528D02*
X14588667Y-14594481D01*
X14588667Y-14594481D02*
X14588667Y-14537338D01*
X14588667Y-14537338D02*
X14598191Y-14518290D01*
X14598191Y-14518290D02*
X14607714Y-14508767D01*
X14607714Y-14508767D02*
X14626762Y-14499243D01*
X14626762Y-14499243D02*
X14655334Y-14499243D01*
X14655334Y-14499243D02*
X14674381Y-14508767D01*
X14674381Y-14508767D02*
X14683905Y-14518290D01*
X14683905Y-14518290D02*
X14693429Y-14537338D01*
X14693429Y-14537338D02*
X14693429Y-14594481D01*
X14693429Y-14594481D02*
X14683905Y-14613528D01*
X14683905Y-14613528D02*
X14674381Y-14623052D01*
X14674381Y-14623052D02*
X14655334Y-14632576D01*
X14655334Y-14632576D02*
X14626762Y-14632576D01*
X14750572Y-14499243D02*
X14826762Y-14499243D01*
X14779143Y-14432576D02*
X14779143Y-14604005D01*
X14779143Y-14604005D02*
X14788667Y-14623052D01*
X14788667Y-14623052D02*
X14807714Y-14632576D01*
X14807714Y-14632576D02*
X14826762Y-14632576D01*
X14883905Y-14623052D02*
X14902953Y-14632576D01*
X14902953Y-14632576D02*
X14941048Y-14632576D01*
X14941048Y-14632576D02*
X14960095Y-14623052D01*
X14960095Y-14623052D02*
X14969619Y-14604005D01*
X14969619Y-14604005D02*
X14969619Y-14594481D01*
X14969619Y-14594481D02*
X14960095Y-14575433D01*
X14960095Y-14575433D02*
X14941048Y-14565909D01*
X14941048Y-14565909D02*
X14912476Y-14565909D01*
X14912476Y-14565909D02*
X14893429Y-14556386D01*
X14893429Y-14556386D02*
X14883905Y-14537338D01*
X14883905Y-14537338D02*
X14883905Y-14527814D01*
X14883905Y-14527814D02*
X14893429Y-14508767D01*
X14893429Y-14508767D02*
X14912476Y-14499243D01*
X14912476Y-14499243D02*
X14941048Y-14499243D01*
X14941048Y-14499243D02*
X14960095Y-14508767D01*
X15036286Y-14708767D02*
X15045810Y-14699243D01*
X15045810Y-14699243D02*
X15064857Y-14670671D01*
X15064857Y-14670671D02*
X15074381Y-14651624D01*
X15074381Y-14651624D02*
X15083905Y-14623052D01*
X15083905Y-14623052D02*
X15093429Y-14575433D01*
X15093429Y-14575433D02*
X15093429Y-14537338D01*
X15093429Y-14537338D02*
X15083905Y-14489719D01*
X15083905Y-14489719D02*
X15074381Y-14461148D01*
X15074381Y-14461148D02*
X15064857Y-14442100D01*
X15064857Y-14442100D02*
X15045810Y-14413528D01*
X15045810Y-14413528D02*
X15036286Y-14404005D01*
D16*
X8843900Y-14861200D02*
X8882000Y-14823100D01*
X8843900Y-14785000D01*
X8805800Y-14823100D01*
X8843900Y-14861200D01*
D11*
X9167714Y-14696576D02*
X9186762Y-14696576D01*
X9186762Y-14696576D02*
X9205810Y-14706100D01*
X9205810Y-14706100D02*
X9215333Y-14715624D01*
X9215333Y-14715624D02*
X9224857Y-14734671D01*
X9224857Y-14734671D02*
X9234381Y-14772767D01*
X9234381Y-14772767D02*
X9234381Y-14820386D01*
X9234381Y-14820386D02*
X9224857Y-14858481D01*
X9224857Y-14858481D02*
X9215333Y-14877528D01*
X9215333Y-14877528D02*
X9205810Y-14887052D01*
X9205810Y-14887052D02*
X9186762Y-14896576D01*
X9186762Y-14896576D02*
X9167714Y-14896576D01*
X9167714Y-14896576D02*
X9148667Y-14887052D01*
X9148667Y-14887052D02*
X9139143Y-14877528D01*
X9139143Y-14877528D02*
X9129619Y-14858481D01*
X9129619Y-14858481D02*
X9120095Y-14820386D01*
X9120095Y-14820386D02*
X9120095Y-14772767D01*
X9120095Y-14772767D02*
X9129619Y-14734671D01*
X9129619Y-14734671D02*
X9139143Y-14715624D01*
X9139143Y-14715624D02*
X9148667Y-14706100D01*
X9148667Y-14706100D02*
X9167714Y-14696576D01*
X9320095Y-14877528D02*
X9329619Y-14887052D01*
X9329619Y-14887052D02*
X9320095Y-14896576D01*
X9320095Y-14896576D02*
X9310571Y-14887052D01*
X9310571Y-14887052D02*
X9320095Y-14877528D01*
X9320095Y-14877528D02*
X9320095Y-14896576D01*
X9396286Y-14696576D02*
X9529619Y-14696576D01*
X9529619Y-14696576D02*
X9443905Y-14896576D01*
X9691524Y-14696576D02*
X9653429Y-14696576D01*
X9653429Y-14696576D02*
X9634381Y-14706100D01*
X9634381Y-14706100D02*
X9624857Y-14715624D01*
X9624857Y-14715624D02*
X9605810Y-14744195D01*
X9605810Y-14744195D02*
X9596286Y-14782290D01*
X9596286Y-14782290D02*
X9596286Y-14858481D01*
X9596286Y-14858481D02*
X9605810Y-14877528D01*
X9605810Y-14877528D02*
X9615333Y-14887052D01*
X9615333Y-14887052D02*
X9634381Y-14896576D01*
X9634381Y-14896576D02*
X9672476Y-14896576D01*
X9672476Y-14896576D02*
X9691524Y-14887052D01*
X9691524Y-14887052D02*
X9701048Y-14877528D01*
X9701048Y-14877528D02*
X9710571Y-14858481D01*
X9710571Y-14858481D02*
X9710571Y-14810862D01*
X9710571Y-14810862D02*
X9701048Y-14791814D01*
X9701048Y-14791814D02*
X9691524Y-14782290D01*
X9691524Y-14782290D02*
X9672476Y-14772767D01*
X9672476Y-14772767D02*
X9634381Y-14772767D01*
X9634381Y-14772767D02*
X9615333Y-14782290D01*
X9615333Y-14782290D02*
X9605810Y-14791814D01*
X9605810Y-14791814D02*
X9596286Y-14810862D01*
X9786762Y-14715624D02*
X9796286Y-14706100D01*
X9796286Y-14706100D02*
X9815333Y-14696576D01*
X9815333Y-14696576D02*
X9862952Y-14696576D01*
X9862952Y-14696576D02*
X9882000Y-14706100D01*
X9882000Y-14706100D02*
X9891524Y-14715624D01*
X9891524Y-14715624D02*
X9901048Y-14734671D01*
X9901048Y-14734671D02*
X9901048Y-14753719D01*
X9901048Y-14753719D02*
X9891524Y-14782290D01*
X9891524Y-14782290D02*
X9777238Y-14896576D01*
X9777238Y-14896576D02*
X9901048Y-14896576D01*
X9986762Y-14896576D02*
X9986762Y-14763243D01*
X9986762Y-14782290D02*
X9996286Y-14772767D01*
X9996286Y-14772767D02*
X10015333Y-14763243D01*
X10015333Y-14763243D02*
X10043905Y-14763243D01*
X10043905Y-14763243D02*
X10062952Y-14772767D01*
X10062952Y-14772767D02*
X10072476Y-14791814D01*
X10072476Y-14791814D02*
X10072476Y-14896576D01*
X10072476Y-14791814D02*
X10082000Y-14772767D01*
X10082000Y-14772767D02*
X10101048Y-14763243D01*
X10101048Y-14763243D02*
X10129619Y-14763243D01*
X10129619Y-14763243D02*
X10148667Y-14772767D01*
X10148667Y-14772767D02*
X10158191Y-14791814D01*
X10158191Y-14791814D02*
X10158191Y-14896576D01*
X10253429Y-14896576D02*
X10253429Y-14763243D01*
X10253429Y-14782290D02*
X10262952Y-14772767D01*
X10262952Y-14772767D02*
X10282000Y-14763243D01*
X10282000Y-14763243D02*
X10310572Y-14763243D01*
X10310572Y-14763243D02*
X10329619Y-14772767D01*
X10329619Y-14772767D02*
X10339143Y-14791814D01*
X10339143Y-14791814D02*
X10339143Y-14896576D01*
X10339143Y-14791814D02*
X10348667Y-14772767D01*
X10348667Y-14772767D02*
X10367714Y-14763243D01*
X10367714Y-14763243D02*
X10396286Y-14763243D01*
X10396286Y-14763243D02*
X10415333Y-14772767D01*
X10415333Y-14772767D02*
X10424857Y-14791814D01*
X10424857Y-14791814D02*
X10424857Y-14896576D01*
X10782952Y-14687052D02*
X10611524Y-14944195D01*
X11007714Y-14696576D02*
X11026762Y-14696576D01*
X11026762Y-14696576D02*
X11045810Y-14706100D01*
X11045810Y-14706100D02*
X11055333Y-14715624D01*
X11055333Y-14715624D02*
X11064857Y-14734671D01*
X11064857Y-14734671D02*
X11074381Y-14772767D01*
X11074381Y-14772767D02*
X11074381Y-14820386D01*
X11074381Y-14820386D02*
X11064857Y-14858481D01*
X11064857Y-14858481D02*
X11055333Y-14877528D01*
X11055333Y-14877528D02*
X11045810Y-14887052D01*
X11045810Y-14887052D02*
X11026762Y-14896576D01*
X11026762Y-14896576D02*
X11007714Y-14896576D01*
X11007714Y-14896576D02*
X10988667Y-14887052D01*
X10988667Y-14887052D02*
X10979143Y-14877528D01*
X10979143Y-14877528D02*
X10969619Y-14858481D01*
X10969619Y-14858481D02*
X10960095Y-14820386D01*
X10960095Y-14820386D02*
X10960095Y-14772767D01*
X10960095Y-14772767D02*
X10969619Y-14734671D01*
X10969619Y-14734671D02*
X10979143Y-14715624D01*
X10979143Y-14715624D02*
X10988667Y-14706100D01*
X10988667Y-14706100D02*
X11007714Y-14696576D01*
X11160095Y-14877528D02*
X11169619Y-14887052D01*
X11169619Y-14887052D02*
X11160095Y-14896576D01*
X11160095Y-14896576D02*
X11150572Y-14887052D01*
X11150572Y-14887052D02*
X11160095Y-14877528D01*
X11160095Y-14877528D02*
X11160095Y-14896576D01*
X11293429Y-14696576D02*
X11312476Y-14696576D01*
X11312476Y-14696576D02*
X11331524Y-14706100D01*
X11331524Y-14706100D02*
X11341048Y-14715624D01*
X11341048Y-14715624D02*
X11350571Y-14734671D01*
X11350571Y-14734671D02*
X11360095Y-14772767D01*
X11360095Y-14772767D02*
X11360095Y-14820386D01*
X11360095Y-14820386D02*
X11350571Y-14858481D01*
X11350571Y-14858481D02*
X11341048Y-14877528D01*
X11341048Y-14877528D02*
X11331524Y-14887052D01*
X11331524Y-14887052D02*
X11312476Y-14896576D01*
X11312476Y-14896576D02*
X11293429Y-14896576D01*
X11293429Y-14896576D02*
X11274381Y-14887052D01*
X11274381Y-14887052D02*
X11264857Y-14877528D01*
X11264857Y-14877528D02*
X11255333Y-14858481D01*
X11255333Y-14858481D02*
X11245810Y-14820386D01*
X11245810Y-14820386D02*
X11245810Y-14772767D01*
X11245810Y-14772767D02*
X11255333Y-14734671D01*
X11255333Y-14734671D02*
X11264857Y-14715624D01*
X11264857Y-14715624D02*
X11274381Y-14706100D01*
X11274381Y-14706100D02*
X11293429Y-14696576D01*
X11426762Y-14696576D02*
X11550571Y-14696576D01*
X11550571Y-14696576D02*
X11483905Y-14772767D01*
X11483905Y-14772767D02*
X11512476Y-14772767D01*
X11512476Y-14772767D02*
X11531524Y-14782290D01*
X11531524Y-14782290D02*
X11541048Y-14791814D01*
X11541048Y-14791814D02*
X11550571Y-14810862D01*
X11550571Y-14810862D02*
X11550571Y-14858481D01*
X11550571Y-14858481D02*
X11541048Y-14877528D01*
X11541048Y-14877528D02*
X11531524Y-14887052D01*
X11531524Y-14887052D02*
X11512476Y-14896576D01*
X11512476Y-14896576D02*
X11455333Y-14896576D01*
X11455333Y-14896576D02*
X11436286Y-14887052D01*
X11436286Y-14887052D02*
X11426762Y-14877528D01*
X11674381Y-14696576D02*
X11693429Y-14696576D01*
X11693429Y-14696576D02*
X11712476Y-14706100D01*
X11712476Y-14706100D02*
X11722000Y-14715624D01*
X11722000Y-14715624D02*
X11731524Y-14734671D01*
X11731524Y-14734671D02*
X11741048Y-14772767D01*
X11741048Y-14772767D02*
X11741048Y-14820386D01*
X11741048Y-14820386D02*
X11731524Y-14858481D01*
X11731524Y-14858481D02*
X11722000Y-14877528D01*
X11722000Y-14877528D02*
X11712476Y-14887052D01*
X11712476Y-14887052D02*
X11693429Y-14896576D01*
X11693429Y-14896576D02*
X11674381Y-14896576D01*
X11674381Y-14896576D02*
X11655333Y-14887052D01*
X11655333Y-14887052D02*
X11645810Y-14877528D01*
X11645810Y-14877528D02*
X11636286Y-14858481D01*
X11636286Y-14858481D02*
X11626762Y-14820386D01*
X11626762Y-14820386D02*
X11626762Y-14772767D01*
X11626762Y-14772767D02*
X11636286Y-14734671D01*
X11636286Y-14734671D02*
X11645810Y-14715624D01*
X11645810Y-14715624D02*
X11655333Y-14706100D01*
X11655333Y-14706100D02*
X11674381Y-14696576D01*
X11864857Y-14696576D02*
X11883905Y-14696576D01*
X11883905Y-14696576D02*
X11902952Y-14706100D01*
X11902952Y-14706100D02*
X11912476Y-14715624D01*
X11912476Y-14715624D02*
X11922000Y-14734671D01*
X11922000Y-14734671D02*
X11931524Y-14772767D01*
X11931524Y-14772767D02*
X11931524Y-14820386D01*
X11931524Y-14820386D02*
X11922000Y-14858481D01*
X11922000Y-14858481D02*
X11912476Y-14877528D01*
X11912476Y-14877528D02*
X11902952Y-14887052D01*
X11902952Y-14887052D02*
X11883905Y-14896576D01*
X11883905Y-14896576D02*
X11864857Y-14896576D01*
X11864857Y-14896576D02*
X11845810Y-14887052D01*
X11845810Y-14887052D02*
X11836286Y-14877528D01*
X11836286Y-14877528D02*
X11826762Y-14858481D01*
X11826762Y-14858481D02*
X11817238Y-14820386D01*
X11817238Y-14820386D02*
X11817238Y-14772767D01*
X11817238Y-14772767D02*
X11826762Y-14734671D01*
X11826762Y-14734671D02*
X11836286Y-14715624D01*
X11836286Y-14715624D02*
X11845810Y-14706100D01*
X11845810Y-14706100D02*
X11864857Y-14696576D01*
X12007714Y-14696576D02*
X12007714Y-14734671D01*
X12083905Y-14696576D02*
X12083905Y-14734671D01*
X12346762Y-14972767D02*
X12337238Y-14963243D01*
X12337238Y-14963243D02*
X12318191Y-14934671D01*
X12318191Y-14934671D02*
X12308667Y-14915624D01*
X12308667Y-14915624D02*
X12299143Y-14887052D01*
X12299143Y-14887052D02*
X12289619Y-14839433D01*
X12289619Y-14839433D02*
X12289619Y-14801338D01*
X12289619Y-14801338D02*
X12299143Y-14753719D01*
X12299143Y-14753719D02*
X12308667Y-14725148D01*
X12308667Y-14725148D02*
X12318191Y-14706100D01*
X12318191Y-14706100D02*
X12337238Y-14677528D01*
X12337238Y-14677528D02*
X12346762Y-14668005D01*
X12403905Y-14696576D02*
X12527714Y-14696576D01*
X12527714Y-14696576D02*
X12461048Y-14772767D01*
X12461048Y-14772767D02*
X12489619Y-14772767D01*
X12489619Y-14772767D02*
X12508667Y-14782290D01*
X12508667Y-14782290D02*
X12518191Y-14791814D01*
X12518191Y-14791814D02*
X12527714Y-14810862D01*
X12527714Y-14810862D02*
X12527714Y-14858481D01*
X12527714Y-14858481D02*
X12518191Y-14877528D01*
X12518191Y-14877528D02*
X12508667Y-14887052D01*
X12508667Y-14887052D02*
X12489619Y-14896576D01*
X12489619Y-14896576D02*
X12432476Y-14896576D01*
X12432476Y-14896576D02*
X12413429Y-14887052D01*
X12413429Y-14887052D02*
X12403905Y-14877528D01*
X12733429Y-14896576D02*
X12733429Y-14696576D01*
X12819143Y-14896576D02*
X12819143Y-14791814D01*
X12819143Y-14791814D02*
X12809619Y-14772767D01*
X12809619Y-14772767D02*
X12790572Y-14763243D01*
X12790572Y-14763243D02*
X12762000Y-14763243D01*
X12762000Y-14763243D02*
X12742952Y-14772767D01*
X12742952Y-14772767D02*
X12733429Y-14782290D01*
X12942952Y-14896576D02*
X12923905Y-14887052D01*
X12923905Y-14887052D02*
X12914381Y-14877528D01*
X12914381Y-14877528D02*
X12904857Y-14858481D01*
X12904857Y-14858481D02*
X12904857Y-14801338D01*
X12904857Y-14801338D02*
X12914381Y-14782290D01*
X12914381Y-14782290D02*
X12923905Y-14772767D01*
X12923905Y-14772767D02*
X12942952Y-14763243D01*
X12942952Y-14763243D02*
X12971524Y-14763243D01*
X12971524Y-14763243D02*
X12990572Y-14772767D01*
X12990572Y-14772767D02*
X13000095Y-14782290D01*
X13000095Y-14782290D02*
X13009619Y-14801338D01*
X13009619Y-14801338D02*
X13009619Y-14858481D01*
X13009619Y-14858481D02*
X13000095Y-14877528D01*
X13000095Y-14877528D02*
X12990572Y-14887052D01*
X12990572Y-14887052D02*
X12971524Y-14896576D01*
X12971524Y-14896576D02*
X12942952Y-14896576D01*
X13123905Y-14896576D02*
X13104857Y-14887052D01*
X13104857Y-14887052D02*
X13095333Y-14868005D01*
X13095333Y-14868005D02*
X13095333Y-14696576D01*
X13276286Y-14887052D02*
X13257238Y-14896576D01*
X13257238Y-14896576D02*
X13219143Y-14896576D01*
X13219143Y-14896576D02*
X13200095Y-14887052D01*
X13200095Y-14887052D02*
X13190572Y-14868005D01*
X13190572Y-14868005D02*
X13190572Y-14791814D01*
X13190572Y-14791814D02*
X13200095Y-14772767D01*
X13200095Y-14772767D02*
X13219143Y-14763243D01*
X13219143Y-14763243D02*
X13257238Y-14763243D01*
X13257238Y-14763243D02*
X13276286Y-14772767D01*
X13276286Y-14772767D02*
X13285810Y-14791814D01*
X13285810Y-14791814D02*
X13285810Y-14810862D01*
X13285810Y-14810862D02*
X13190572Y-14829909D01*
X13362000Y-14887052D02*
X13381048Y-14896576D01*
X13381048Y-14896576D02*
X13419143Y-14896576D01*
X13419143Y-14896576D02*
X13438191Y-14887052D01*
X13438191Y-14887052D02*
X13447714Y-14868005D01*
X13447714Y-14868005D02*
X13447714Y-14858481D01*
X13447714Y-14858481D02*
X13438191Y-14839433D01*
X13438191Y-14839433D02*
X13419143Y-14829909D01*
X13419143Y-14829909D02*
X13390572Y-14829909D01*
X13390572Y-14829909D02*
X13371524Y-14820386D01*
X13371524Y-14820386D02*
X13362000Y-14801338D01*
X13362000Y-14801338D02*
X13362000Y-14791814D01*
X13362000Y-14791814D02*
X13371524Y-14772767D01*
X13371524Y-14772767D02*
X13390572Y-14763243D01*
X13390572Y-14763243D02*
X13419143Y-14763243D01*
X13419143Y-14763243D02*
X13438191Y-14772767D01*
X13514381Y-14972767D02*
X13523905Y-14963243D01*
X13523905Y-14963243D02*
X13542953Y-14934671D01*
X13542953Y-14934671D02*
X13552476Y-14915624D01*
X13552476Y-14915624D02*
X13562000Y-14887052D01*
X13562000Y-14887052D02*
X13571524Y-14839433D01*
X13571524Y-14839433D02*
X13571524Y-14801338D01*
X13571524Y-14801338D02*
X13562000Y-14753719D01*
X13562000Y-14753719D02*
X13552476Y-14725148D01*
X13552476Y-14725148D02*
X13542953Y-14706100D01*
X13542953Y-14706100D02*
X13523905Y-14677528D01*
X13523905Y-14677528D02*
X13514381Y-14668005D01*
D17*
X8737000Y-15014600D02*
X8882000Y-15159600D01*
X8882000Y-15014600D02*
X8737000Y-15159600D01*
X8882000Y-15087100D02*
G75*
G03*
X8882000Y-15087100I-72500J0D01*
G01*
D11*
X9234381Y-15160576D02*
X9120095Y-15160576D01*
X9177238Y-15160576D02*
X9177238Y-14960576D01*
X9177238Y-14960576D02*
X9158190Y-14989148D01*
X9158190Y-14989148D02*
X9139143Y-15008195D01*
X9139143Y-15008195D02*
X9120095Y-15017719D01*
X9320095Y-15141528D02*
X9329619Y-15151052D01*
X9329619Y-15151052D02*
X9320095Y-15160576D01*
X9320095Y-15160576D02*
X9310571Y-15151052D01*
X9310571Y-15151052D02*
X9320095Y-15141528D01*
X9320095Y-15141528D02*
X9320095Y-15160576D01*
X9501048Y-15027243D02*
X9501048Y-15160576D01*
X9453429Y-14951052D02*
X9405810Y-15093909D01*
X9405810Y-15093909D02*
X9529619Y-15093909D01*
X9701048Y-14960576D02*
X9605810Y-14960576D01*
X9605810Y-14960576D02*
X9596286Y-15055814D01*
X9596286Y-15055814D02*
X9605810Y-15046290D01*
X9605810Y-15046290D02*
X9624857Y-15036767D01*
X9624857Y-15036767D02*
X9672476Y-15036767D01*
X9672476Y-15036767D02*
X9691524Y-15046290D01*
X9691524Y-15046290D02*
X9701048Y-15055814D01*
X9701048Y-15055814D02*
X9710571Y-15074862D01*
X9710571Y-15074862D02*
X9710571Y-15122481D01*
X9710571Y-15122481D02*
X9701048Y-15141528D01*
X9701048Y-15141528D02*
X9691524Y-15151052D01*
X9691524Y-15151052D02*
X9672476Y-15160576D01*
X9672476Y-15160576D02*
X9624857Y-15160576D01*
X9624857Y-15160576D02*
X9605810Y-15151052D01*
X9605810Y-15151052D02*
X9596286Y-15141528D01*
X9834381Y-14960576D02*
X9853429Y-14960576D01*
X9853429Y-14960576D02*
X9872476Y-14970100D01*
X9872476Y-14970100D02*
X9882000Y-14979624D01*
X9882000Y-14979624D02*
X9891524Y-14998671D01*
X9891524Y-14998671D02*
X9901048Y-15036767D01*
X9901048Y-15036767D02*
X9901048Y-15084386D01*
X9901048Y-15084386D02*
X9891524Y-15122481D01*
X9891524Y-15122481D02*
X9882000Y-15141528D01*
X9882000Y-15141528D02*
X9872476Y-15151052D01*
X9872476Y-15151052D02*
X9853429Y-15160576D01*
X9853429Y-15160576D02*
X9834381Y-15160576D01*
X9834381Y-15160576D02*
X9815333Y-15151052D01*
X9815333Y-15151052D02*
X9805810Y-15141528D01*
X9805810Y-15141528D02*
X9796286Y-15122481D01*
X9796286Y-15122481D02*
X9786762Y-15084386D01*
X9786762Y-15084386D02*
X9786762Y-15036767D01*
X9786762Y-15036767D02*
X9796286Y-14998671D01*
X9796286Y-14998671D02*
X9805810Y-14979624D01*
X9805810Y-14979624D02*
X9815333Y-14970100D01*
X9815333Y-14970100D02*
X9834381Y-14960576D01*
X9986762Y-15160576D02*
X9986762Y-15027243D01*
X9986762Y-15046290D02*
X9996286Y-15036767D01*
X9996286Y-15036767D02*
X10015333Y-15027243D01*
X10015333Y-15027243D02*
X10043905Y-15027243D01*
X10043905Y-15027243D02*
X10062952Y-15036767D01*
X10062952Y-15036767D02*
X10072476Y-15055814D01*
X10072476Y-15055814D02*
X10072476Y-15160576D01*
X10072476Y-15055814D02*
X10082000Y-15036767D01*
X10082000Y-15036767D02*
X10101048Y-15027243D01*
X10101048Y-15027243D02*
X10129619Y-15027243D01*
X10129619Y-15027243D02*
X10148667Y-15036767D01*
X10148667Y-15036767D02*
X10158191Y-15055814D01*
X10158191Y-15055814D02*
X10158191Y-15160576D01*
X10253429Y-15160576D02*
X10253429Y-15027243D01*
X10253429Y-15046290D02*
X10262952Y-15036767D01*
X10262952Y-15036767D02*
X10282000Y-15027243D01*
X10282000Y-15027243D02*
X10310572Y-15027243D01*
X10310572Y-15027243D02*
X10329619Y-15036767D01*
X10329619Y-15036767D02*
X10339143Y-15055814D01*
X10339143Y-15055814D02*
X10339143Y-15160576D01*
X10339143Y-15055814D02*
X10348667Y-15036767D01*
X10348667Y-15036767D02*
X10367714Y-15027243D01*
X10367714Y-15027243D02*
X10396286Y-15027243D01*
X10396286Y-15027243D02*
X10415333Y-15036767D01*
X10415333Y-15036767D02*
X10424857Y-15055814D01*
X10424857Y-15055814D02*
X10424857Y-15160576D01*
X10782952Y-14951052D02*
X10611524Y-15208195D01*
X11007714Y-14960576D02*
X11026762Y-14960576D01*
X11026762Y-14960576D02*
X11045810Y-14970100D01*
X11045810Y-14970100D02*
X11055333Y-14979624D01*
X11055333Y-14979624D02*
X11064857Y-14998671D01*
X11064857Y-14998671D02*
X11074381Y-15036767D01*
X11074381Y-15036767D02*
X11074381Y-15084386D01*
X11074381Y-15084386D02*
X11064857Y-15122481D01*
X11064857Y-15122481D02*
X11055333Y-15141528D01*
X11055333Y-15141528D02*
X11045810Y-15151052D01*
X11045810Y-15151052D02*
X11026762Y-15160576D01*
X11026762Y-15160576D02*
X11007714Y-15160576D01*
X11007714Y-15160576D02*
X10988667Y-15151052D01*
X10988667Y-15151052D02*
X10979143Y-15141528D01*
X10979143Y-15141528D02*
X10969619Y-15122481D01*
X10969619Y-15122481D02*
X10960095Y-15084386D01*
X10960095Y-15084386D02*
X10960095Y-15036767D01*
X10960095Y-15036767D02*
X10969619Y-14998671D01*
X10969619Y-14998671D02*
X10979143Y-14979624D01*
X10979143Y-14979624D02*
X10988667Y-14970100D01*
X10988667Y-14970100D02*
X11007714Y-14960576D01*
X11160095Y-15141528D02*
X11169619Y-15151052D01*
X11169619Y-15151052D02*
X11160095Y-15160576D01*
X11160095Y-15160576D02*
X11150572Y-15151052D01*
X11150572Y-15151052D02*
X11160095Y-15141528D01*
X11160095Y-15141528D02*
X11160095Y-15160576D01*
X11293429Y-14960576D02*
X11312476Y-14960576D01*
X11312476Y-14960576D02*
X11331524Y-14970100D01*
X11331524Y-14970100D02*
X11341048Y-14979624D01*
X11341048Y-14979624D02*
X11350571Y-14998671D01*
X11350571Y-14998671D02*
X11360095Y-15036767D01*
X11360095Y-15036767D02*
X11360095Y-15084386D01*
X11360095Y-15084386D02*
X11350571Y-15122481D01*
X11350571Y-15122481D02*
X11341048Y-15141528D01*
X11341048Y-15141528D02*
X11331524Y-15151052D01*
X11331524Y-15151052D02*
X11312476Y-15160576D01*
X11312476Y-15160576D02*
X11293429Y-15160576D01*
X11293429Y-15160576D02*
X11274381Y-15151052D01*
X11274381Y-15151052D02*
X11264857Y-15141528D01*
X11264857Y-15141528D02*
X11255333Y-15122481D01*
X11255333Y-15122481D02*
X11245810Y-15084386D01*
X11245810Y-15084386D02*
X11245810Y-15036767D01*
X11245810Y-15036767D02*
X11255333Y-14998671D01*
X11255333Y-14998671D02*
X11264857Y-14979624D01*
X11264857Y-14979624D02*
X11274381Y-14970100D01*
X11274381Y-14970100D02*
X11293429Y-14960576D01*
X11541048Y-14960576D02*
X11445810Y-14960576D01*
X11445810Y-14960576D02*
X11436286Y-15055814D01*
X11436286Y-15055814D02*
X11445810Y-15046290D01*
X11445810Y-15046290D02*
X11464857Y-15036767D01*
X11464857Y-15036767D02*
X11512476Y-15036767D01*
X11512476Y-15036767D02*
X11531524Y-15046290D01*
X11531524Y-15046290D02*
X11541048Y-15055814D01*
X11541048Y-15055814D02*
X11550571Y-15074862D01*
X11550571Y-15074862D02*
X11550571Y-15122481D01*
X11550571Y-15122481D02*
X11541048Y-15141528D01*
X11541048Y-15141528D02*
X11531524Y-15151052D01*
X11531524Y-15151052D02*
X11512476Y-15160576D01*
X11512476Y-15160576D02*
X11464857Y-15160576D01*
X11464857Y-15160576D02*
X11445810Y-15151052D01*
X11445810Y-15151052D02*
X11436286Y-15141528D01*
X11617238Y-14960576D02*
X11750571Y-14960576D01*
X11750571Y-14960576D02*
X11664857Y-15160576D01*
X11931524Y-15160576D02*
X11817238Y-15160576D01*
X11874381Y-15160576D02*
X11874381Y-14960576D01*
X11874381Y-14960576D02*
X11855333Y-14989148D01*
X11855333Y-14989148D02*
X11836286Y-15008195D01*
X11836286Y-15008195D02*
X11817238Y-15017719D01*
X12007714Y-14960576D02*
X12007714Y-14998671D01*
X12083905Y-14960576D02*
X12083905Y-14998671D01*
X12346762Y-15236767D02*
X12337238Y-15227243D01*
X12337238Y-15227243D02*
X12318191Y-15198671D01*
X12318191Y-15198671D02*
X12308667Y-15179624D01*
X12308667Y-15179624D02*
X12299143Y-15151052D01*
X12299143Y-15151052D02*
X12289619Y-15103433D01*
X12289619Y-15103433D02*
X12289619Y-15065338D01*
X12289619Y-15065338D02*
X12299143Y-15017719D01*
X12299143Y-15017719D02*
X12308667Y-14989148D01*
X12308667Y-14989148D02*
X12318191Y-14970100D01*
X12318191Y-14970100D02*
X12337238Y-14941528D01*
X12337238Y-14941528D02*
X12346762Y-14932005D01*
X12527714Y-15160576D02*
X12413429Y-15160576D01*
X12470571Y-15160576D02*
X12470571Y-14960576D01*
X12470571Y-14960576D02*
X12451524Y-14989148D01*
X12451524Y-14989148D02*
X12432476Y-15008195D01*
X12432476Y-15008195D02*
X12413429Y-15017719D01*
X12699143Y-14960576D02*
X12661048Y-14960576D01*
X12661048Y-14960576D02*
X12642000Y-14970100D01*
X12642000Y-14970100D02*
X12632476Y-14979624D01*
X12632476Y-14979624D02*
X12613429Y-15008195D01*
X12613429Y-15008195D02*
X12603905Y-15046290D01*
X12603905Y-15046290D02*
X12603905Y-15122481D01*
X12603905Y-15122481D02*
X12613429Y-15141528D01*
X12613429Y-15141528D02*
X12622952Y-15151052D01*
X12622952Y-15151052D02*
X12642000Y-15160576D01*
X12642000Y-15160576D02*
X12680095Y-15160576D01*
X12680095Y-15160576D02*
X12699143Y-15151052D01*
X12699143Y-15151052D02*
X12708667Y-15141528D01*
X12708667Y-15141528D02*
X12718191Y-15122481D01*
X12718191Y-15122481D02*
X12718191Y-15074862D01*
X12718191Y-15074862D02*
X12708667Y-15055814D01*
X12708667Y-15055814D02*
X12699143Y-15046290D01*
X12699143Y-15046290D02*
X12680095Y-15036767D01*
X12680095Y-15036767D02*
X12642000Y-15036767D01*
X12642000Y-15036767D02*
X12622952Y-15046290D01*
X12622952Y-15046290D02*
X12613429Y-15055814D01*
X12613429Y-15055814D02*
X12603905Y-15074862D01*
X12923905Y-15160576D02*
X12923905Y-14960576D01*
X13009619Y-15160576D02*
X13009619Y-15055814D01*
X13009619Y-15055814D02*
X13000095Y-15036767D01*
X13000095Y-15036767D02*
X12981048Y-15027243D01*
X12981048Y-15027243D02*
X12952476Y-15027243D01*
X12952476Y-15027243D02*
X12933429Y-15036767D01*
X12933429Y-15036767D02*
X12923905Y-15046290D01*
X13133429Y-15160576D02*
X13114381Y-15151052D01*
X13114381Y-15151052D02*
X13104857Y-15141528D01*
X13104857Y-15141528D02*
X13095333Y-15122481D01*
X13095333Y-15122481D02*
X13095333Y-15065338D01*
X13095333Y-15065338D02*
X13104857Y-15046290D01*
X13104857Y-15046290D02*
X13114381Y-15036767D01*
X13114381Y-15036767D02*
X13133429Y-15027243D01*
X13133429Y-15027243D02*
X13162000Y-15027243D01*
X13162000Y-15027243D02*
X13181048Y-15036767D01*
X13181048Y-15036767D02*
X13190572Y-15046290D01*
X13190572Y-15046290D02*
X13200095Y-15065338D01*
X13200095Y-15065338D02*
X13200095Y-15122481D01*
X13200095Y-15122481D02*
X13190572Y-15141528D01*
X13190572Y-15141528D02*
X13181048Y-15151052D01*
X13181048Y-15151052D02*
X13162000Y-15160576D01*
X13162000Y-15160576D02*
X13133429Y-15160576D01*
X13314381Y-15160576D02*
X13295333Y-15151052D01*
X13295333Y-15151052D02*
X13285810Y-15132005D01*
X13285810Y-15132005D02*
X13285810Y-14960576D01*
X13466762Y-15151052D02*
X13447714Y-15160576D01*
X13447714Y-15160576D02*
X13409619Y-15160576D01*
X13409619Y-15160576D02*
X13390572Y-15151052D01*
X13390572Y-15151052D02*
X13381048Y-15132005D01*
X13381048Y-15132005D02*
X13381048Y-15055814D01*
X13381048Y-15055814D02*
X13390572Y-15036767D01*
X13390572Y-15036767D02*
X13409619Y-15027243D01*
X13409619Y-15027243D02*
X13447714Y-15027243D01*
X13447714Y-15027243D02*
X13466762Y-15036767D01*
X13466762Y-15036767D02*
X13476286Y-15055814D01*
X13476286Y-15055814D02*
X13476286Y-15074862D01*
X13476286Y-15074862D02*
X13381048Y-15093909D01*
X13552476Y-15151052D02*
X13571524Y-15160576D01*
X13571524Y-15160576D02*
X13609619Y-15160576D01*
X13609619Y-15160576D02*
X13628667Y-15151052D01*
X13628667Y-15151052D02*
X13638191Y-15132005D01*
X13638191Y-15132005D02*
X13638191Y-15122481D01*
X13638191Y-15122481D02*
X13628667Y-15103433D01*
X13628667Y-15103433D02*
X13609619Y-15093909D01*
X13609619Y-15093909D02*
X13581048Y-15093909D01*
X13581048Y-15093909D02*
X13562000Y-15084386D01*
X13562000Y-15084386D02*
X13552476Y-15065338D01*
X13552476Y-15065338D02*
X13552476Y-15055814D01*
X13552476Y-15055814D02*
X13562000Y-15036767D01*
X13562000Y-15036767D02*
X13581048Y-15027243D01*
X13581048Y-15027243D02*
X13609619Y-15027243D01*
X13609619Y-15027243D02*
X13628667Y-15036767D01*
X13704857Y-15236767D02*
X13714381Y-15227243D01*
X13714381Y-15227243D02*
X13733429Y-15198671D01*
X13733429Y-15198671D02*
X13742953Y-15179624D01*
X13742953Y-15179624D02*
X13752476Y-15151052D01*
X13752476Y-15151052D02*
X13762000Y-15103433D01*
X13762000Y-15103433D02*
X13762000Y-15065338D01*
X13762000Y-15065338D02*
X13752476Y-15017719D01*
X13752476Y-15017719D02*
X13742953Y-14989148D01*
X13742953Y-14989148D02*
X13733429Y-14970100D01*
X13733429Y-14970100D02*
X13714381Y-14941528D01*
X13714381Y-14941528D02*
X13704857Y-14932005D01*
D18*
X8732000Y-15277100D02*
X8882000Y-15427100D01*
X8882000Y-15277100D02*
X8732000Y-15427100D01*
X8807000Y-15277100D02*
X8807000Y-15427100D01*
X8732000Y-15352100D02*
X8882000Y-15352100D01*
D11*
X9234381Y-15425576D02*
X9120095Y-15425576D01*
X9177238Y-15425576D02*
X9177238Y-15225576D01*
X9177238Y-15225576D02*
X9158190Y-15254148D01*
X9158190Y-15254148D02*
X9139143Y-15273195D01*
X9139143Y-15273195D02*
X9120095Y-15282719D01*
X9320095Y-15406528D02*
X9329619Y-15416052D01*
X9329619Y-15416052D02*
X9320095Y-15425576D01*
X9320095Y-15425576D02*
X9310571Y-15416052D01*
X9310571Y-15416052D02*
X9320095Y-15406528D01*
X9320095Y-15406528D02*
X9320095Y-15425576D01*
X9510571Y-15225576D02*
X9415333Y-15225576D01*
X9415333Y-15225576D02*
X9405810Y-15320814D01*
X9405810Y-15320814D02*
X9415333Y-15311290D01*
X9415333Y-15311290D02*
X9434381Y-15301767D01*
X9434381Y-15301767D02*
X9482000Y-15301767D01*
X9482000Y-15301767D02*
X9501048Y-15311290D01*
X9501048Y-15311290D02*
X9510571Y-15320814D01*
X9510571Y-15320814D02*
X9520095Y-15339862D01*
X9520095Y-15339862D02*
X9520095Y-15387481D01*
X9520095Y-15387481D02*
X9510571Y-15406528D01*
X9510571Y-15406528D02*
X9501048Y-15416052D01*
X9501048Y-15416052D02*
X9482000Y-15425576D01*
X9482000Y-15425576D02*
X9434381Y-15425576D01*
X9434381Y-15425576D02*
X9415333Y-15416052D01*
X9415333Y-15416052D02*
X9405810Y-15406528D01*
X9643905Y-15225576D02*
X9662952Y-15225576D01*
X9662952Y-15225576D02*
X9682000Y-15235100D01*
X9682000Y-15235100D02*
X9691524Y-15244624D01*
X9691524Y-15244624D02*
X9701048Y-15263671D01*
X9701048Y-15263671D02*
X9710571Y-15301767D01*
X9710571Y-15301767D02*
X9710571Y-15349386D01*
X9710571Y-15349386D02*
X9701048Y-15387481D01*
X9701048Y-15387481D02*
X9691524Y-15406528D01*
X9691524Y-15406528D02*
X9682000Y-15416052D01*
X9682000Y-15416052D02*
X9662952Y-15425576D01*
X9662952Y-15425576D02*
X9643905Y-15425576D01*
X9643905Y-15425576D02*
X9624857Y-15416052D01*
X9624857Y-15416052D02*
X9615333Y-15406528D01*
X9615333Y-15406528D02*
X9605810Y-15387481D01*
X9605810Y-15387481D02*
X9596286Y-15349386D01*
X9596286Y-15349386D02*
X9596286Y-15301767D01*
X9596286Y-15301767D02*
X9605810Y-15263671D01*
X9605810Y-15263671D02*
X9615333Y-15244624D01*
X9615333Y-15244624D02*
X9624857Y-15235100D01*
X9624857Y-15235100D02*
X9643905Y-15225576D01*
X9834381Y-15225576D02*
X9853429Y-15225576D01*
X9853429Y-15225576D02*
X9872476Y-15235100D01*
X9872476Y-15235100D02*
X9882000Y-15244624D01*
X9882000Y-15244624D02*
X9891524Y-15263671D01*
X9891524Y-15263671D02*
X9901048Y-15301767D01*
X9901048Y-15301767D02*
X9901048Y-15349386D01*
X9901048Y-15349386D02*
X9891524Y-15387481D01*
X9891524Y-15387481D02*
X9882000Y-15406528D01*
X9882000Y-15406528D02*
X9872476Y-15416052D01*
X9872476Y-15416052D02*
X9853429Y-15425576D01*
X9853429Y-15425576D02*
X9834381Y-15425576D01*
X9834381Y-15425576D02*
X9815333Y-15416052D01*
X9815333Y-15416052D02*
X9805810Y-15406528D01*
X9805810Y-15406528D02*
X9796286Y-15387481D01*
X9796286Y-15387481D02*
X9786762Y-15349386D01*
X9786762Y-15349386D02*
X9786762Y-15301767D01*
X9786762Y-15301767D02*
X9796286Y-15263671D01*
X9796286Y-15263671D02*
X9805810Y-15244624D01*
X9805810Y-15244624D02*
X9815333Y-15235100D01*
X9815333Y-15235100D02*
X9834381Y-15225576D01*
X9986762Y-15425576D02*
X9986762Y-15292243D01*
X9986762Y-15311290D02*
X9996286Y-15301767D01*
X9996286Y-15301767D02*
X10015333Y-15292243D01*
X10015333Y-15292243D02*
X10043905Y-15292243D01*
X10043905Y-15292243D02*
X10062952Y-15301767D01*
X10062952Y-15301767D02*
X10072476Y-15320814D01*
X10072476Y-15320814D02*
X10072476Y-15425576D01*
X10072476Y-15320814D02*
X10082000Y-15301767D01*
X10082000Y-15301767D02*
X10101048Y-15292243D01*
X10101048Y-15292243D02*
X10129619Y-15292243D01*
X10129619Y-15292243D02*
X10148667Y-15301767D01*
X10148667Y-15301767D02*
X10158191Y-15320814D01*
X10158191Y-15320814D02*
X10158191Y-15425576D01*
X10253429Y-15425576D02*
X10253429Y-15292243D01*
X10253429Y-15311290D02*
X10262952Y-15301767D01*
X10262952Y-15301767D02*
X10282000Y-15292243D01*
X10282000Y-15292243D02*
X10310572Y-15292243D01*
X10310572Y-15292243D02*
X10329619Y-15301767D01*
X10329619Y-15301767D02*
X10339143Y-15320814D01*
X10339143Y-15320814D02*
X10339143Y-15425576D01*
X10339143Y-15320814D02*
X10348667Y-15301767D01*
X10348667Y-15301767D02*
X10367714Y-15292243D01*
X10367714Y-15292243D02*
X10396286Y-15292243D01*
X10396286Y-15292243D02*
X10415333Y-15301767D01*
X10415333Y-15301767D02*
X10424857Y-15320814D01*
X10424857Y-15320814D02*
X10424857Y-15425576D01*
X10782952Y-15216052D02*
X10611524Y-15473195D01*
X11007714Y-15225576D02*
X11026762Y-15225576D01*
X11026762Y-15225576D02*
X11045810Y-15235100D01*
X11045810Y-15235100D02*
X11055333Y-15244624D01*
X11055333Y-15244624D02*
X11064857Y-15263671D01*
X11064857Y-15263671D02*
X11074381Y-15301767D01*
X11074381Y-15301767D02*
X11074381Y-15349386D01*
X11074381Y-15349386D02*
X11064857Y-15387481D01*
X11064857Y-15387481D02*
X11055333Y-15406528D01*
X11055333Y-15406528D02*
X11045810Y-15416052D01*
X11045810Y-15416052D02*
X11026762Y-15425576D01*
X11026762Y-15425576D02*
X11007714Y-15425576D01*
X11007714Y-15425576D02*
X10988667Y-15416052D01*
X10988667Y-15416052D02*
X10979143Y-15406528D01*
X10979143Y-15406528D02*
X10969619Y-15387481D01*
X10969619Y-15387481D02*
X10960095Y-15349386D01*
X10960095Y-15349386D02*
X10960095Y-15301767D01*
X10960095Y-15301767D02*
X10969619Y-15263671D01*
X10969619Y-15263671D02*
X10979143Y-15244624D01*
X10979143Y-15244624D02*
X10988667Y-15235100D01*
X10988667Y-15235100D02*
X11007714Y-15225576D01*
X11160095Y-15406528D02*
X11169619Y-15416052D01*
X11169619Y-15416052D02*
X11160095Y-15425576D01*
X11160095Y-15425576D02*
X11150572Y-15416052D01*
X11150572Y-15416052D02*
X11160095Y-15406528D01*
X11160095Y-15406528D02*
X11160095Y-15425576D01*
X11293429Y-15225576D02*
X11312476Y-15225576D01*
X11312476Y-15225576D02*
X11331524Y-15235100D01*
X11331524Y-15235100D02*
X11341048Y-15244624D01*
X11341048Y-15244624D02*
X11350571Y-15263671D01*
X11350571Y-15263671D02*
X11360095Y-15301767D01*
X11360095Y-15301767D02*
X11360095Y-15349386D01*
X11360095Y-15349386D02*
X11350571Y-15387481D01*
X11350571Y-15387481D02*
X11341048Y-15406528D01*
X11341048Y-15406528D02*
X11331524Y-15416052D01*
X11331524Y-15416052D02*
X11312476Y-15425576D01*
X11312476Y-15425576D02*
X11293429Y-15425576D01*
X11293429Y-15425576D02*
X11274381Y-15416052D01*
X11274381Y-15416052D02*
X11264857Y-15406528D01*
X11264857Y-15406528D02*
X11255333Y-15387481D01*
X11255333Y-15387481D02*
X11245810Y-15349386D01*
X11245810Y-15349386D02*
X11245810Y-15301767D01*
X11245810Y-15301767D02*
X11255333Y-15263671D01*
X11255333Y-15263671D02*
X11264857Y-15244624D01*
X11264857Y-15244624D02*
X11274381Y-15235100D01*
X11274381Y-15235100D02*
X11293429Y-15225576D01*
X11541048Y-15225576D02*
X11445810Y-15225576D01*
X11445810Y-15225576D02*
X11436286Y-15320814D01*
X11436286Y-15320814D02*
X11445810Y-15311290D01*
X11445810Y-15311290D02*
X11464857Y-15301767D01*
X11464857Y-15301767D02*
X11512476Y-15301767D01*
X11512476Y-15301767D02*
X11531524Y-15311290D01*
X11531524Y-15311290D02*
X11541048Y-15320814D01*
X11541048Y-15320814D02*
X11550571Y-15339862D01*
X11550571Y-15339862D02*
X11550571Y-15387481D01*
X11550571Y-15387481D02*
X11541048Y-15406528D01*
X11541048Y-15406528D02*
X11531524Y-15416052D01*
X11531524Y-15416052D02*
X11512476Y-15425576D01*
X11512476Y-15425576D02*
X11464857Y-15425576D01*
X11464857Y-15425576D02*
X11445810Y-15416052D01*
X11445810Y-15416052D02*
X11436286Y-15406528D01*
X11645810Y-15425576D02*
X11683905Y-15425576D01*
X11683905Y-15425576D02*
X11702952Y-15416052D01*
X11702952Y-15416052D02*
X11712476Y-15406528D01*
X11712476Y-15406528D02*
X11731524Y-15377957D01*
X11731524Y-15377957D02*
X11741048Y-15339862D01*
X11741048Y-15339862D02*
X11741048Y-15263671D01*
X11741048Y-15263671D02*
X11731524Y-15244624D01*
X11731524Y-15244624D02*
X11722000Y-15235100D01*
X11722000Y-15235100D02*
X11702952Y-15225576D01*
X11702952Y-15225576D02*
X11664857Y-15225576D01*
X11664857Y-15225576D02*
X11645810Y-15235100D01*
X11645810Y-15235100D02*
X11636286Y-15244624D01*
X11636286Y-15244624D02*
X11626762Y-15263671D01*
X11626762Y-15263671D02*
X11626762Y-15311290D01*
X11626762Y-15311290D02*
X11636286Y-15330338D01*
X11636286Y-15330338D02*
X11645810Y-15339862D01*
X11645810Y-15339862D02*
X11664857Y-15349386D01*
X11664857Y-15349386D02*
X11702952Y-15349386D01*
X11702952Y-15349386D02*
X11722000Y-15339862D01*
X11722000Y-15339862D02*
X11731524Y-15330338D01*
X11731524Y-15330338D02*
X11741048Y-15311290D01*
X11931524Y-15425576D02*
X11817238Y-15425576D01*
X11874381Y-15425576D02*
X11874381Y-15225576D01*
X11874381Y-15225576D02*
X11855333Y-15254148D01*
X11855333Y-15254148D02*
X11836286Y-15273195D01*
X11836286Y-15273195D02*
X11817238Y-15282719D01*
X12007714Y-15225576D02*
X12007714Y-15263671D01*
X12083905Y-15225576D02*
X12083905Y-15263671D01*
X12346762Y-15501767D02*
X12337238Y-15492243D01*
X12337238Y-15492243D02*
X12318191Y-15463671D01*
X12318191Y-15463671D02*
X12308667Y-15444624D01*
X12308667Y-15444624D02*
X12299143Y-15416052D01*
X12299143Y-15416052D02*
X12289619Y-15368433D01*
X12289619Y-15368433D02*
X12289619Y-15330338D01*
X12289619Y-15330338D02*
X12299143Y-15282719D01*
X12299143Y-15282719D02*
X12308667Y-15254148D01*
X12308667Y-15254148D02*
X12318191Y-15235100D01*
X12318191Y-15235100D02*
X12337238Y-15206528D01*
X12337238Y-15206528D02*
X12346762Y-15197005D01*
X12413429Y-15244624D02*
X12422952Y-15235100D01*
X12422952Y-15235100D02*
X12442000Y-15225576D01*
X12442000Y-15225576D02*
X12489619Y-15225576D01*
X12489619Y-15225576D02*
X12508667Y-15235100D01*
X12508667Y-15235100D02*
X12518191Y-15244624D01*
X12518191Y-15244624D02*
X12527714Y-15263671D01*
X12527714Y-15263671D02*
X12527714Y-15282719D01*
X12527714Y-15282719D02*
X12518191Y-15311290D01*
X12518191Y-15311290D02*
X12403905Y-15425576D01*
X12403905Y-15425576D02*
X12527714Y-15425576D01*
X12699143Y-15225576D02*
X12661048Y-15225576D01*
X12661048Y-15225576D02*
X12642000Y-15235100D01*
X12642000Y-15235100D02*
X12632476Y-15244624D01*
X12632476Y-15244624D02*
X12613429Y-15273195D01*
X12613429Y-15273195D02*
X12603905Y-15311290D01*
X12603905Y-15311290D02*
X12603905Y-15387481D01*
X12603905Y-15387481D02*
X12613429Y-15406528D01*
X12613429Y-15406528D02*
X12622952Y-15416052D01*
X12622952Y-15416052D02*
X12642000Y-15425576D01*
X12642000Y-15425576D02*
X12680095Y-15425576D01*
X12680095Y-15425576D02*
X12699143Y-15416052D01*
X12699143Y-15416052D02*
X12708667Y-15406528D01*
X12708667Y-15406528D02*
X12718191Y-15387481D01*
X12718191Y-15387481D02*
X12718191Y-15339862D01*
X12718191Y-15339862D02*
X12708667Y-15320814D01*
X12708667Y-15320814D02*
X12699143Y-15311290D01*
X12699143Y-15311290D02*
X12680095Y-15301767D01*
X12680095Y-15301767D02*
X12642000Y-15301767D01*
X12642000Y-15301767D02*
X12622952Y-15311290D01*
X12622952Y-15311290D02*
X12613429Y-15320814D01*
X12613429Y-15320814D02*
X12603905Y-15339862D01*
X12923905Y-15425576D02*
X12923905Y-15225576D01*
X13009619Y-15425576D02*
X13009619Y-15320814D01*
X13009619Y-15320814D02*
X13000095Y-15301767D01*
X13000095Y-15301767D02*
X12981048Y-15292243D01*
X12981048Y-15292243D02*
X12952476Y-15292243D01*
X12952476Y-15292243D02*
X12933429Y-15301767D01*
X12933429Y-15301767D02*
X12923905Y-15311290D01*
X13133429Y-15425576D02*
X13114381Y-15416052D01*
X13114381Y-15416052D02*
X13104857Y-15406528D01*
X13104857Y-15406528D02*
X13095333Y-15387481D01*
X13095333Y-15387481D02*
X13095333Y-15330338D01*
X13095333Y-15330338D02*
X13104857Y-15311290D01*
X13104857Y-15311290D02*
X13114381Y-15301767D01*
X13114381Y-15301767D02*
X13133429Y-15292243D01*
X13133429Y-15292243D02*
X13162000Y-15292243D01*
X13162000Y-15292243D02*
X13181048Y-15301767D01*
X13181048Y-15301767D02*
X13190572Y-15311290D01*
X13190572Y-15311290D02*
X13200095Y-15330338D01*
X13200095Y-15330338D02*
X13200095Y-15387481D01*
X13200095Y-15387481D02*
X13190572Y-15406528D01*
X13190572Y-15406528D02*
X13181048Y-15416052D01*
X13181048Y-15416052D02*
X13162000Y-15425576D01*
X13162000Y-15425576D02*
X13133429Y-15425576D01*
X13314381Y-15425576D02*
X13295333Y-15416052D01*
X13295333Y-15416052D02*
X13285810Y-15397005D01*
X13285810Y-15397005D02*
X13285810Y-15225576D01*
X13466762Y-15416052D02*
X13447714Y-15425576D01*
X13447714Y-15425576D02*
X13409619Y-15425576D01*
X13409619Y-15425576D02*
X13390572Y-15416052D01*
X13390572Y-15416052D02*
X13381048Y-15397005D01*
X13381048Y-15397005D02*
X13381048Y-15320814D01*
X13381048Y-15320814D02*
X13390572Y-15301767D01*
X13390572Y-15301767D02*
X13409619Y-15292243D01*
X13409619Y-15292243D02*
X13447714Y-15292243D01*
X13447714Y-15292243D02*
X13466762Y-15301767D01*
X13466762Y-15301767D02*
X13476286Y-15320814D01*
X13476286Y-15320814D02*
X13476286Y-15339862D01*
X13476286Y-15339862D02*
X13381048Y-15358909D01*
X13552476Y-15416052D02*
X13571524Y-15425576D01*
X13571524Y-15425576D02*
X13609619Y-15425576D01*
X13609619Y-15425576D02*
X13628667Y-15416052D01*
X13628667Y-15416052D02*
X13638191Y-15397005D01*
X13638191Y-15397005D02*
X13638191Y-15387481D01*
X13638191Y-15387481D02*
X13628667Y-15368433D01*
X13628667Y-15368433D02*
X13609619Y-15358909D01*
X13609619Y-15358909D02*
X13581048Y-15358909D01*
X13581048Y-15358909D02*
X13562000Y-15349386D01*
X13562000Y-15349386D02*
X13552476Y-15330338D01*
X13552476Y-15330338D02*
X13552476Y-15320814D01*
X13552476Y-15320814D02*
X13562000Y-15301767D01*
X13562000Y-15301767D02*
X13581048Y-15292243D01*
X13581048Y-15292243D02*
X13609619Y-15292243D01*
X13609619Y-15292243D02*
X13628667Y-15301767D01*
X13704857Y-15501767D02*
X13714381Y-15492243D01*
X13714381Y-15492243D02*
X13733429Y-15463671D01*
X13733429Y-15463671D02*
X13742953Y-15444624D01*
X13742953Y-15444624D02*
X13752476Y-15416052D01*
X13752476Y-15416052D02*
X13762000Y-15368433D01*
X13762000Y-15368433D02*
X13762000Y-15330338D01*
X13762000Y-15330338D02*
X13752476Y-15282719D01*
X13752476Y-15282719D02*
X13742953Y-15254148D01*
X13742953Y-15254148D02*
X13733429Y-15235100D01*
X13733429Y-15235100D02*
X13714381Y-15206528D01*
X13714381Y-15206528D02*
X13704857Y-15197005D01*
M02*
