%TF.GenerationSoftware,KiCad,Pcbnew,(7.0.0)*%
%TF.CreationDate,2023-08-22T13:37:15-04:00*%
%TF.ProjectId,Power Module Rev 5,506f7765-7220-44d6-9f64-756c65205265,rev?*%
%TF.SameCoordinates,Original*%
%TF.FileFunction,Drillmap*%
%TF.FilePolarity,Positive*%
%FSLAX45Y45*%
G04 Gerber Fmt 4.5, Leading zero omitted, Abs format (unit mm)*
G04 Created by KiCad (PCBNEW (7.0.0)) date 2023-08-22 13:37:15*
%MOMM*%
%LPD*%
G01*
G04 APERTURE LIST*
%ADD10C,0.160000*%
%ADD11C,0.200000*%
%ADD12C,0.060000*%
%ADD13C,0.099060*%
%ADD14C,0.340000*%
G04 APERTURE END LIST*
D10*
X16027400Y-12484100D02*
G75*
G03*
X16027400Y-12484100I-152400J0D01*
G01*
X16027400Y-5499100D02*
G75*
G03*
X16027400Y-5499100I-152400J0D01*
G01*
X9677400Y-5499100D02*
G75*
G03*
X9677400Y-5499100I-152400J0D01*
G01*
X9525000Y-4864100D02*
G75*
G03*
X8890000Y-5499100I0J-635000D01*
G01*
X9525000Y-4864100D02*
X15875000Y-4864100D01*
X9677400Y-12484100D02*
G75*
G03*
X9677400Y-12484100I-152400J0D01*
G01*
X15875000Y-13119100D02*
X9525000Y-13119100D01*
X16510000Y-5499100D02*
X16510000Y-12484100D01*
X8890000Y-12484100D02*
G75*
G03*
X9525000Y-13119100I635000J0D01*
G01*
X8890000Y-12484100D02*
X8890000Y-5499100D01*
X15875000Y-13119100D02*
G75*
G03*
X16510000Y-12484100I0J635000D01*
G01*
X16510000Y-5499100D02*
G75*
G03*
X15875000Y-4864100I-635000J0D01*
G01*
D11*
D12*
X10335460Y-5394700D02*
X10395460Y-5454700D01*
X10395460Y-5394700D02*
X10335460Y-5454700D01*
D11*
X10377960Y-5394700D02*
X10352960Y-5394700D01*
X10352960Y-5394700D02*
G75*
G03*
X10352960Y-5454700I0J-30000D01*
G01*
X10352960Y-5454700D02*
X10377960Y-5454700D01*
X10377960Y-5454700D02*
G75*
G03*
X10377960Y-5394700I0J30000D01*
G01*
D12*
X10935460Y-5394700D02*
X10995460Y-5454700D01*
X10995460Y-5394700D02*
X10935460Y-5454700D01*
D13*
X10191750Y-6469380D02*
G75*
G03*
X10191750Y-6469380I-49530J0D01*
G01*
X10293350Y-6977380D02*
G75*
G03*
X10293350Y-6977380I-49530J0D01*
G01*
X10394950Y-6469380D02*
G75*
G03*
X10394950Y-6469380I-49530J0D01*
G01*
D14*
X11075000Y-12593500D02*
X11075000Y-12933500D01*
X10905000Y-12763500D02*
X11245000Y-12763500D01*
X14325000Y-12593500D02*
X14325000Y-12933500D01*
X14155000Y-12763500D02*
X14495000Y-12763500D01*
D11*
X9129619Y-13420576D02*
X9129619Y-13220576D01*
X9129619Y-13220576D02*
X9177238Y-13220576D01*
X9177238Y-13220576D02*
X9205810Y-13230100D01*
X9205810Y-13230100D02*
X9224857Y-13249148D01*
X9224857Y-13249148D02*
X9234381Y-13268195D01*
X9234381Y-13268195D02*
X9243905Y-13306290D01*
X9243905Y-13306290D02*
X9243905Y-13334862D01*
X9243905Y-13334862D02*
X9234381Y-13372957D01*
X9234381Y-13372957D02*
X9224857Y-13392005D01*
X9224857Y-13392005D02*
X9205810Y-13411052D01*
X9205810Y-13411052D02*
X9177238Y-13420576D01*
X9177238Y-13420576D02*
X9129619Y-13420576D01*
X9329619Y-13420576D02*
X9329619Y-13287243D01*
X9329619Y-13325338D02*
X9339143Y-13306290D01*
X9339143Y-13306290D02*
X9348667Y-13296767D01*
X9348667Y-13296767D02*
X9367714Y-13287243D01*
X9367714Y-13287243D02*
X9386762Y-13287243D01*
X9453429Y-13420576D02*
X9453429Y-13287243D01*
X9453429Y-13220576D02*
X9443905Y-13230100D01*
X9443905Y-13230100D02*
X9453429Y-13239624D01*
X9453429Y-13239624D02*
X9462952Y-13230100D01*
X9462952Y-13230100D02*
X9453429Y-13220576D01*
X9453429Y-13220576D02*
X9453429Y-13239624D01*
X9577238Y-13420576D02*
X9558190Y-13411052D01*
X9558190Y-13411052D02*
X9548667Y-13392005D01*
X9548667Y-13392005D02*
X9548667Y-13220576D01*
X9682000Y-13420576D02*
X9662952Y-13411052D01*
X9662952Y-13411052D02*
X9653429Y-13392005D01*
X9653429Y-13392005D02*
X9653429Y-13220576D01*
X9878190Y-13420576D02*
X9878190Y-13220576D01*
X9878190Y-13220576D02*
X9944857Y-13363433D01*
X9944857Y-13363433D02*
X10011524Y-13220576D01*
X10011524Y-13220576D02*
X10011524Y-13420576D01*
X10192476Y-13420576D02*
X10192476Y-13315814D01*
X10192476Y-13315814D02*
X10182952Y-13296767D01*
X10182952Y-13296767D02*
X10163905Y-13287243D01*
X10163905Y-13287243D02*
X10125809Y-13287243D01*
X10125809Y-13287243D02*
X10106762Y-13296767D01*
X10192476Y-13411052D02*
X10173429Y-13420576D01*
X10173429Y-13420576D02*
X10125809Y-13420576D01*
X10125809Y-13420576D02*
X10106762Y-13411052D01*
X10106762Y-13411052D02*
X10097238Y-13392005D01*
X10097238Y-13392005D02*
X10097238Y-13372957D01*
X10097238Y-13372957D02*
X10106762Y-13353909D01*
X10106762Y-13353909D02*
X10125809Y-13344386D01*
X10125809Y-13344386D02*
X10173429Y-13344386D01*
X10173429Y-13344386D02*
X10192476Y-13334862D01*
X10287714Y-13287243D02*
X10287714Y-13487243D01*
X10287714Y-13296767D02*
X10306762Y-13287243D01*
X10306762Y-13287243D02*
X10344857Y-13287243D01*
X10344857Y-13287243D02*
X10363905Y-13296767D01*
X10363905Y-13296767D02*
X10373429Y-13306290D01*
X10373429Y-13306290D02*
X10382952Y-13325338D01*
X10382952Y-13325338D02*
X10382952Y-13382481D01*
X10382952Y-13382481D02*
X10373429Y-13401528D01*
X10373429Y-13401528D02*
X10363905Y-13411052D01*
X10363905Y-13411052D02*
X10344857Y-13420576D01*
X10344857Y-13420576D02*
X10306762Y-13420576D01*
X10306762Y-13420576D02*
X10287714Y-13411052D01*
X10468667Y-13401528D02*
X10478190Y-13411052D01*
X10478190Y-13411052D02*
X10468667Y-13420576D01*
X10468667Y-13420576D02*
X10459143Y-13411052D01*
X10459143Y-13411052D02*
X10468667Y-13401528D01*
X10468667Y-13401528D02*
X10468667Y-13420576D01*
X10468667Y-13296767D02*
X10478190Y-13306290D01*
X10478190Y-13306290D02*
X10468667Y-13315814D01*
X10468667Y-13315814D02*
X10459143Y-13306290D01*
X10459143Y-13306290D02*
X10468667Y-13296767D01*
X10468667Y-13296767D02*
X10468667Y-13315814D01*
D12*
X8822000Y-13737100D02*
X8882000Y-13797100D01*
X8882000Y-13737100D02*
X8822000Y-13797100D01*
D11*
X9167714Y-13640576D02*
X9186762Y-13640576D01*
X9186762Y-13640576D02*
X9205810Y-13650100D01*
X9205810Y-13650100D02*
X9215333Y-13659624D01*
X9215333Y-13659624D02*
X9224857Y-13678671D01*
X9224857Y-13678671D02*
X9234381Y-13716767D01*
X9234381Y-13716767D02*
X9234381Y-13764386D01*
X9234381Y-13764386D02*
X9224857Y-13802481D01*
X9224857Y-13802481D02*
X9215333Y-13821528D01*
X9215333Y-13821528D02*
X9205810Y-13831052D01*
X9205810Y-13831052D02*
X9186762Y-13840576D01*
X9186762Y-13840576D02*
X9167714Y-13840576D01*
X9167714Y-13840576D02*
X9148667Y-13831052D01*
X9148667Y-13831052D02*
X9139143Y-13821528D01*
X9139143Y-13821528D02*
X9129619Y-13802481D01*
X9129619Y-13802481D02*
X9120095Y-13764386D01*
X9120095Y-13764386D02*
X9120095Y-13716767D01*
X9120095Y-13716767D02*
X9129619Y-13678671D01*
X9129619Y-13678671D02*
X9139143Y-13659624D01*
X9139143Y-13659624D02*
X9148667Y-13650100D01*
X9148667Y-13650100D02*
X9167714Y-13640576D01*
X9320095Y-13821528D02*
X9329619Y-13831052D01*
X9329619Y-13831052D02*
X9320095Y-13840576D01*
X9320095Y-13840576D02*
X9310571Y-13831052D01*
X9310571Y-13831052D02*
X9320095Y-13821528D01*
X9320095Y-13821528D02*
X9320095Y-13840576D01*
X9501048Y-13640576D02*
X9462952Y-13640576D01*
X9462952Y-13640576D02*
X9443905Y-13650100D01*
X9443905Y-13650100D02*
X9434381Y-13659624D01*
X9434381Y-13659624D02*
X9415333Y-13688195D01*
X9415333Y-13688195D02*
X9405810Y-13726290D01*
X9405810Y-13726290D02*
X9405810Y-13802481D01*
X9405810Y-13802481D02*
X9415333Y-13821528D01*
X9415333Y-13821528D02*
X9424857Y-13831052D01*
X9424857Y-13831052D02*
X9443905Y-13840576D01*
X9443905Y-13840576D02*
X9482000Y-13840576D01*
X9482000Y-13840576D02*
X9501048Y-13831052D01*
X9501048Y-13831052D02*
X9510571Y-13821528D01*
X9510571Y-13821528D02*
X9520095Y-13802481D01*
X9520095Y-13802481D02*
X9520095Y-13754862D01*
X9520095Y-13754862D02*
X9510571Y-13735814D01*
X9510571Y-13735814D02*
X9501048Y-13726290D01*
X9501048Y-13726290D02*
X9482000Y-13716767D01*
X9482000Y-13716767D02*
X9443905Y-13716767D01*
X9443905Y-13716767D02*
X9424857Y-13726290D01*
X9424857Y-13726290D02*
X9415333Y-13735814D01*
X9415333Y-13735814D02*
X9405810Y-13754862D01*
X9643905Y-13640576D02*
X9662952Y-13640576D01*
X9662952Y-13640576D02*
X9682000Y-13650100D01*
X9682000Y-13650100D02*
X9691524Y-13659624D01*
X9691524Y-13659624D02*
X9701048Y-13678671D01*
X9701048Y-13678671D02*
X9710571Y-13716767D01*
X9710571Y-13716767D02*
X9710571Y-13764386D01*
X9710571Y-13764386D02*
X9701048Y-13802481D01*
X9701048Y-13802481D02*
X9691524Y-13821528D01*
X9691524Y-13821528D02*
X9682000Y-13831052D01*
X9682000Y-13831052D02*
X9662952Y-13840576D01*
X9662952Y-13840576D02*
X9643905Y-13840576D01*
X9643905Y-13840576D02*
X9624857Y-13831052D01*
X9624857Y-13831052D02*
X9615333Y-13821528D01*
X9615333Y-13821528D02*
X9605810Y-13802481D01*
X9605810Y-13802481D02*
X9596286Y-13764386D01*
X9596286Y-13764386D02*
X9596286Y-13716767D01*
X9596286Y-13716767D02*
X9605810Y-13678671D01*
X9605810Y-13678671D02*
X9615333Y-13659624D01*
X9615333Y-13659624D02*
X9624857Y-13650100D01*
X9624857Y-13650100D02*
X9643905Y-13640576D01*
X9834381Y-13640576D02*
X9853429Y-13640576D01*
X9853429Y-13640576D02*
X9872476Y-13650100D01*
X9872476Y-13650100D02*
X9882000Y-13659624D01*
X9882000Y-13659624D02*
X9891524Y-13678671D01*
X9891524Y-13678671D02*
X9901048Y-13716767D01*
X9901048Y-13716767D02*
X9901048Y-13764386D01*
X9901048Y-13764386D02*
X9891524Y-13802481D01*
X9891524Y-13802481D02*
X9882000Y-13821528D01*
X9882000Y-13821528D02*
X9872476Y-13831052D01*
X9872476Y-13831052D02*
X9853429Y-13840576D01*
X9853429Y-13840576D02*
X9834381Y-13840576D01*
X9834381Y-13840576D02*
X9815333Y-13831052D01*
X9815333Y-13831052D02*
X9805810Y-13821528D01*
X9805810Y-13821528D02*
X9796286Y-13802481D01*
X9796286Y-13802481D02*
X9786762Y-13764386D01*
X9786762Y-13764386D02*
X9786762Y-13716767D01*
X9786762Y-13716767D02*
X9796286Y-13678671D01*
X9796286Y-13678671D02*
X9805810Y-13659624D01*
X9805810Y-13659624D02*
X9815333Y-13650100D01*
X9815333Y-13650100D02*
X9834381Y-13640576D01*
X9986762Y-13840576D02*
X9986762Y-13707243D01*
X9986762Y-13726290D02*
X9996286Y-13716767D01*
X9996286Y-13716767D02*
X10015333Y-13707243D01*
X10015333Y-13707243D02*
X10043905Y-13707243D01*
X10043905Y-13707243D02*
X10062952Y-13716767D01*
X10062952Y-13716767D02*
X10072476Y-13735814D01*
X10072476Y-13735814D02*
X10072476Y-13840576D01*
X10072476Y-13735814D02*
X10082000Y-13716767D01*
X10082000Y-13716767D02*
X10101048Y-13707243D01*
X10101048Y-13707243D02*
X10129619Y-13707243D01*
X10129619Y-13707243D02*
X10148667Y-13716767D01*
X10148667Y-13716767D02*
X10158191Y-13735814D01*
X10158191Y-13735814D02*
X10158191Y-13840576D01*
X10253429Y-13840576D02*
X10253429Y-13707243D01*
X10253429Y-13726290D02*
X10262952Y-13716767D01*
X10262952Y-13716767D02*
X10282000Y-13707243D01*
X10282000Y-13707243D02*
X10310572Y-13707243D01*
X10310572Y-13707243D02*
X10329619Y-13716767D01*
X10329619Y-13716767D02*
X10339143Y-13735814D01*
X10339143Y-13735814D02*
X10339143Y-13840576D01*
X10339143Y-13735814D02*
X10348667Y-13716767D01*
X10348667Y-13716767D02*
X10367714Y-13707243D01*
X10367714Y-13707243D02*
X10396286Y-13707243D01*
X10396286Y-13707243D02*
X10415333Y-13716767D01*
X10415333Y-13716767D02*
X10424857Y-13735814D01*
X10424857Y-13735814D02*
X10424857Y-13840576D01*
X10782952Y-13631052D02*
X10611524Y-13888195D01*
X11007714Y-13640576D02*
X11026762Y-13640576D01*
X11026762Y-13640576D02*
X11045810Y-13650100D01*
X11045810Y-13650100D02*
X11055333Y-13659624D01*
X11055333Y-13659624D02*
X11064857Y-13678671D01*
X11064857Y-13678671D02*
X11074381Y-13716767D01*
X11074381Y-13716767D02*
X11074381Y-13764386D01*
X11074381Y-13764386D02*
X11064857Y-13802481D01*
X11064857Y-13802481D02*
X11055333Y-13821528D01*
X11055333Y-13821528D02*
X11045810Y-13831052D01*
X11045810Y-13831052D02*
X11026762Y-13840576D01*
X11026762Y-13840576D02*
X11007714Y-13840576D01*
X11007714Y-13840576D02*
X10988667Y-13831052D01*
X10988667Y-13831052D02*
X10979143Y-13821528D01*
X10979143Y-13821528D02*
X10969619Y-13802481D01*
X10969619Y-13802481D02*
X10960095Y-13764386D01*
X10960095Y-13764386D02*
X10960095Y-13716767D01*
X10960095Y-13716767D02*
X10969619Y-13678671D01*
X10969619Y-13678671D02*
X10979143Y-13659624D01*
X10979143Y-13659624D02*
X10988667Y-13650100D01*
X10988667Y-13650100D02*
X11007714Y-13640576D01*
X11160095Y-13821528D02*
X11169619Y-13831052D01*
X11169619Y-13831052D02*
X11160095Y-13840576D01*
X11160095Y-13840576D02*
X11150572Y-13831052D01*
X11150572Y-13831052D02*
X11160095Y-13821528D01*
X11160095Y-13821528D02*
X11160095Y-13840576D01*
X11293429Y-13640576D02*
X11312476Y-13640576D01*
X11312476Y-13640576D02*
X11331524Y-13650100D01*
X11331524Y-13650100D02*
X11341048Y-13659624D01*
X11341048Y-13659624D02*
X11350571Y-13678671D01*
X11350571Y-13678671D02*
X11360095Y-13716767D01*
X11360095Y-13716767D02*
X11360095Y-13764386D01*
X11360095Y-13764386D02*
X11350571Y-13802481D01*
X11350571Y-13802481D02*
X11341048Y-13821528D01*
X11341048Y-13821528D02*
X11331524Y-13831052D01*
X11331524Y-13831052D02*
X11312476Y-13840576D01*
X11312476Y-13840576D02*
X11293429Y-13840576D01*
X11293429Y-13840576D02*
X11274381Y-13831052D01*
X11274381Y-13831052D02*
X11264857Y-13821528D01*
X11264857Y-13821528D02*
X11255333Y-13802481D01*
X11255333Y-13802481D02*
X11245810Y-13764386D01*
X11245810Y-13764386D02*
X11245810Y-13716767D01*
X11245810Y-13716767D02*
X11255333Y-13678671D01*
X11255333Y-13678671D02*
X11264857Y-13659624D01*
X11264857Y-13659624D02*
X11274381Y-13650100D01*
X11274381Y-13650100D02*
X11293429Y-13640576D01*
X11436286Y-13659624D02*
X11445810Y-13650100D01*
X11445810Y-13650100D02*
X11464857Y-13640576D01*
X11464857Y-13640576D02*
X11512476Y-13640576D01*
X11512476Y-13640576D02*
X11531524Y-13650100D01*
X11531524Y-13650100D02*
X11541048Y-13659624D01*
X11541048Y-13659624D02*
X11550571Y-13678671D01*
X11550571Y-13678671D02*
X11550571Y-13697719D01*
X11550571Y-13697719D02*
X11541048Y-13726290D01*
X11541048Y-13726290D02*
X11426762Y-13840576D01*
X11426762Y-13840576D02*
X11550571Y-13840576D01*
X11617238Y-13640576D02*
X11741048Y-13640576D01*
X11741048Y-13640576D02*
X11674381Y-13716767D01*
X11674381Y-13716767D02*
X11702952Y-13716767D01*
X11702952Y-13716767D02*
X11722000Y-13726290D01*
X11722000Y-13726290D02*
X11731524Y-13735814D01*
X11731524Y-13735814D02*
X11741048Y-13754862D01*
X11741048Y-13754862D02*
X11741048Y-13802481D01*
X11741048Y-13802481D02*
X11731524Y-13821528D01*
X11731524Y-13821528D02*
X11722000Y-13831052D01*
X11722000Y-13831052D02*
X11702952Y-13840576D01*
X11702952Y-13840576D02*
X11645810Y-13840576D01*
X11645810Y-13840576D02*
X11626762Y-13831052D01*
X11626762Y-13831052D02*
X11617238Y-13821528D01*
X11912476Y-13640576D02*
X11874381Y-13640576D01*
X11874381Y-13640576D02*
X11855333Y-13650100D01*
X11855333Y-13650100D02*
X11845810Y-13659624D01*
X11845810Y-13659624D02*
X11826762Y-13688195D01*
X11826762Y-13688195D02*
X11817238Y-13726290D01*
X11817238Y-13726290D02*
X11817238Y-13802481D01*
X11817238Y-13802481D02*
X11826762Y-13821528D01*
X11826762Y-13821528D02*
X11836286Y-13831052D01*
X11836286Y-13831052D02*
X11855333Y-13840576D01*
X11855333Y-13840576D02*
X11893429Y-13840576D01*
X11893429Y-13840576D02*
X11912476Y-13831052D01*
X11912476Y-13831052D02*
X11922000Y-13821528D01*
X11922000Y-13821528D02*
X11931524Y-13802481D01*
X11931524Y-13802481D02*
X11931524Y-13754862D01*
X11931524Y-13754862D02*
X11922000Y-13735814D01*
X11922000Y-13735814D02*
X11912476Y-13726290D01*
X11912476Y-13726290D02*
X11893429Y-13716767D01*
X11893429Y-13716767D02*
X11855333Y-13716767D01*
X11855333Y-13716767D02*
X11836286Y-13726290D01*
X11836286Y-13726290D02*
X11826762Y-13735814D01*
X11826762Y-13735814D02*
X11817238Y-13754862D01*
X12007714Y-13640576D02*
X12007714Y-13678671D01*
X12083905Y-13640576D02*
X12083905Y-13678671D01*
X12346762Y-13916767D02*
X12337238Y-13907243D01*
X12337238Y-13907243D02*
X12318191Y-13878671D01*
X12318191Y-13878671D02*
X12308667Y-13859624D01*
X12308667Y-13859624D02*
X12299143Y-13831052D01*
X12299143Y-13831052D02*
X12289619Y-13783433D01*
X12289619Y-13783433D02*
X12289619Y-13745338D01*
X12289619Y-13745338D02*
X12299143Y-13697719D01*
X12299143Y-13697719D02*
X12308667Y-13669148D01*
X12308667Y-13669148D02*
X12318191Y-13650100D01*
X12318191Y-13650100D02*
X12337238Y-13621528D01*
X12337238Y-13621528D02*
X12346762Y-13612005D01*
X12527714Y-13840576D02*
X12413429Y-13840576D01*
X12470571Y-13840576D02*
X12470571Y-13640576D01*
X12470571Y-13640576D02*
X12451524Y-13669148D01*
X12451524Y-13669148D02*
X12432476Y-13688195D01*
X12432476Y-13688195D02*
X12413429Y-13697719D01*
X12733429Y-13840576D02*
X12733429Y-13640576D01*
X12819143Y-13840576D02*
X12819143Y-13735814D01*
X12819143Y-13735814D02*
X12809619Y-13716767D01*
X12809619Y-13716767D02*
X12790572Y-13707243D01*
X12790572Y-13707243D02*
X12762000Y-13707243D01*
X12762000Y-13707243D02*
X12742952Y-13716767D01*
X12742952Y-13716767D02*
X12733429Y-13726290D01*
X12942952Y-13840576D02*
X12923905Y-13831052D01*
X12923905Y-13831052D02*
X12914381Y-13821528D01*
X12914381Y-13821528D02*
X12904857Y-13802481D01*
X12904857Y-13802481D02*
X12904857Y-13745338D01*
X12904857Y-13745338D02*
X12914381Y-13726290D01*
X12914381Y-13726290D02*
X12923905Y-13716767D01*
X12923905Y-13716767D02*
X12942952Y-13707243D01*
X12942952Y-13707243D02*
X12971524Y-13707243D01*
X12971524Y-13707243D02*
X12990572Y-13716767D01*
X12990572Y-13716767D02*
X13000095Y-13726290D01*
X13000095Y-13726290D02*
X13009619Y-13745338D01*
X13009619Y-13745338D02*
X13009619Y-13802481D01*
X13009619Y-13802481D02*
X13000095Y-13821528D01*
X13000095Y-13821528D02*
X12990572Y-13831052D01*
X12990572Y-13831052D02*
X12971524Y-13840576D01*
X12971524Y-13840576D02*
X12942952Y-13840576D01*
X13123905Y-13840576D02*
X13104857Y-13831052D01*
X13104857Y-13831052D02*
X13095333Y-13812005D01*
X13095333Y-13812005D02*
X13095333Y-13640576D01*
X13276286Y-13831052D02*
X13257238Y-13840576D01*
X13257238Y-13840576D02*
X13219143Y-13840576D01*
X13219143Y-13840576D02*
X13200095Y-13831052D01*
X13200095Y-13831052D02*
X13190572Y-13812005D01*
X13190572Y-13812005D02*
X13190572Y-13735814D01*
X13190572Y-13735814D02*
X13200095Y-13716767D01*
X13200095Y-13716767D02*
X13219143Y-13707243D01*
X13219143Y-13707243D02*
X13257238Y-13707243D01*
X13257238Y-13707243D02*
X13276286Y-13716767D01*
X13276286Y-13716767D02*
X13285810Y-13735814D01*
X13285810Y-13735814D02*
X13285810Y-13754862D01*
X13285810Y-13754862D02*
X13190572Y-13773909D01*
X13362000Y-13831052D02*
X13381048Y-13840576D01*
X13381048Y-13840576D02*
X13419143Y-13840576D01*
X13419143Y-13840576D02*
X13438191Y-13831052D01*
X13438191Y-13831052D02*
X13447714Y-13812005D01*
X13447714Y-13812005D02*
X13447714Y-13802481D01*
X13447714Y-13802481D02*
X13438191Y-13783433D01*
X13438191Y-13783433D02*
X13419143Y-13773909D01*
X13419143Y-13773909D02*
X13390572Y-13773909D01*
X13390572Y-13773909D02*
X13371524Y-13764386D01*
X13371524Y-13764386D02*
X13362000Y-13745338D01*
X13362000Y-13745338D02*
X13362000Y-13735814D01*
X13362000Y-13735814D02*
X13371524Y-13716767D01*
X13371524Y-13716767D02*
X13390572Y-13707243D01*
X13390572Y-13707243D02*
X13419143Y-13707243D01*
X13419143Y-13707243D02*
X13438191Y-13716767D01*
X13653429Y-13764386D02*
X13805810Y-13764386D01*
X13729619Y-13840576D02*
X13729619Y-13688195D01*
X14125810Y-13840576D02*
X14011524Y-13840576D01*
X14068667Y-13840576D02*
X14068667Y-13640576D01*
X14068667Y-13640576D02*
X14049619Y-13669148D01*
X14049619Y-13669148D02*
X14030572Y-13688195D01*
X14030572Y-13688195D02*
X14011524Y-13697719D01*
X14322000Y-13831052D02*
X14341048Y-13840576D01*
X14341048Y-13840576D02*
X14379143Y-13840576D01*
X14379143Y-13840576D02*
X14398191Y-13831052D01*
X14398191Y-13831052D02*
X14407714Y-13812005D01*
X14407714Y-13812005D02*
X14407714Y-13802481D01*
X14407714Y-13802481D02*
X14398191Y-13783433D01*
X14398191Y-13783433D02*
X14379143Y-13773909D01*
X14379143Y-13773909D02*
X14350572Y-13773909D01*
X14350572Y-13773909D02*
X14331524Y-13764386D01*
X14331524Y-13764386D02*
X14322000Y-13745338D01*
X14322000Y-13745338D02*
X14322000Y-13735814D01*
X14322000Y-13735814D02*
X14331524Y-13716767D01*
X14331524Y-13716767D02*
X14350572Y-13707243D01*
X14350572Y-13707243D02*
X14379143Y-13707243D01*
X14379143Y-13707243D02*
X14398191Y-13716767D01*
X14522000Y-13840576D02*
X14502953Y-13831052D01*
X14502953Y-13831052D02*
X14493429Y-13812005D01*
X14493429Y-13812005D02*
X14493429Y-13640576D01*
X14626762Y-13840576D02*
X14607714Y-13831052D01*
X14607714Y-13831052D02*
X14598191Y-13821528D01*
X14598191Y-13821528D02*
X14588667Y-13802481D01*
X14588667Y-13802481D02*
X14588667Y-13745338D01*
X14588667Y-13745338D02*
X14598191Y-13726290D01*
X14598191Y-13726290D02*
X14607714Y-13716767D01*
X14607714Y-13716767D02*
X14626762Y-13707243D01*
X14626762Y-13707243D02*
X14655334Y-13707243D01*
X14655334Y-13707243D02*
X14674381Y-13716767D01*
X14674381Y-13716767D02*
X14683905Y-13726290D01*
X14683905Y-13726290D02*
X14693429Y-13745338D01*
X14693429Y-13745338D02*
X14693429Y-13802481D01*
X14693429Y-13802481D02*
X14683905Y-13821528D01*
X14683905Y-13821528D02*
X14674381Y-13831052D01*
X14674381Y-13831052D02*
X14655334Y-13840576D01*
X14655334Y-13840576D02*
X14626762Y-13840576D01*
X14750572Y-13707243D02*
X14826762Y-13707243D01*
X14779143Y-13640576D02*
X14779143Y-13812005D01*
X14779143Y-13812005D02*
X14788667Y-13831052D01*
X14788667Y-13831052D02*
X14807714Y-13840576D01*
X14807714Y-13840576D02*
X14826762Y-13840576D01*
X14874381Y-13916767D02*
X14883905Y-13907243D01*
X14883905Y-13907243D02*
X14902953Y-13878671D01*
X14902953Y-13878671D02*
X14912476Y-13859624D01*
X14912476Y-13859624D02*
X14922000Y-13831052D01*
X14922000Y-13831052D02*
X14931524Y-13783433D01*
X14931524Y-13783433D02*
X14931524Y-13745338D01*
X14931524Y-13745338D02*
X14922000Y-13697719D01*
X14922000Y-13697719D02*
X14912476Y-13669148D01*
X14912476Y-13669148D02*
X14902953Y-13650100D01*
X14902953Y-13650100D02*
X14883905Y-13621528D01*
X14883905Y-13621528D02*
X14874381Y-13612005D01*
X15203905Y-13916767D02*
X15194381Y-13907243D01*
X15194381Y-13907243D02*
X15175333Y-13878671D01*
X15175333Y-13878671D02*
X15165810Y-13859624D01*
X15165810Y-13859624D02*
X15156286Y-13831052D01*
X15156286Y-13831052D02*
X15146762Y-13783433D01*
X15146762Y-13783433D02*
X15146762Y-13745338D01*
X15146762Y-13745338D02*
X15156286Y-13697719D01*
X15156286Y-13697719D02*
X15165810Y-13669148D01*
X15165810Y-13669148D02*
X15175333Y-13650100D01*
X15175333Y-13650100D02*
X15194381Y-13621528D01*
X15194381Y-13621528D02*
X15203905Y-13612005D01*
X15280095Y-13707243D02*
X15280095Y-13840576D01*
X15280095Y-13726290D02*
X15289619Y-13716767D01*
X15289619Y-13716767D02*
X15308667Y-13707243D01*
X15308667Y-13707243D02*
X15337238Y-13707243D01*
X15337238Y-13707243D02*
X15356286Y-13716767D01*
X15356286Y-13716767D02*
X15365810Y-13735814D01*
X15365810Y-13735814D02*
X15365810Y-13840576D01*
X15489619Y-13840576D02*
X15470572Y-13831052D01*
X15470572Y-13831052D02*
X15461048Y-13821528D01*
X15461048Y-13821528D02*
X15451524Y-13802481D01*
X15451524Y-13802481D02*
X15451524Y-13745338D01*
X15451524Y-13745338D02*
X15461048Y-13726290D01*
X15461048Y-13726290D02*
X15470572Y-13716767D01*
X15470572Y-13716767D02*
X15489619Y-13707243D01*
X15489619Y-13707243D02*
X15518191Y-13707243D01*
X15518191Y-13707243D02*
X15537238Y-13716767D01*
X15537238Y-13716767D02*
X15546762Y-13726290D01*
X15546762Y-13726290D02*
X15556286Y-13745338D01*
X15556286Y-13745338D02*
X15556286Y-13802481D01*
X15556286Y-13802481D02*
X15546762Y-13821528D01*
X15546762Y-13821528D02*
X15537238Y-13831052D01*
X15537238Y-13831052D02*
X15518191Y-13840576D01*
X15518191Y-13840576D02*
X15489619Y-13840576D01*
X15613429Y-13707243D02*
X15689619Y-13707243D01*
X15642000Y-13640576D02*
X15642000Y-13812005D01*
X15642000Y-13812005D02*
X15651524Y-13831052D01*
X15651524Y-13831052D02*
X15670572Y-13840576D01*
X15670572Y-13840576D02*
X15689619Y-13840576D01*
X15876286Y-13707243D02*
X15876286Y-13907243D01*
X15876286Y-13716767D02*
X15895333Y-13707243D01*
X15895333Y-13707243D02*
X15933429Y-13707243D01*
X15933429Y-13707243D02*
X15952476Y-13716767D01*
X15952476Y-13716767D02*
X15962000Y-13726290D01*
X15962000Y-13726290D02*
X15971524Y-13745338D01*
X15971524Y-13745338D02*
X15971524Y-13802481D01*
X15971524Y-13802481D02*
X15962000Y-13821528D01*
X15962000Y-13821528D02*
X15952476Y-13831052D01*
X15952476Y-13831052D02*
X15933429Y-13840576D01*
X15933429Y-13840576D02*
X15895333Y-13840576D01*
X15895333Y-13840576D02*
X15876286Y-13831052D01*
X16085810Y-13840576D02*
X16066762Y-13831052D01*
X16066762Y-13831052D02*
X16057238Y-13812005D01*
X16057238Y-13812005D02*
X16057238Y-13640576D01*
X16247714Y-13840576D02*
X16247714Y-13735814D01*
X16247714Y-13735814D02*
X16238191Y-13716767D01*
X16238191Y-13716767D02*
X16219143Y-13707243D01*
X16219143Y-13707243D02*
X16181048Y-13707243D01*
X16181048Y-13707243D02*
X16162000Y-13716767D01*
X16247714Y-13831052D02*
X16228667Y-13840576D01*
X16228667Y-13840576D02*
X16181048Y-13840576D01*
X16181048Y-13840576D02*
X16162000Y-13831052D01*
X16162000Y-13831052D02*
X16152476Y-13812005D01*
X16152476Y-13812005D02*
X16152476Y-13792957D01*
X16152476Y-13792957D02*
X16162000Y-13773909D01*
X16162000Y-13773909D02*
X16181048Y-13764386D01*
X16181048Y-13764386D02*
X16228667Y-13764386D01*
X16228667Y-13764386D02*
X16247714Y-13754862D01*
X16314381Y-13707243D02*
X16390572Y-13707243D01*
X16342953Y-13640576D02*
X16342953Y-13812005D01*
X16342953Y-13812005D02*
X16352476Y-13831052D01*
X16352476Y-13831052D02*
X16371524Y-13840576D01*
X16371524Y-13840576D02*
X16390572Y-13840576D01*
X16533429Y-13831052D02*
X16514381Y-13840576D01*
X16514381Y-13840576D02*
X16476286Y-13840576D01*
X16476286Y-13840576D02*
X16457238Y-13831052D01*
X16457238Y-13831052D02*
X16447714Y-13812005D01*
X16447714Y-13812005D02*
X16447714Y-13735814D01*
X16447714Y-13735814D02*
X16457238Y-13716767D01*
X16457238Y-13716767D02*
X16476286Y-13707243D01*
X16476286Y-13707243D02*
X16514381Y-13707243D01*
X16514381Y-13707243D02*
X16533429Y-13716767D01*
X16533429Y-13716767D02*
X16542953Y-13735814D01*
X16542953Y-13735814D02*
X16542953Y-13754862D01*
X16542953Y-13754862D02*
X16447714Y-13773909D01*
X16714381Y-13840576D02*
X16714381Y-13640576D01*
X16714381Y-13831052D02*
X16695334Y-13840576D01*
X16695334Y-13840576D02*
X16657238Y-13840576D01*
X16657238Y-13840576D02*
X16638191Y-13831052D01*
X16638191Y-13831052D02*
X16628667Y-13821528D01*
X16628667Y-13821528D02*
X16619143Y-13802481D01*
X16619143Y-13802481D02*
X16619143Y-13745338D01*
X16619143Y-13745338D02*
X16628667Y-13726290D01*
X16628667Y-13726290D02*
X16638191Y-13716767D01*
X16638191Y-13716767D02*
X16657238Y-13707243D01*
X16657238Y-13707243D02*
X16695334Y-13707243D01*
X16695334Y-13707243D02*
X16714381Y-13716767D01*
X16790572Y-13916767D02*
X16800096Y-13907243D01*
X16800096Y-13907243D02*
X16819143Y-13878671D01*
X16819143Y-13878671D02*
X16828667Y-13859624D01*
X16828667Y-13859624D02*
X16838191Y-13831052D01*
X16838191Y-13831052D02*
X16847715Y-13783433D01*
X16847715Y-13783433D02*
X16847715Y-13745338D01*
X16847715Y-13745338D02*
X16838191Y-13697719D01*
X16838191Y-13697719D02*
X16828667Y-13669148D01*
X16828667Y-13669148D02*
X16819143Y-13650100D01*
X16819143Y-13650100D02*
X16800096Y-13621528D01*
X16800096Y-13621528D02*
X16790572Y-13612005D01*
D13*
X8882000Y-14031100D02*
G75*
G03*
X8882000Y-14031100I-49530J0D01*
G01*
D11*
X9167714Y-13904576D02*
X9186762Y-13904576D01*
X9186762Y-13904576D02*
X9205810Y-13914100D01*
X9205810Y-13914100D02*
X9215333Y-13923624D01*
X9215333Y-13923624D02*
X9224857Y-13942671D01*
X9224857Y-13942671D02*
X9234381Y-13980767D01*
X9234381Y-13980767D02*
X9234381Y-14028386D01*
X9234381Y-14028386D02*
X9224857Y-14066481D01*
X9224857Y-14066481D02*
X9215333Y-14085528D01*
X9215333Y-14085528D02*
X9205810Y-14095052D01*
X9205810Y-14095052D02*
X9186762Y-14104576D01*
X9186762Y-14104576D02*
X9167714Y-14104576D01*
X9167714Y-14104576D02*
X9148667Y-14095052D01*
X9148667Y-14095052D02*
X9139143Y-14085528D01*
X9139143Y-14085528D02*
X9129619Y-14066481D01*
X9129619Y-14066481D02*
X9120095Y-14028386D01*
X9120095Y-14028386D02*
X9120095Y-13980767D01*
X9120095Y-13980767D02*
X9129619Y-13942671D01*
X9129619Y-13942671D02*
X9139143Y-13923624D01*
X9139143Y-13923624D02*
X9148667Y-13914100D01*
X9148667Y-13914100D02*
X9167714Y-13904576D01*
X9320095Y-14085528D02*
X9329619Y-14095052D01*
X9329619Y-14095052D02*
X9320095Y-14104576D01*
X9320095Y-14104576D02*
X9310571Y-14095052D01*
X9310571Y-14095052D02*
X9320095Y-14085528D01*
X9320095Y-14085528D02*
X9320095Y-14104576D01*
X9424857Y-14104576D02*
X9462952Y-14104576D01*
X9462952Y-14104576D02*
X9482000Y-14095052D01*
X9482000Y-14095052D02*
X9491524Y-14085528D01*
X9491524Y-14085528D02*
X9510571Y-14056957D01*
X9510571Y-14056957D02*
X9520095Y-14018862D01*
X9520095Y-14018862D02*
X9520095Y-13942671D01*
X9520095Y-13942671D02*
X9510571Y-13923624D01*
X9510571Y-13923624D02*
X9501048Y-13914100D01*
X9501048Y-13914100D02*
X9482000Y-13904576D01*
X9482000Y-13904576D02*
X9443905Y-13904576D01*
X9443905Y-13904576D02*
X9424857Y-13914100D01*
X9424857Y-13914100D02*
X9415333Y-13923624D01*
X9415333Y-13923624D02*
X9405810Y-13942671D01*
X9405810Y-13942671D02*
X9405810Y-13990290D01*
X9405810Y-13990290D02*
X9415333Y-14009338D01*
X9415333Y-14009338D02*
X9424857Y-14018862D01*
X9424857Y-14018862D02*
X9443905Y-14028386D01*
X9443905Y-14028386D02*
X9482000Y-14028386D01*
X9482000Y-14028386D02*
X9501048Y-14018862D01*
X9501048Y-14018862D02*
X9510571Y-14009338D01*
X9510571Y-14009338D02*
X9520095Y-13990290D01*
X9615333Y-14104576D02*
X9653429Y-14104576D01*
X9653429Y-14104576D02*
X9672476Y-14095052D01*
X9672476Y-14095052D02*
X9682000Y-14085528D01*
X9682000Y-14085528D02*
X9701048Y-14056957D01*
X9701048Y-14056957D02*
X9710571Y-14018862D01*
X9710571Y-14018862D02*
X9710571Y-13942671D01*
X9710571Y-13942671D02*
X9701048Y-13923624D01*
X9701048Y-13923624D02*
X9691524Y-13914100D01*
X9691524Y-13914100D02*
X9672476Y-13904576D01*
X9672476Y-13904576D02*
X9634381Y-13904576D01*
X9634381Y-13904576D02*
X9615333Y-13914100D01*
X9615333Y-13914100D02*
X9605810Y-13923624D01*
X9605810Y-13923624D02*
X9596286Y-13942671D01*
X9596286Y-13942671D02*
X9596286Y-13990290D01*
X9596286Y-13990290D02*
X9605810Y-14009338D01*
X9605810Y-14009338D02*
X9615333Y-14018862D01*
X9615333Y-14018862D02*
X9634381Y-14028386D01*
X9634381Y-14028386D02*
X9672476Y-14028386D01*
X9672476Y-14028386D02*
X9691524Y-14018862D01*
X9691524Y-14018862D02*
X9701048Y-14009338D01*
X9701048Y-14009338D02*
X9710571Y-13990290D01*
X9901048Y-14104576D02*
X9786762Y-14104576D01*
X9843905Y-14104576D02*
X9843905Y-13904576D01*
X9843905Y-13904576D02*
X9824857Y-13933148D01*
X9824857Y-13933148D02*
X9805810Y-13952195D01*
X9805810Y-13952195D02*
X9786762Y-13961719D01*
X9986762Y-14104576D02*
X9986762Y-13971243D01*
X9986762Y-13990290D02*
X9996286Y-13980767D01*
X9996286Y-13980767D02*
X10015333Y-13971243D01*
X10015333Y-13971243D02*
X10043905Y-13971243D01*
X10043905Y-13971243D02*
X10062952Y-13980767D01*
X10062952Y-13980767D02*
X10072476Y-13999814D01*
X10072476Y-13999814D02*
X10072476Y-14104576D01*
X10072476Y-13999814D02*
X10082000Y-13980767D01*
X10082000Y-13980767D02*
X10101048Y-13971243D01*
X10101048Y-13971243D02*
X10129619Y-13971243D01*
X10129619Y-13971243D02*
X10148667Y-13980767D01*
X10148667Y-13980767D02*
X10158191Y-13999814D01*
X10158191Y-13999814D02*
X10158191Y-14104576D01*
X10253429Y-14104576D02*
X10253429Y-13971243D01*
X10253429Y-13990290D02*
X10262952Y-13980767D01*
X10262952Y-13980767D02*
X10282000Y-13971243D01*
X10282000Y-13971243D02*
X10310572Y-13971243D01*
X10310572Y-13971243D02*
X10329619Y-13980767D01*
X10329619Y-13980767D02*
X10339143Y-13999814D01*
X10339143Y-13999814D02*
X10339143Y-14104576D01*
X10339143Y-13999814D02*
X10348667Y-13980767D01*
X10348667Y-13980767D02*
X10367714Y-13971243D01*
X10367714Y-13971243D02*
X10396286Y-13971243D01*
X10396286Y-13971243D02*
X10415333Y-13980767D01*
X10415333Y-13980767D02*
X10424857Y-13999814D01*
X10424857Y-13999814D02*
X10424857Y-14104576D01*
X10782952Y-13895052D02*
X10611524Y-14152195D01*
X11007714Y-13904576D02*
X11026762Y-13904576D01*
X11026762Y-13904576D02*
X11045810Y-13914100D01*
X11045810Y-13914100D02*
X11055333Y-13923624D01*
X11055333Y-13923624D02*
X11064857Y-13942671D01*
X11064857Y-13942671D02*
X11074381Y-13980767D01*
X11074381Y-13980767D02*
X11074381Y-14028386D01*
X11074381Y-14028386D02*
X11064857Y-14066481D01*
X11064857Y-14066481D02*
X11055333Y-14085528D01*
X11055333Y-14085528D02*
X11045810Y-14095052D01*
X11045810Y-14095052D02*
X11026762Y-14104576D01*
X11026762Y-14104576D02*
X11007714Y-14104576D01*
X11007714Y-14104576D02*
X10988667Y-14095052D01*
X10988667Y-14095052D02*
X10979143Y-14085528D01*
X10979143Y-14085528D02*
X10969619Y-14066481D01*
X10969619Y-14066481D02*
X10960095Y-14028386D01*
X10960095Y-14028386D02*
X10960095Y-13980767D01*
X10960095Y-13980767D02*
X10969619Y-13942671D01*
X10969619Y-13942671D02*
X10979143Y-13923624D01*
X10979143Y-13923624D02*
X10988667Y-13914100D01*
X10988667Y-13914100D02*
X11007714Y-13904576D01*
X11160095Y-14085528D02*
X11169619Y-14095052D01*
X11169619Y-14095052D02*
X11160095Y-14104576D01*
X11160095Y-14104576D02*
X11150572Y-14095052D01*
X11150572Y-14095052D02*
X11160095Y-14085528D01*
X11160095Y-14085528D02*
X11160095Y-14104576D01*
X11293429Y-13904576D02*
X11312476Y-13904576D01*
X11312476Y-13904576D02*
X11331524Y-13914100D01*
X11331524Y-13914100D02*
X11341048Y-13923624D01*
X11341048Y-13923624D02*
X11350571Y-13942671D01*
X11350571Y-13942671D02*
X11360095Y-13980767D01*
X11360095Y-13980767D02*
X11360095Y-14028386D01*
X11360095Y-14028386D02*
X11350571Y-14066481D01*
X11350571Y-14066481D02*
X11341048Y-14085528D01*
X11341048Y-14085528D02*
X11331524Y-14095052D01*
X11331524Y-14095052D02*
X11312476Y-14104576D01*
X11312476Y-14104576D02*
X11293429Y-14104576D01*
X11293429Y-14104576D02*
X11274381Y-14095052D01*
X11274381Y-14095052D02*
X11264857Y-14085528D01*
X11264857Y-14085528D02*
X11255333Y-14066481D01*
X11255333Y-14066481D02*
X11245810Y-14028386D01*
X11245810Y-14028386D02*
X11245810Y-13980767D01*
X11245810Y-13980767D02*
X11255333Y-13942671D01*
X11255333Y-13942671D02*
X11264857Y-13923624D01*
X11264857Y-13923624D02*
X11274381Y-13914100D01*
X11274381Y-13914100D02*
X11293429Y-13904576D01*
X11426762Y-13904576D02*
X11550571Y-13904576D01*
X11550571Y-13904576D02*
X11483905Y-13980767D01*
X11483905Y-13980767D02*
X11512476Y-13980767D01*
X11512476Y-13980767D02*
X11531524Y-13990290D01*
X11531524Y-13990290D02*
X11541048Y-13999814D01*
X11541048Y-13999814D02*
X11550571Y-14018862D01*
X11550571Y-14018862D02*
X11550571Y-14066481D01*
X11550571Y-14066481D02*
X11541048Y-14085528D01*
X11541048Y-14085528D02*
X11531524Y-14095052D01*
X11531524Y-14095052D02*
X11512476Y-14104576D01*
X11512476Y-14104576D02*
X11455333Y-14104576D01*
X11455333Y-14104576D02*
X11436286Y-14095052D01*
X11436286Y-14095052D02*
X11426762Y-14085528D01*
X11645810Y-14104576D02*
X11683905Y-14104576D01*
X11683905Y-14104576D02*
X11702952Y-14095052D01*
X11702952Y-14095052D02*
X11712476Y-14085528D01*
X11712476Y-14085528D02*
X11731524Y-14056957D01*
X11731524Y-14056957D02*
X11741048Y-14018862D01*
X11741048Y-14018862D02*
X11741048Y-13942671D01*
X11741048Y-13942671D02*
X11731524Y-13923624D01*
X11731524Y-13923624D02*
X11722000Y-13914100D01*
X11722000Y-13914100D02*
X11702952Y-13904576D01*
X11702952Y-13904576D02*
X11664857Y-13904576D01*
X11664857Y-13904576D02*
X11645810Y-13914100D01*
X11645810Y-13914100D02*
X11636286Y-13923624D01*
X11636286Y-13923624D02*
X11626762Y-13942671D01*
X11626762Y-13942671D02*
X11626762Y-13990290D01*
X11626762Y-13990290D02*
X11636286Y-14009338D01*
X11636286Y-14009338D02*
X11645810Y-14018862D01*
X11645810Y-14018862D02*
X11664857Y-14028386D01*
X11664857Y-14028386D02*
X11702952Y-14028386D01*
X11702952Y-14028386D02*
X11722000Y-14018862D01*
X11722000Y-14018862D02*
X11731524Y-14009338D01*
X11731524Y-14009338D02*
X11741048Y-13990290D01*
X11864857Y-13904576D02*
X11883905Y-13904576D01*
X11883905Y-13904576D02*
X11902952Y-13914100D01*
X11902952Y-13914100D02*
X11912476Y-13923624D01*
X11912476Y-13923624D02*
X11922000Y-13942671D01*
X11922000Y-13942671D02*
X11931524Y-13980767D01*
X11931524Y-13980767D02*
X11931524Y-14028386D01*
X11931524Y-14028386D02*
X11922000Y-14066481D01*
X11922000Y-14066481D02*
X11912476Y-14085528D01*
X11912476Y-14085528D02*
X11902952Y-14095052D01*
X11902952Y-14095052D02*
X11883905Y-14104576D01*
X11883905Y-14104576D02*
X11864857Y-14104576D01*
X11864857Y-14104576D02*
X11845810Y-14095052D01*
X11845810Y-14095052D02*
X11836286Y-14085528D01*
X11836286Y-14085528D02*
X11826762Y-14066481D01*
X11826762Y-14066481D02*
X11817238Y-14028386D01*
X11817238Y-14028386D02*
X11817238Y-13980767D01*
X11817238Y-13980767D02*
X11826762Y-13942671D01*
X11826762Y-13942671D02*
X11836286Y-13923624D01*
X11836286Y-13923624D02*
X11845810Y-13914100D01*
X11845810Y-13914100D02*
X11864857Y-13904576D01*
X12007714Y-13904576D02*
X12007714Y-13942671D01*
X12083905Y-13904576D02*
X12083905Y-13942671D01*
X12346762Y-14180767D02*
X12337238Y-14171243D01*
X12337238Y-14171243D02*
X12318191Y-14142671D01*
X12318191Y-14142671D02*
X12308667Y-14123624D01*
X12308667Y-14123624D02*
X12299143Y-14095052D01*
X12299143Y-14095052D02*
X12289619Y-14047433D01*
X12289619Y-14047433D02*
X12289619Y-14009338D01*
X12289619Y-14009338D02*
X12299143Y-13961719D01*
X12299143Y-13961719D02*
X12308667Y-13933148D01*
X12308667Y-13933148D02*
X12318191Y-13914100D01*
X12318191Y-13914100D02*
X12337238Y-13885528D01*
X12337238Y-13885528D02*
X12346762Y-13876005D01*
X12403905Y-13904576D02*
X12527714Y-13904576D01*
X12527714Y-13904576D02*
X12461048Y-13980767D01*
X12461048Y-13980767D02*
X12489619Y-13980767D01*
X12489619Y-13980767D02*
X12508667Y-13990290D01*
X12508667Y-13990290D02*
X12518191Y-13999814D01*
X12518191Y-13999814D02*
X12527714Y-14018862D01*
X12527714Y-14018862D02*
X12527714Y-14066481D01*
X12527714Y-14066481D02*
X12518191Y-14085528D01*
X12518191Y-14085528D02*
X12508667Y-14095052D01*
X12508667Y-14095052D02*
X12489619Y-14104576D01*
X12489619Y-14104576D02*
X12432476Y-14104576D01*
X12432476Y-14104576D02*
X12413429Y-14095052D01*
X12413429Y-14095052D02*
X12403905Y-14085528D01*
X12733429Y-14104576D02*
X12733429Y-13904576D01*
X12819143Y-14104576D02*
X12819143Y-13999814D01*
X12819143Y-13999814D02*
X12809619Y-13980767D01*
X12809619Y-13980767D02*
X12790572Y-13971243D01*
X12790572Y-13971243D02*
X12762000Y-13971243D01*
X12762000Y-13971243D02*
X12742952Y-13980767D01*
X12742952Y-13980767D02*
X12733429Y-13990290D01*
X12942952Y-14104576D02*
X12923905Y-14095052D01*
X12923905Y-14095052D02*
X12914381Y-14085528D01*
X12914381Y-14085528D02*
X12904857Y-14066481D01*
X12904857Y-14066481D02*
X12904857Y-14009338D01*
X12904857Y-14009338D02*
X12914381Y-13990290D01*
X12914381Y-13990290D02*
X12923905Y-13980767D01*
X12923905Y-13980767D02*
X12942952Y-13971243D01*
X12942952Y-13971243D02*
X12971524Y-13971243D01*
X12971524Y-13971243D02*
X12990572Y-13980767D01*
X12990572Y-13980767D02*
X13000095Y-13990290D01*
X13000095Y-13990290D02*
X13009619Y-14009338D01*
X13009619Y-14009338D02*
X13009619Y-14066481D01*
X13009619Y-14066481D02*
X13000095Y-14085528D01*
X13000095Y-14085528D02*
X12990572Y-14095052D01*
X12990572Y-14095052D02*
X12971524Y-14104576D01*
X12971524Y-14104576D02*
X12942952Y-14104576D01*
X13123905Y-14104576D02*
X13104857Y-14095052D01*
X13104857Y-14095052D02*
X13095333Y-14076005D01*
X13095333Y-14076005D02*
X13095333Y-13904576D01*
X13276286Y-14095052D02*
X13257238Y-14104576D01*
X13257238Y-14104576D02*
X13219143Y-14104576D01*
X13219143Y-14104576D02*
X13200095Y-14095052D01*
X13200095Y-14095052D02*
X13190572Y-14076005D01*
X13190572Y-14076005D02*
X13190572Y-13999814D01*
X13190572Y-13999814D02*
X13200095Y-13980767D01*
X13200095Y-13980767D02*
X13219143Y-13971243D01*
X13219143Y-13971243D02*
X13257238Y-13971243D01*
X13257238Y-13971243D02*
X13276286Y-13980767D01*
X13276286Y-13980767D02*
X13285810Y-13999814D01*
X13285810Y-13999814D02*
X13285810Y-14018862D01*
X13285810Y-14018862D02*
X13190572Y-14037909D01*
X13362000Y-14095052D02*
X13381048Y-14104576D01*
X13381048Y-14104576D02*
X13419143Y-14104576D01*
X13419143Y-14104576D02*
X13438191Y-14095052D01*
X13438191Y-14095052D02*
X13447714Y-14076005D01*
X13447714Y-14076005D02*
X13447714Y-14066481D01*
X13447714Y-14066481D02*
X13438191Y-14047433D01*
X13438191Y-14047433D02*
X13419143Y-14037909D01*
X13419143Y-14037909D02*
X13390572Y-14037909D01*
X13390572Y-14037909D02*
X13371524Y-14028386D01*
X13371524Y-14028386D02*
X13362000Y-14009338D01*
X13362000Y-14009338D02*
X13362000Y-13999814D01*
X13362000Y-13999814D02*
X13371524Y-13980767D01*
X13371524Y-13980767D02*
X13390572Y-13971243D01*
X13390572Y-13971243D02*
X13419143Y-13971243D01*
X13419143Y-13971243D02*
X13438191Y-13980767D01*
X13514381Y-14180767D02*
X13523905Y-14171243D01*
X13523905Y-14171243D02*
X13542953Y-14142671D01*
X13542953Y-14142671D02*
X13552476Y-14123624D01*
X13552476Y-14123624D02*
X13562000Y-14095052D01*
X13562000Y-14095052D02*
X13571524Y-14047433D01*
X13571524Y-14047433D02*
X13571524Y-14009338D01*
X13571524Y-14009338D02*
X13562000Y-13961719D01*
X13562000Y-13961719D02*
X13552476Y-13933148D01*
X13552476Y-13933148D02*
X13542953Y-13914100D01*
X13542953Y-13914100D02*
X13523905Y-13885528D01*
X13523905Y-13885528D02*
X13514381Y-13876005D01*
X13843905Y-14180767D02*
X13834381Y-14171243D01*
X13834381Y-14171243D02*
X13815333Y-14142671D01*
X13815333Y-14142671D02*
X13805810Y-14123624D01*
X13805810Y-14123624D02*
X13796286Y-14095052D01*
X13796286Y-14095052D02*
X13786762Y-14047433D01*
X13786762Y-14047433D02*
X13786762Y-14009338D01*
X13786762Y-14009338D02*
X13796286Y-13961719D01*
X13796286Y-13961719D02*
X13805810Y-13933148D01*
X13805810Y-13933148D02*
X13815333Y-13914100D01*
X13815333Y-13914100D02*
X13834381Y-13885528D01*
X13834381Y-13885528D02*
X13843905Y-13876005D01*
X13920095Y-13971243D02*
X13920095Y-14104576D01*
X13920095Y-13990290D02*
X13929619Y-13980767D01*
X13929619Y-13980767D02*
X13948667Y-13971243D01*
X13948667Y-13971243D02*
X13977238Y-13971243D01*
X13977238Y-13971243D02*
X13996286Y-13980767D01*
X13996286Y-13980767D02*
X14005810Y-13999814D01*
X14005810Y-13999814D02*
X14005810Y-14104576D01*
X14129619Y-14104576D02*
X14110572Y-14095052D01*
X14110572Y-14095052D02*
X14101048Y-14085528D01*
X14101048Y-14085528D02*
X14091524Y-14066481D01*
X14091524Y-14066481D02*
X14091524Y-14009338D01*
X14091524Y-14009338D02*
X14101048Y-13990290D01*
X14101048Y-13990290D02*
X14110572Y-13980767D01*
X14110572Y-13980767D02*
X14129619Y-13971243D01*
X14129619Y-13971243D02*
X14158191Y-13971243D01*
X14158191Y-13971243D02*
X14177238Y-13980767D01*
X14177238Y-13980767D02*
X14186762Y-13990290D01*
X14186762Y-13990290D02*
X14196286Y-14009338D01*
X14196286Y-14009338D02*
X14196286Y-14066481D01*
X14196286Y-14066481D02*
X14186762Y-14085528D01*
X14186762Y-14085528D02*
X14177238Y-14095052D01*
X14177238Y-14095052D02*
X14158191Y-14104576D01*
X14158191Y-14104576D02*
X14129619Y-14104576D01*
X14253429Y-13971243D02*
X14329619Y-13971243D01*
X14282000Y-13904576D02*
X14282000Y-14076005D01*
X14282000Y-14076005D02*
X14291524Y-14095052D01*
X14291524Y-14095052D02*
X14310572Y-14104576D01*
X14310572Y-14104576D02*
X14329619Y-14104576D01*
X14516286Y-13971243D02*
X14516286Y-14171243D01*
X14516286Y-13980767D02*
X14535333Y-13971243D01*
X14535333Y-13971243D02*
X14573429Y-13971243D01*
X14573429Y-13971243D02*
X14592476Y-13980767D01*
X14592476Y-13980767D02*
X14602000Y-13990290D01*
X14602000Y-13990290D02*
X14611524Y-14009338D01*
X14611524Y-14009338D02*
X14611524Y-14066481D01*
X14611524Y-14066481D02*
X14602000Y-14085528D01*
X14602000Y-14085528D02*
X14592476Y-14095052D01*
X14592476Y-14095052D02*
X14573429Y-14104576D01*
X14573429Y-14104576D02*
X14535333Y-14104576D01*
X14535333Y-14104576D02*
X14516286Y-14095052D01*
X14725810Y-14104576D02*
X14706762Y-14095052D01*
X14706762Y-14095052D02*
X14697238Y-14076005D01*
X14697238Y-14076005D02*
X14697238Y-13904576D01*
X14887714Y-14104576D02*
X14887714Y-13999814D01*
X14887714Y-13999814D02*
X14878191Y-13980767D01*
X14878191Y-13980767D02*
X14859143Y-13971243D01*
X14859143Y-13971243D02*
X14821048Y-13971243D01*
X14821048Y-13971243D02*
X14802000Y-13980767D01*
X14887714Y-14095052D02*
X14868667Y-14104576D01*
X14868667Y-14104576D02*
X14821048Y-14104576D01*
X14821048Y-14104576D02*
X14802000Y-14095052D01*
X14802000Y-14095052D02*
X14792476Y-14076005D01*
X14792476Y-14076005D02*
X14792476Y-14056957D01*
X14792476Y-14056957D02*
X14802000Y-14037909D01*
X14802000Y-14037909D02*
X14821048Y-14028386D01*
X14821048Y-14028386D02*
X14868667Y-14028386D01*
X14868667Y-14028386D02*
X14887714Y-14018862D01*
X14954381Y-13971243D02*
X15030572Y-13971243D01*
X14982953Y-13904576D02*
X14982953Y-14076005D01*
X14982953Y-14076005D02*
X14992476Y-14095052D01*
X14992476Y-14095052D02*
X15011524Y-14104576D01*
X15011524Y-14104576D02*
X15030572Y-14104576D01*
X15173429Y-14095052D02*
X15154381Y-14104576D01*
X15154381Y-14104576D02*
X15116286Y-14104576D01*
X15116286Y-14104576D02*
X15097238Y-14095052D01*
X15097238Y-14095052D02*
X15087714Y-14076005D01*
X15087714Y-14076005D02*
X15087714Y-13999814D01*
X15087714Y-13999814D02*
X15097238Y-13980767D01*
X15097238Y-13980767D02*
X15116286Y-13971243D01*
X15116286Y-13971243D02*
X15154381Y-13971243D01*
X15154381Y-13971243D02*
X15173429Y-13980767D01*
X15173429Y-13980767D02*
X15182953Y-13999814D01*
X15182953Y-13999814D02*
X15182953Y-14018862D01*
X15182953Y-14018862D02*
X15087714Y-14037909D01*
X15354381Y-14104576D02*
X15354381Y-13904576D01*
X15354381Y-14095052D02*
X15335334Y-14104576D01*
X15335334Y-14104576D02*
X15297238Y-14104576D01*
X15297238Y-14104576D02*
X15278191Y-14095052D01*
X15278191Y-14095052D02*
X15268667Y-14085528D01*
X15268667Y-14085528D02*
X15259143Y-14066481D01*
X15259143Y-14066481D02*
X15259143Y-14009338D01*
X15259143Y-14009338D02*
X15268667Y-13990290D01*
X15268667Y-13990290D02*
X15278191Y-13980767D01*
X15278191Y-13980767D02*
X15297238Y-13971243D01*
X15297238Y-13971243D02*
X15335334Y-13971243D01*
X15335334Y-13971243D02*
X15354381Y-13980767D01*
X15430572Y-14180767D02*
X15440095Y-14171243D01*
X15440095Y-14171243D02*
X15459143Y-14142671D01*
X15459143Y-14142671D02*
X15468667Y-14123624D01*
X15468667Y-14123624D02*
X15478191Y-14095052D01*
X15478191Y-14095052D02*
X15487714Y-14047433D01*
X15487714Y-14047433D02*
X15487714Y-14009338D01*
X15487714Y-14009338D02*
X15478191Y-13961719D01*
X15478191Y-13961719D02*
X15468667Y-13933148D01*
X15468667Y-13933148D02*
X15459143Y-13914100D01*
X15459143Y-13914100D02*
X15440095Y-13885528D01*
X15440095Y-13885528D02*
X15430572Y-13876005D01*
X8782000Y-14195100D02*
X8782000Y-14395100D01*
X8682000Y-14295100D02*
X8882000Y-14295100D01*
X9110571Y-14168576D02*
X9234381Y-14168576D01*
X9234381Y-14168576D02*
X9167714Y-14244767D01*
X9167714Y-14244767D02*
X9196286Y-14244767D01*
X9196286Y-14244767D02*
X9215333Y-14254290D01*
X9215333Y-14254290D02*
X9224857Y-14263814D01*
X9224857Y-14263814D02*
X9234381Y-14282862D01*
X9234381Y-14282862D02*
X9234381Y-14330481D01*
X9234381Y-14330481D02*
X9224857Y-14349528D01*
X9224857Y-14349528D02*
X9215333Y-14359052D01*
X9215333Y-14359052D02*
X9196286Y-14368576D01*
X9196286Y-14368576D02*
X9139143Y-14368576D01*
X9139143Y-14368576D02*
X9120095Y-14359052D01*
X9120095Y-14359052D02*
X9110571Y-14349528D01*
X9320095Y-14349528D02*
X9329619Y-14359052D01*
X9329619Y-14359052D02*
X9320095Y-14368576D01*
X9320095Y-14368576D02*
X9310571Y-14359052D01*
X9310571Y-14359052D02*
X9320095Y-14349528D01*
X9320095Y-14349528D02*
X9320095Y-14368576D01*
X9501048Y-14235243D02*
X9501048Y-14368576D01*
X9453429Y-14159052D02*
X9405810Y-14301909D01*
X9405810Y-14301909D02*
X9529619Y-14301909D01*
X9643905Y-14168576D02*
X9662952Y-14168576D01*
X9662952Y-14168576D02*
X9682000Y-14178100D01*
X9682000Y-14178100D02*
X9691524Y-14187624D01*
X9691524Y-14187624D02*
X9701048Y-14206671D01*
X9701048Y-14206671D02*
X9710571Y-14244767D01*
X9710571Y-14244767D02*
X9710571Y-14292386D01*
X9710571Y-14292386D02*
X9701048Y-14330481D01*
X9701048Y-14330481D02*
X9691524Y-14349528D01*
X9691524Y-14349528D02*
X9682000Y-14359052D01*
X9682000Y-14359052D02*
X9662952Y-14368576D01*
X9662952Y-14368576D02*
X9643905Y-14368576D01*
X9643905Y-14368576D02*
X9624857Y-14359052D01*
X9624857Y-14359052D02*
X9615333Y-14349528D01*
X9615333Y-14349528D02*
X9605810Y-14330481D01*
X9605810Y-14330481D02*
X9596286Y-14292386D01*
X9596286Y-14292386D02*
X9596286Y-14244767D01*
X9596286Y-14244767D02*
X9605810Y-14206671D01*
X9605810Y-14206671D02*
X9615333Y-14187624D01*
X9615333Y-14187624D02*
X9624857Y-14178100D01*
X9624857Y-14178100D02*
X9643905Y-14168576D01*
X9834381Y-14168576D02*
X9853429Y-14168576D01*
X9853429Y-14168576D02*
X9872476Y-14178100D01*
X9872476Y-14178100D02*
X9882000Y-14187624D01*
X9882000Y-14187624D02*
X9891524Y-14206671D01*
X9891524Y-14206671D02*
X9901048Y-14244767D01*
X9901048Y-14244767D02*
X9901048Y-14292386D01*
X9901048Y-14292386D02*
X9891524Y-14330481D01*
X9891524Y-14330481D02*
X9882000Y-14349528D01*
X9882000Y-14349528D02*
X9872476Y-14359052D01*
X9872476Y-14359052D02*
X9853429Y-14368576D01*
X9853429Y-14368576D02*
X9834381Y-14368576D01*
X9834381Y-14368576D02*
X9815333Y-14359052D01*
X9815333Y-14359052D02*
X9805810Y-14349528D01*
X9805810Y-14349528D02*
X9796286Y-14330481D01*
X9796286Y-14330481D02*
X9786762Y-14292386D01*
X9786762Y-14292386D02*
X9786762Y-14244767D01*
X9786762Y-14244767D02*
X9796286Y-14206671D01*
X9796286Y-14206671D02*
X9805810Y-14187624D01*
X9805810Y-14187624D02*
X9815333Y-14178100D01*
X9815333Y-14178100D02*
X9834381Y-14168576D01*
X9986762Y-14368576D02*
X9986762Y-14235243D01*
X9986762Y-14254290D02*
X9996286Y-14244767D01*
X9996286Y-14244767D02*
X10015333Y-14235243D01*
X10015333Y-14235243D02*
X10043905Y-14235243D01*
X10043905Y-14235243D02*
X10062952Y-14244767D01*
X10062952Y-14244767D02*
X10072476Y-14263814D01*
X10072476Y-14263814D02*
X10072476Y-14368576D01*
X10072476Y-14263814D02*
X10082000Y-14244767D01*
X10082000Y-14244767D02*
X10101048Y-14235243D01*
X10101048Y-14235243D02*
X10129619Y-14235243D01*
X10129619Y-14235243D02*
X10148667Y-14244767D01*
X10148667Y-14244767D02*
X10158191Y-14263814D01*
X10158191Y-14263814D02*
X10158191Y-14368576D01*
X10253429Y-14368576D02*
X10253429Y-14235243D01*
X10253429Y-14254290D02*
X10262952Y-14244767D01*
X10262952Y-14244767D02*
X10282000Y-14235243D01*
X10282000Y-14235243D02*
X10310572Y-14235243D01*
X10310572Y-14235243D02*
X10329619Y-14244767D01*
X10329619Y-14244767D02*
X10339143Y-14263814D01*
X10339143Y-14263814D02*
X10339143Y-14368576D01*
X10339143Y-14263814D02*
X10348667Y-14244767D01*
X10348667Y-14244767D02*
X10367714Y-14235243D01*
X10367714Y-14235243D02*
X10396286Y-14235243D01*
X10396286Y-14235243D02*
X10415333Y-14244767D01*
X10415333Y-14244767D02*
X10424857Y-14263814D01*
X10424857Y-14263814D02*
X10424857Y-14368576D01*
X10782952Y-14159052D02*
X10611524Y-14416195D01*
X11007714Y-14168576D02*
X11026762Y-14168576D01*
X11026762Y-14168576D02*
X11045810Y-14178100D01*
X11045810Y-14178100D02*
X11055333Y-14187624D01*
X11055333Y-14187624D02*
X11064857Y-14206671D01*
X11064857Y-14206671D02*
X11074381Y-14244767D01*
X11074381Y-14244767D02*
X11074381Y-14292386D01*
X11074381Y-14292386D02*
X11064857Y-14330481D01*
X11064857Y-14330481D02*
X11055333Y-14349528D01*
X11055333Y-14349528D02*
X11045810Y-14359052D01*
X11045810Y-14359052D02*
X11026762Y-14368576D01*
X11026762Y-14368576D02*
X11007714Y-14368576D01*
X11007714Y-14368576D02*
X10988667Y-14359052D01*
X10988667Y-14359052D02*
X10979143Y-14349528D01*
X10979143Y-14349528D02*
X10969619Y-14330481D01*
X10969619Y-14330481D02*
X10960095Y-14292386D01*
X10960095Y-14292386D02*
X10960095Y-14244767D01*
X10960095Y-14244767D02*
X10969619Y-14206671D01*
X10969619Y-14206671D02*
X10979143Y-14187624D01*
X10979143Y-14187624D02*
X10988667Y-14178100D01*
X10988667Y-14178100D02*
X11007714Y-14168576D01*
X11160095Y-14349528D02*
X11169619Y-14359052D01*
X11169619Y-14359052D02*
X11160095Y-14368576D01*
X11160095Y-14368576D02*
X11150572Y-14359052D01*
X11150572Y-14359052D02*
X11160095Y-14349528D01*
X11160095Y-14349528D02*
X11160095Y-14368576D01*
X11360095Y-14368576D02*
X11245810Y-14368576D01*
X11302952Y-14368576D02*
X11302952Y-14168576D01*
X11302952Y-14168576D02*
X11283905Y-14197148D01*
X11283905Y-14197148D02*
X11264857Y-14216195D01*
X11264857Y-14216195D02*
X11245810Y-14225719D01*
X11426762Y-14168576D02*
X11550571Y-14168576D01*
X11550571Y-14168576D02*
X11483905Y-14244767D01*
X11483905Y-14244767D02*
X11512476Y-14244767D01*
X11512476Y-14244767D02*
X11531524Y-14254290D01*
X11531524Y-14254290D02*
X11541048Y-14263814D01*
X11541048Y-14263814D02*
X11550571Y-14282862D01*
X11550571Y-14282862D02*
X11550571Y-14330481D01*
X11550571Y-14330481D02*
X11541048Y-14349528D01*
X11541048Y-14349528D02*
X11531524Y-14359052D01*
X11531524Y-14359052D02*
X11512476Y-14368576D01*
X11512476Y-14368576D02*
X11455333Y-14368576D01*
X11455333Y-14368576D02*
X11436286Y-14359052D01*
X11436286Y-14359052D02*
X11426762Y-14349528D01*
X11617238Y-14168576D02*
X11741048Y-14168576D01*
X11741048Y-14168576D02*
X11674381Y-14244767D01*
X11674381Y-14244767D02*
X11702952Y-14244767D01*
X11702952Y-14244767D02*
X11722000Y-14254290D01*
X11722000Y-14254290D02*
X11731524Y-14263814D01*
X11731524Y-14263814D02*
X11741048Y-14282862D01*
X11741048Y-14282862D02*
X11741048Y-14330481D01*
X11741048Y-14330481D02*
X11731524Y-14349528D01*
X11731524Y-14349528D02*
X11722000Y-14359052D01*
X11722000Y-14359052D02*
X11702952Y-14368576D01*
X11702952Y-14368576D02*
X11645810Y-14368576D01*
X11645810Y-14368576D02*
X11626762Y-14359052D01*
X11626762Y-14359052D02*
X11617238Y-14349528D01*
X11836286Y-14368576D02*
X11874381Y-14368576D01*
X11874381Y-14368576D02*
X11893429Y-14359052D01*
X11893429Y-14359052D02*
X11902952Y-14349528D01*
X11902952Y-14349528D02*
X11922000Y-14320957D01*
X11922000Y-14320957D02*
X11931524Y-14282862D01*
X11931524Y-14282862D02*
X11931524Y-14206671D01*
X11931524Y-14206671D02*
X11922000Y-14187624D01*
X11922000Y-14187624D02*
X11912476Y-14178100D01*
X11912476Y-14178100D02*
X11893429Y-14168576D01*
X11893429Y-14168576D02*
X11855333Y-14168576D01*
X11855333Y-14168576D02*
X11836286Y-14178100D01*
X11836286Y-14178100D02*
X11826762Y-14187624D01*
X11826762Y-14187624D02*
X11817238Y-14206671D01*
X11817238Y-14206671D02*
X11817238Y-14254290D01*
X11817238Y-14254290D02*
X11826762Y-14273338D01*
X11826762Y-14273338D02*
X11836286Y-14282862D01*
X11836286Y-14282862D02*
X11855333Y-14292386D01*
X11855333Y-14292386D02*
X11893429Y-14292386D01*
X11893429Y-14292386D02*
X11912476Y-14282862D01*
X11912476Y-14282862D02*
X11922000Y-14273338D01*
X11922000Y-14273338D02*
X11931524Y-14254290D01*
X12007714Y-14168576D02*
X12007714Y-14206671D01*
X12083905Y-14168576D02*
X12083905Y-14206671D01*
X12346762Y-14444767D02*
X12337238Y-14435243D01*
X12337238Y-14435243D02*
X12318191Y-14406671D01*
X12318191Y-14406671D02*
X12308667Y-14387624D01*
X12308667Y-14387624D02*
X12299143Y-14359052D01*
X12299143Y-14359052D02*
X12289619Y-14311433D01*
X12289619Y-14311433D02*
X12289619Y-14273338D01*
X12289619Y-14273338D02*
X12299143Y-14225719D01*
X12299143Y-14225719D02*
X12308667Y-14197148D01*
X12308667Y-14197148D02*
X12318191Y-14178100D01*
X12318191Y-14178100D02*
X12337238Y-14149528D01*
X12337238Y-14149528D02*
X12346762Y-14140005D01*
X12413429Y-14187624D02*
X12422952Y-14178100D01*
X12422952Y-14178100D02*
X12442000Y-14168576D01*
X12442000Y-14168576D02*
X12489619Y-14168576D01*
X12489619Y-14168576D02*
X12508667Y-14178100D01*
X12508667Y-14178100D02*
X12518191Y-14187624D01*
X12518191Y-14187624D02*
X12527714Y-14206671D01*
X12527714Y-14206671D02*
X12527714Y-14225719D01*
X12527714Y-14225719D02*
X12518191Y-14254290D01*
X12518191Y-14254290D02*
X12403905Y-14368576D01*
X12403905Y-14368576D02*
X12527714Y-14368576D01*
X12733429Y-14368576D02*
X12733429Y-14168576D01*
X12819143Y-14368576D02*
X12819143Y-14263814D01*
X12819143Y-14263814D02*
X12809619Y-14244767D01*
X12809619Y-14244767D02*
X12790572Y-14235243D01*
X12790572Y-14235243D02*
X12762000Y-14235243D01*
X12762000Y-14235243D02*
X12742952Y-14244767D01*
X12742952Y-14244767D02*
X12733429Y-14254290D01*
X12942952Y-14368576D02*
X12923905Y-14359052D01*
X12923905Y-14359052D02*
X12914381Y-14349528D01*
X12914381Y-14349528D02*
X12904857Y-14330481D01*
X12904857Y-14330481D02*
X12904857Y-14273338D01*
X12904857Y-14273338D02*
X12914381Y-14254290D01*
X12914381Y-14254290D02*
X12923905Y-14244767D01*
X12923905Y-14244767D02*
X12942952Y-14235243D01*
X12942952Y-14235243D02*
X12971524Y-14235243D01*
X12971524Y-14235243D02*
X12990572Y-14244767D01*
X12990572Y-14244767D02*
X13000095Y-14254290D01*
X13000095Y-14254290D02*
X13009619Y-14273338D01*
X13009619Y-14273338D02*
X13009619Y-14330481D01*
X13009619Y-14330481D02*
X13000095Y-14349528D01*
X13000095Y-14349528D02*
X12990572Y-14359052D01*
X12990572Y-14359052D02*
X12971524Y-14368576D01*
X12971524Y-14368576D02*
X12942952Y-14368576D01*
X13123905Y-14368576D02*
X13104857Y-14359052D01*
X13104857Y-14359052D02*
X13095333Y-14340005D01*
X13095333Y-14340005D02*
X13095333Y-14168576D01*
X13276286Y-14359052D02*
X13257238Y-14368576D01*
X13257238Y-14368576D02*
X13219143Y-14368576D01*
X13219143Y-14368576D02*
X13200095Y-14359052D01*
X13200095Y-14359052D02*
X13190572Y-14340005D01*
X13190572Y-14340005D02*
X13190572Y-14263814D01*
X13190572Y-14263814D02*
X13200095Y-14244767D01*
X13200095Y-14244767D02*
X13219143Y-14235243D01*
X13219143Y-14235243D02*
X13257238Y-14235243D01*
X13257238Y-14235243D02*
X13276286Y-14244767D01*
X13276286Y-14244767D02*
X13285810Y-14263814D01*
X13285810Y-14263814D02*
X13285810Y-14282862D01*
X13285810Y-14282862D02*
X13190572Y-14301909D01*
X13362000Y-14359052D02*
X13381048Y-14368576D01*
X13381048Y-14368576D02*
X13419143Y-14368576D01*
X13419143Y-14368576D02*
X13438191Y-14359052D01*
X13438191Y-14359052D02*
X13447714Y-14340005D01*
X13447714Y-14340005D02*
X13447714Y-14330481D01*
X13447714Y-14330481D02*
X13438191Y-14311433D01*
X13438191Y-14311433D02*
X13419143Y-14301909D01*
X13419143Y-14301909D02*
X13390572Y-14301909D01*
X13390572Y-14301909D02*
X13371524Y-14292386D01*
X13371524Y-14292386D02*
X13362000Y-14273338D01*
X13362000Y-14273338D02*
X13362000Y-14263814D01*
X13362000Y-14263814D02*
X13371524Y-14244767D01*
X13371524Y-14244767D02*
X13390572Y-14235243D01*
X13390572Y-14235243D02*
X13419143Y-14235243D01*
X13419143Y-14235243D02*
X13438191Y-14244767D01*
X13514381Y-14444767D02*
X13523905Y-14435243D01*
X13523905Y-14435243D02*
X13542953Y-14406671D01*
X13542953Y-14406671D02*
X13552476Y-14387624D01*
X13552476Y-14387624D02*
X13562000Y-14359052D01*
X13562000Y-14359052D02*
X13571524Y-14311433D01*
X13571524Y-14311433D02*
X13571524Y-14273338D01*
X13571524Y-14273338D02*
X13562000Y-14225719D01*
X13562000Y-14225719D02*
X13552476Y-14197148D01*
X13552476Y-14197148D02*
X13542953Y-14178100D01*
X13542953Y-14178100D02*
X13523905Y-14149528D01*
X13523905Y-14149528D02*
X13514381Y-14140005D01*
X13843905Y-14444767D02*
X13834381Y-14435243D01*
X13834381Y-14435243D02*
X13815333Y-14406671D01*
X13815333Y-14406671D02*
X13805810Y-14387624D01*
X13805810Y-14387624D02*
X13796286Y-14359052D01*
X13796286Y-14359052D02*
X13786762Y-14311433D01*
X13786762Y-14311433D02*
X13786762Y-14273338D01*
X13786762Y-14273338D02*
X13796286Y-14225719D01*
X13796286Y-14225719D02*
X13805810Y-14197148D01*
X13805810Y-14197148D02*
X13815333Y-14178100D01*
X13815333Y-14178100D02*
X13834381Y-14149528D01*
X13834381Y-14149528D02*
X13843905Y-14140005D01*
X13920095Y-14235243D02*
X13920095Y-14368576D01*
X13920095Y-14254290D02*
X13929619Y-14244767D01*
X13929619Y-14244767D02*
X13948667Y-14235243D01*
X13948667Y-14235243D02*
X13977238Y-14235243D01*
X13977238Y-14235243D02*
X13996286Y-14244767D01*
X13996286Y-14244767D02*
X14005810Y-14263814D01*
X14005810Y-14263814D02*
X14005810Y-14368576D01*
X14129619Y-14368576D02*
X14110572Y-14359052D01*
X14110572Y-14359052D02*
X14101048Y-14349528D01*
X14101048Y-14349528D02*
X14091524Y-14330481D01*
X14091524Y-14330481D02*
X14091524Y-14273338D01*
X14091524Y-14273338D02*
X14101048Y-14254290D01*
X14101048Y-14254290D02*
X14110572Y-14244767D01*
X14110572Y-14244767D02*
X14129619Y-14235243D01*
X14129619Y-14235243D02*
X14158191Y-14235243D01*
X14158191Y-14235243D02*
X14177238Y-14244767D01*
X14177238Y-14244767D02*
X14186762Y-14254290D01*
X14186762Y-14254290D02*
X14196286Y-14273338D01*
X14196286Y-14273338D02*
X14196286Y-14330481D01*
X14196286Y-14330481D02*
X14186762Y-14349528D01*
X14186762Y-14349528D02*
X14177238Y-14359052D01*
X14177238Y-14359052D02*
X14158191Y-14368576D01*
X14158191Y-14368576D02*
X14129619Y-14368576D01*
X14253429Y-14235243D02*
X14329619Y-14235243D01*
X14282000Y-14168576D02*
X14282000Y-14340005D01*
X14282000Y-14340005D02*
X14291524Y-14359052D01*
X14291524Y-14359052D02*
X14310572Y-14368576D01*
X14310572Y-14368576D02*
X14329619Y-14368576D01*
X14516286Y-14235243D02*
X14516286Y-14435243D01*
X14516286Y-14244767D02*
X14535333Y-14235243D01*
X14535333Y-14235243D02*
X14573429Y-14235243D01*
X14573429Y-14235243D02*
X14592476Y-14244767D01*
X14592476Y-14244767D02*
X14602000Y-14254290D01*
X14602000Y-14254290D02*
X14611524Y-14273338D01*
X14611524Y-14273338D02*
X14611524Y-14330481D01*
X14611524Y-14330481D02*
X14602000Y-14349528D01*
X14602000Y-14349528D02*
X14592476Y-14359052D01*
X14592476Y-14359052D02*
X14573429Y-14368576D01*
X14573429Y-14368576D02*
X14535333Y-14368576D01*
X14535333Y-14368576D02*
X14516286Y-14359052D01*
X14725810Y-14368576D02*
X14706762Y-14359052D01*
X14706762Y-14359052D02*
X14697238Y-14340005D01*
X14697238Y-14340005D02*
X14697238Y-14168576D01*
X14887714Y-14368576D02*
X14887714Y-14263814D01*
X14887714Y-14263814D02*
X14878191Y-14244767D01*
X14878191Y-14244767D02*
X14859143Y-14235243D01*
X14859143Y-14235243D02*
X14821048Y-14235243D01*
X14821048Y-14235243D02*
X14802000Y-14244767D01*
X14887714Y-14359052D02*
X14868667Y-14368576D01*
X14868667Y-14368576D02*
X14821048Y-14368576D01*
X14821048Y-14368576D02*
X14802000Y-14359052D01*
X14802000Y-14359052D02*
X14792476Y-14340005D01*
X14792476Y-14340005D02*
X14792476Y-14320957D01*
X14792476Y-14320957D02*
X14802000Y-14301909D01*
X14802000Y-14301909D02*
X14821048Y-14292386D01*
X14821048Y-14292386D02*
X14868667Y-14292386D01*
X14868667Y-14292386D02*
X14887714Y-14282862D01*
X14954381Y-14235243D02*
X15030572Y-14235243D01*
X14982953Y-14168576D02*
X14982953Y-14340005D01*
X14982953Y-14340005D02*
X14992476Y-14359052D01*
X14992476Y-14359052D02*
X15011524Y-14368576D01*
X15011524Y-14368576D02*
X15030572Y-14368576D01*
X15173429Y-14359052D02*
X15154381Y-14368576D01*
X15154381Y-14368576D02*
X15116286Y-14368576D01*
X15116286Y-14368576D02*
X15097238Y-14359052D01*
X15097238Y-14359052D02*
X15087714Y-14340005D01*
X15087714Y-14340005D02*
X15087714Y-14263814D01*
X15087714Y-14263814D02*
X15097238Y-14244767D01*
X15097238Y-14244767D02*
X15116286Y-14235243D01*
X15116286Y-14235243D02*
X15154381Y-14235243D01*
X15154381Y-14235243D02*
X15173429Y-14244767D01*
X15173429Y-14244767D02*
X15182953Y-14263814D01*
X15182953Y-14263814D02*
X15182953Y-14282862D01*
X15182953Y-14282862D02*
X15087714Y-14301909D01*
X15354381Y-14368576D02*
X15354381Y-14168576D01*
X15354381Y-14359052D02*
X15335334Y-14368576D01*
X15335334Y-14368576D02*
X15297238Y-14368576D01*
X15297238Y-14368576D02*
X15278191Y-14359052D01*
X15278191Y-14359052D02*
X15268667Y-14349528D01*
X15268667Y-14349528D02*
X15259143Y-14330481D01*
X15259143Y-14330481D02*
X15259143Y-14273338D01*
X15259143Y-14273338D02*
X15268667Y-14254290D01*
X15268667Y-14254290D02*
X15278191Y-14244767D01*
X15278191Y-14244767D02*
X15297238Y-14235243D01*
X15297238Y-14235243D02*
X15335334Y-14235243D01*
X15335334Y-14235243D02*
X15354381Y-14244767D01*
X15430572Y-14444767D02*
X15440095Y-14435243D01*
X15440095Y-14435243D02*
X15459143Y-14406671D01*
X15459143Y-14406671D02*
X15468667Y-14387624D01*
X15468667Y-14387624D02*
X15478191Y-14359052D01*
X15478191Y-14359052D02*
X15487714Y-14311433D01*
X15487714Y-14311433D02*
X15487714Y-14273338D01*
X15487714Y-14273338D02*
X15478191Y-14225719D01*
X15478191Y-14225719D02*
X15468667Y-14197148D01*
X15468667Y-14197148D02*
X15459143Y-14178100D01*
X15459143Y-14178100D02*
X15440095Y-14149528D01*
X15440095Y-14149528D02*
X15430572Y-14140005D01*
M02*
