G04 #@! TF.GenerationSoftware,KiCad,Pcbnew,(7.0.0)*
G04 #@! TF.CreationDate,2023-08-22T13:44:59-04:00*
G04 #@! TF.ProjectId,Power Module Rev 5,506f7765-7220-44d6-9f64-756c65205265,rev?*
G04 #@! TF.SameCoordinates,Original*
G04 #@! TF.FileFunction,Soldermask,Bot*
G04 #@! TF.FilePolarity,Negative*
%FSLAX46Y46*%
G04 Gerber Fmt 4.6, Leading zero omitted, Abs format (unit mm)*
G04 Created by KiCad (PCBNEW (7.0.0)) date 2023-08-22 13:44:59*
%MOMM*%
%LPD*%
G01*
G04 APERTURE LIST*
%ADD10C,0.990600*%
%ADD11C,0.600000*%
%ADD12O,0.850000X0.600000*%
%ADD13O,1.300000X2.300000*%
%ADD14O,1.300000X2.600000*%
%ADD15C,3.400000*%
%ADD16R,2.250000X2.250000*%
%ADD17C,2.250000*%
%ADD18C,2.003200*%
G04 APERTURE END LIST*
D10*
X102438200Y-69773800D03*
X101422200Y-64693800D03*
X103454200Y-64693800D03*
D11*
X109654600Y-54247000D03*
D12*
X103654599Y-54246999D03*
D13*
X110974599Y-54971999D03*
D14*
X110974599Y-51146999D03*
D13*
X102334599Y-54971999D03*
D14*
X102334599Y-51146999D03*
D15*
X110750000Y-127635000D03*
X143250000Y-127635000D03*
D16*
X135999999Y-113134999D03*
D17*
X133000000Y-113135000D03*
X130000000Y-113135000D03*
X127000000Y-113135000D03*
X124000000Y-113135000D03*
X121000000Y-113135000D03*
X118000000Y-113135000D03*
X134500000Y-115635000D03*
X131500000Y-115635000D03*
X128500000Y-115635000D03*
X125500000Y-115635000D03*
X122500000Y-115635000D03*
X119500000Y-115635000D03*
X134500000Y-118635000D03*
X131500000Y-118635000D03*
X128500000Y-118635000D03*
X125500000Y-118635000D03*
X122500000Y-118635000D03*
X119500000Y-118635000D03*
X136000000Y-121135000D03*
X133000000Y-121135000D03*
X130000000Y-121135000D03*
X127000000Y-121135000D03*
X124000000Y-121135000D03*
X121000000Y-121135000D03*
X118000000Y-121135000D03*
D18*
X123190000Y-90932000D03*
X125730000Y-90932000D03*
X128270000Y-90932000D03*
X130810000Y-90932000D03*
X130810000Y-93472000D03*
X128270000Y-93472000D03*
X125730000Y-93472000D03*
X123190000Y-93472000D03*
X123190000Y-96012000D03*
X125730000Y-96012000D03*
X128270000Y-96012000D03*
X130810000Y-96012000D03*
X130810000Y-98552000D03*
X128270000Y-98552000D03*
X125730000Y-98552000D03*
X123190000Y-98552000D03*
M02*
