M48
; DRILL file {KiCad (7.0.0)} date Tue Oct 24 10:40:36 2023
; FORMAT={-:-/ absolute / metric / decimal}
; #@! TF.CreationDate,2023-10-24T10:40:36-04:00
; #@! TF.GenerationSoftware,Kicad,Pcbnew,(7.0.0)
; #@! TF.FileFunction,Plated,1,2,PTH
FMAT,2
METRIC
; #@! TA.AperFunction,Plated,PTH,ViaDrill
T1C0.400
; #@! TA.AperFunction,Plated,PTH,ComponentDrill
T2C0.500
; #@! TA.AperFunction,Plated,PTH,ComponentDrill
T3C0.800
%
G90
G05
T1
X108.89Y-65.049
X109.068Y-71.018
X124.028Y-69.088
X124.816Y-67.183
T2
X105.919Y-62.812
X105.919Y-64.286
X105.919Y-65.759
X105.919Y-67.232
X105.919Y-68.705
X105.919Y-70.178
X105.919Y-71.652
X105.919Y-73.125
X107.644Y-62.812
X107.644Y-64.286
X107.644Y-65.759
X107.644Y-67.232
X107.644Y-68.705
X107.644Y-70.178
X107.644Y-71.652
X107.644Y-73.125
T3
X126.949Y-62.586
T0
M30
