G04 #@! TF.GenerationSoftware,KiCad,Pcbnew,(7.0.0)*
G04 #@! TF.CreationDate,2023-10-24T10:40:17-04:00*
G04 #@! TF.ProjectId,Adc Adapter,41646320-4164-4617-9074-65722e6b6963,rev?*
G04 #@! TF.SameCoordinates,Original*
G04 #@! TF.FileFunction,Legend,Top*
G04 #@! TF.FilePolarity,Positive*
%FSLAX46Y46*%
G04 Gerber Fmt 4.6, Leading zero omitted, Abs format (unit mm)*
G04 Created by KiCad (PCBNEW (7.0.0)) date 2023-10-24 10:40:17*
%MOMM*%
%LPD*%
G01*
G04 APERTURE LIST*
G04 Aperture macros list*
%AMRoundRect*
0 Rectangle with rounded corners*
0 $1 Rounding radius*
0 $2 $3 $4 $5 $6 $7 $8 $9 X,Y pos of 4 corners*
0 Add a 4 corners polygon primitive as box body*
4,1,4,$2,$3,$4,$5,$6,$7,$8,$9,$2,$3,0*
0 Add four circle primitives for the rounded corners*
1,1,$1+$1,$2,$3*
1,1,$1+$1,$4,$5*
1,1,$1+$1,$6,$7*
1,1,$1+$1,$8,$9*
0 Add four rect primitives between the rounded corners*
20,1,$1+$1,$2,$3,$4,$5,0*
20,1,$1+$1,$4,$5,$6,$7,0*
20,1,$1+$1,$6,$7,$8,$9,0*
20,1,$1+$1,$8,$9,$2,$3,0*%
G04 Aperture macros list end*
%ADD10C,0.150000*%
%ADD11C,0.120000*%
%ADD12C,0.100000*%
%ADD13RoundRect,0.237500X-0.300000X-0.237500X0.300000X-0.237500X0.300000X0.237500X-0.300000X0.237500X0*%
%ADD14RoundRect,0.237500X-0.250000X-0.237500X0.250000X-0.237500X0.250000X0.237500X-0.250000X0.237500X0*%
%ADD15RoundRect,0.237500X0.250000X0.237500X-0.250000X0.237500X-0.250000X-0.237500X0.250000X-0.237500X0*%
%ADD16R,1.350000X1.350000*%
%ADD17RoundRect,0.070000X0.275000X0.750000X-0.275000X0.750000X-0.275000X-0.750000X0.275000X-0.750000X0*%
G04 APERTURE END LIST*
D10*
X109281933Y-73646380D02*
X108948600Y-73170190D01*
X108710505Y-73646380D02*
X108710505Y-72646380D01*
X108710505Y-72646380D02*
X109091457Y-72646380D01*
X109091457Y-72646380D02*
X109186695Y-72694000D01*
X109186695Y-72694000D02*
X109234314Y-72741619D01*
X109234314Y-72741619D02*
X109281933Y-72836857D01*
X109281933Y-72836857D02*
X109281933Y-72979714D01*
X109281933Y-72979714D02*
X109234314Y-73074952D01*
X109234314Y-73074952D02*
X109186695Y-73122571D01*
X109186695Y-73122571D02*
X109091457Y-73170190D01*
X109091457Y-73170190D02*
X108710505Y-73170190D01*
X110139076Y-72979714D02*
X110139076Y-73646380D01*
X109900981Y-72598761D02*
X109662886Y-73313047D01*
X109662886Y-73313047D02*
X110281933Y-73313047D01*
X109256533Y-69150580D02*
X108923200Y-68674390D01*
X108685105Y-69150580D02*
X108685105Y-68150580D01*
X108685105Y-68150580D02*
X109066057Y-68150580D01*
X109066057Y-68150580D02*
X109161295Y-68198200D01*
X109161295Y-68198200D02*
X109208914Y-68245819D01*
X109208914Y-68245819D02*
X109256533Y-68341057D01*
X109256533Y-68341057D02*
X109256533Y-68483914D01*
X109256533Y-68483914D02*
X109208914Y-68579152D01*
X109208914Y-68579152D02*
X109161295Y-68626771D01*
X109161295Y-68626771D02*
X109066057Y-68674390D01*
X109066057Y-68674390D02*
X108685105Y-68674390D01*
X109589867Y-68150580D02*
X110208914Y-68150580D01*
X110208914Y-68150580D02*
X109875581Y-68531533D01*
X109875581Y-68531533D02*
X110018438Y-68531533D01*
X110018438Y-68531533D02*
X110113676Y-68579152D01*
X110113676Y-68579152D02*
X110161295Y-68626771D01*
X110161295Y-68626771D02*
X110208914Y-68722009D01*
X110208914Y-68722009D02*
X110208914Y-68960104D01*
X110208914Y-68960104D02*
X110161295Y-69055342D01*
X110161295Y-69055342D02*
X110113676Y-69102961D01*
X110113676Y-69102961D02*
X110018438Y-69150580D01*
X110018438Y-69150580D02*
X109732724Y-69150580D01*
X109732724Y-69150580D02*
X109637486Y-69102961D01*
X109637486Y-69102961D02*
X109589867Y-69055342D01*
X111929942Y-73722580D02*
X111596609Y-73246390D01*
X111358514Y-73722580D02*
X111358514Y-72722580D01*
X111358514Y-72722580D02*
X111739466Y-72722580D01*
X111739466Y-72722580D02*
X111834704Y-72770200D01*
X111834704Y-72770200D02*
X111882323Y-72817819D01*
X111882323Y-72817819D02*
X111929942Y-72913057D01*
X111929942Y-72913057D02*
X111929942Y-73055914D01*
X111929942Y-73055914D02*
X111882323Y-73151152D01*
X111882323Y-73151152D02*
X111834704Y-73198771D01*
X111834704Y-73198771D02*
X111739466Y-73246390D01*
X111739466Y-73246390D02*
X111358514Y-73246390D01*
X112882323Y-73722580D02*
X112310895Y-73722580D01*
X112596609Y-73722580D02*
X112596609Y-72722580D01*
X112596609Y-72722580D02*
X112501371Y-72865438D01*
X112501371Y-72865438D02*
X112406133Y-72960676D01*
X112406133Y-72960676D02*
X112310895Y-73008295D01*
X113263276Y-72817819D02*
X113310895Y-72770200D01*
X113310895Y-72770200D02*
X113406133Y-72722580D01*
X113406133Y-72722580D02*
X113644228Y-72722580D01*
X113644228Y-72722580D02*
X113739466Y-72770200D01*
X113739466Y-72770200D02*
X113787085Y-72817819D01*
X113787085Y-72817819D02*
X113834704Y-72913057D01*
X113834704Y-72913057D02*
X113834704Y-73008295D01*
X113834704Y-73008295D02*
X113787085Y-73151152D01*
X113787085Y-73151152D02*
X113215657Y-73722580D01*
X113215657Y-73722580D02*
X113834704Y-73722580D01*
X109231133Y-72052542D02*
X109183514Y-72100161D01*
X109183514Y-72100161D02*
X109040657Y-72147780D01*
X109040657Y-72147780D02*
X108945419Y-72147780D01*
X108945419Y-72147780D02*
X108802562Y-72100161D01*
X108802562Y-72100161D02*
X108707324Y-72004923D01*
X108707324Y-72004923D02*
X108659705Y-71909685D01*
X108659705Y-71909685D02*
X108612086Y-71719209D01*
X108612086Y-71719209D02*
X108612086Y-71576352D01*
X108612086Y-71576352D02*
X108659705Y-71385876D01*
X108659705Y-71385876D02*
X108707324Y-71290638D01*
X108707324Y-71290638D02*
X108802562Y-71195400D01*
X108802562Y-71195400D02*
X108945419Y-71147780D01*
X108945419Y-71147780D02*
X109040657Y-71147780D01*
X109040657Y-71147780D02*
X109183514Y-71195400D01*
X109183514Y-71195400D02*
X109231133Y-71243019D01*
X110088276Y-71481114D02*
X110088276Y-72147780D01*
X109850181Y-71100161D02*
X109612086Y-71814447D01*
X109612086Y-71814447D02*
X110231133Y-71814447D01*
X123099533Y-63238742D02*
X123051914Y-63286361D01*
X123051914Y-63286361D02*
X122909057Y-63333980D01*
X122909057Y-63333980D02*
X122813819Y-63333980D01*
X122813819Y-63333980D02*
X122670962Y-63286361D01*
X122670962Y-63286361D02*
X122575724Y-63191123D01*
X122575724Y-63191123D02*
X122528105Y-63095885D01*
X122528105Y-63095885D02*
X122480486Y-62905409D01*
X122480486Y-62905409D02*
X122480486Y-62762552D01*
X122480486Y-62762552D02*
X122528105Y-62572076D01*
X122528105Y-62572076D02*
X122575724Y-62476838D01*
X122575724Y-62476838D02*
X122670962Y-62381600D01*
X122670962Y-62381600D02*
X122813819Y-62333980D01*
X122813819Y-62333980D02*
X122909057Y-62333980D01*
X122909057Y-62333980D02*
X123051914Y-62381600D01*
X123051914Y-62381600D02*
X123099533Y-62429219D01*
X123956676Y-62333980D02*
X123766200Y-62333980D01*
X123766200Y-62333980D02*
X123670962Y-62381600D01*
X123670962Y-62381600D02*
X123623343Y-62429219D01*
X123623343Y-62429219D02*
X123528105Y-62572076D01*
X123528105Y-62572076D02*
X123480486Y-62762552D01*
X123480486Y-62762552D02*
X123480486Y-63143504D01*
X123480486Y-63143504D02*
X123528105Y-63238742D01*
X123528105Y-63238742D02*
X123575724Y-63286361D01*
X123575724Y-63286361D02*
X123670962Y-63333980D01*
X123670962Y-63333980D02*
X123861438Y-63333980D01*
X123861438Y-63333980D02*
X123956676Y-63286361D01*
X123956676Y-63286361D02*
X124004295Y-63238742D01*
X124004295Y-63238742D02*
X124051914Y-63143504D01*
X124051914Y-63143504D02*
X124051914Y-62905409D01*
X124051914Y-62905409D02*
X124004295Y-62810171D01*
X124004295Y-62810171D02*
X123956676Y-62762552D01*
X123956676Y-62762552D02*
X123861438Y-62714933D01*
X123861438Y-62714933D02*
X123670962Y-62714933D01*
X123670962Y-62714933D02*
X123575724Y-62762552D01*
X123575724Y-62762552D02*
X123528105Y-62810171D01*
X123528105Y-62810171D02*
X123480486Y-62905409D01*
X112863333Y-64705580D02*
X112530000Y-64229390D01*
X112291905Y-64705580D02*
X112291905Y-63705580D01*
X112291905Y-63705580D02*
X112672857Y-63705580D01*
X112672857Y-63705580D02*
X112768095Y-63753200D01*
X112768095Y-63753200D02*
X112815714Y-63800819D01*
X112815714Y-63800819D02*
X112863333Y-63896057D01*
X112863333Y-63896057D02*
X112863333Y-64038914D01*
X112863333Y-64038914D02*
X112815714Y-64134152D01*
X112815714Y-64134152D02*
X112768095Y-64181771D01*
X112768095Y-64181771D02*
X112672857Y-64229390D01*
X112672857Y-64229390D02*
X112291905Y-64229390D01*
X113339524Y-64705580D02*
X113530000Y-64705580D01*
X113530000Y-64705580D02*
X113625238Y-64657961D01*
X113625238Y-64657961D02*
X113672857Y-64610342D01*
X113672857Y-64610342D02*
X113768095Y-64467485D01*
X113768095Y-64467485D02*
X113815714Y-64277009D01*
X113815714Y-64277009D02*
X113815714Y-63896057D01*
X113815714Y-63896057D02*
X113768095Y-63800819D01*
X113768095Y-63800819D02*
X113720476Y-63753200D01*
X113720476Y-63753200D02*
X113625238Y-63705580D01*
X113625238Y-63705580D02*
X113434762Y-63705580D01*
X113434762Y-63705580D02*
X113339524Y-63753200D01*
X113339524Y-63753200D02*
X113291905Y-63800819D01*
X113291905Y-63800819D02*
X113244286Y-63896057D01*
X113244286Y-63896057D02*
X113244286Y-64134152D01*
X113244286Y-64134152D02*
X113291905Y-64229390D01*
X113291905Y-64229390D02*
X113339524Y-64277009D01*
X113339524Y-64277009D02*
X113434762Y-64324628D01*
X113434762Y-64324628D02*
X113625238Y-64324628D01*
X113625238Y-64324628D02*
X113720476Y-64277009D01*
X113720476Y-64277009D02*
X113768095Y-64229390D01*
X113768095Y-64229390D02*
X113815714Y-64134152D01*
X109307333Y-63359380D02*
X108974000Y-62883190D01*
X108735905Y-63359380D02*
X108735905Y-62359380D01*
X108735905Y-62359380D02*
X109116857Y-62359380D01*
X109116857Y-62359380D02*
X109212095Y-62407000D01*
X109212095Y-62407000D02*
X109259714Y-62454619D01*
X109259714Y-62454619D02*
X109307333Y-62549857D01*
X109307333Y-62549857D02*
X109307333Y-62692714D01*
X109307333Y-62692714D02*
X109259714Y-62787952D01*
X109259714Y-62787952D02*
X109212095Y-62835571D01*
X109212095Y-62835571D02*
X109116857Y-62883190D01*
X109116857Y-62883190D02*
X108735905Y-62883190D01*
X110259714Y-63359380D02*
X109688286Y-63359380D01*
X109974000Y-63359380D02*
X109974000Y-62359380D01*
X109974000Y-62359380D02*
X109878762Y-62502238D01*
X109878762Y-62502238D02*
X109783524Y-62597476D01*
X109783524Y-62597476D02*
X109688286Y-62645095D01*
X112863333Y-72147780D02*
X112530000Y-71671590D01*
X112291905Y-72147780D02*
X112291905Y-71147780D01*
X112291905Y-71147780D02*
X112672857Y-71147780D01*
X112672857Y-71147780D02*
X112768095Y-71195400D01*
X112768095Y-71195400D02*
X112815714Y-71243019D01*
X112815714Y-71243019D02*
X112863333Y-71338257D01*
X112863333Y-71338257D02*
X112863333Y-71481114D01*
X112863333Y-71481114D02*
X112815714Y-71576352D01*
X112815714Y-71576352D02*
X112768095Y-71623971D01*
X112768095Y-71623971D02*
X112672857Y-71671590D01*
X112672857Y-71671590D02*
X112291905Y-71671590D01*
X113434762Y-71576352D02*
X113339524Y-71528733D01*
X113339524Y-71528733D02*
X113291905Y-71481114D01*
X113291905Y-71481114D02*
X113244286Y-71385876D01*
X113244286Y-71385876D02*
X113244286Y-71338257D01*
X113244286Y-71338257D02*
X113291905Y-71243019D01*
X113291905Y-71243019D02*
X113339524Y-71195400D01*
X113339524Y-71195400D02*
X113434762Y-71147780D01*
X113434762Y-71147780D02*
X113625238Y-71147780D01*
X113625238Y-71147780D02*
X113720476Y-71195400D01*
X113720476Y-71195400D02*
X113768095Y-71243019D01*
X113768095Y-71243019D02*
X113815714Y-71338257D01*
X113815714Y-71338257D02*
X113815714Y-71385876D01*
X113815714Y-71385876D02*
X113768095Y-71481114D01*
X113768095Y-71481114D02*
X113720476Y-71528733D01*
X113720476Y-71528733D02*
X113625238Y-71576352D01*
X113625238Y-71576352D02*
X113434762Y-71576352D01*
X113434762Y-71576352D02*
X113339524Y-71623971D01*
X113339524Y-71623971D02*
X113291905Y-71671590D01*
X113291905Y-71671590D02*
X113244286Y-71766828D01*
X113244286Y-71766828D02*
X113244286Y-71957304D01*
X113244286Y-71957304D02*
X113291905Y-72052542D01*
X113291905Y-72052542D02*
X113339524Y-72100161D01*
X113339524Y-72100161D02*
X113434762Y-72147780D01*
X113434762Y-72147780D02*
X113625238Y-72147780D01*
X113625238Y-72147780D02*
X113720476Y-72100161D01*
X113720476Y-72100161D02*
X113768095Y-72052542D01*
X113768095Y-72052542D02*
X113815714Y-71957304D01*
X113815714Y-71957304D02*
X113815714Y-71766828D01*
X113815714Y-71766828D02*
X113768095Y-71671590D01*
X113768095Y-71671590D02*
X113720476Y-71623971D01*
X113720476Y-71623971D02*
X113625238Y-71576352D01*
X124242533Y-73398742D02*
X124194914Y-73446361D01*
X124194914Y-73446361D02*
X124052057Y-73493980D01*
X124052057Y-73493980D02*
X123956819Y-73493980D01*
X123956819Y-73493980D02*
X123813962Y-73446361D01*
X123813962Y-73446361D02*
X123718724Y-73351123D01*
X123718724Y-73351123D02*
X123671105Y-73255885D01*
X123671105Y-73255885D02*
X123623486Y-73065409D01*
X123623486Y-73065409D02*
X123623486Y-72922552D01*
X123623486Y-72922552D02*
X123671105Y-72732076D01*
X123671105Y-72732076D02*
X123718724Y-72636838D01*
X123718724Y-72636838D02*
X123813962Y-72541600D01*
X123813962Y-72541600D02*
X123956819Y-72493980D01*
X123956819Y-72493980D02*
X124052057Y-72493980D01*
X124052057Y-72493980D02*
X124194914Y-72541600D01*
X124194914Y-72541600D02*
X124242533Y-72589219D01*
X124813962Y-72922552D02*
X124718724Y-72874933D01*
X124718724Y-72874933D02*
X124671105Y-72827314D01*
X124671105Y-72827314D02*
X124623486Y-72732076D01*
X124623486Y-72732076D02*
X124623486Y-72684457D01*
X124623486Y-72684457D02*
X124671105Y-72589219D01*
X124671105Y-72589219D02*
X124718724Y-72541600D01*
X124718724Y-72541600D02*
X124813962Y-72493980D01*
X124813962Y-72493980D02*
X125004438Y-72493980D01*
X125004438Y-72493980D02*
X125099676Y-72541600D01*
X125099676Y-72541600D02*
X125147295Y-72589219D01*
X125147295Y-72589219D02*
X125194914Y-72684457D01*
X125194914Y-72684457D02*
X125194914Y-72732076D01*
X125194914Y-72732076D02*
X125147295Y-72827314D01*
X125147295Y-72827314D02*
X125099676Y-72874933D01*
X125099676Y-72874933D02*
X125004438Y-72922552D01*
X125004438Y-72922552D02*
X124813962Y-72922552D01*
X124813962Y-72922552D02*
X124718724Y-72970171D01*
X124718724Y-72970171D02*
X124671105Y-73017790D01*
X124671105Y-73017790D02*
X124623486Y-73113028D01*
X124623486Y-73113028D02*
X124623486Y-73303504D01*
X124623486Y-73303504D02*
X124671105Y-73398742D01*
X124671105Y-73398742D02*
X124718724Y-73446361D01*
X124718724Y-73446361D02*
X124813962Y-73493980D01*
X124813962Y-73493980D02*
X125004438Y-73493980D01*
X125004438Y-73493980D02*
X125099676Y-73446361D01*
X125099676Y-73446361D02*
X125147295Y-73398742D01*
X125147295Y-73398742D02*
X125194914Y-73303504D01*
X125194914Y-73303504D02*
X125194914Y-73113028D01*
X125194914Y-73113028D02*
X125147295Y-73017790D01*
X125147295Y-73017790D02*
X125099676Y-72970171D01*
X125099676Y-72970171D02*
X125004438Y-72922552D01*
X118502133Y-73449542D02*
X118454514Y-73497161D01*
X118454514Y-73497161D02*
X118311657Y-73544780D01*
X118311657Y-73544780D02*
X118216419Y-73544780D01*
X118216419Y-73544780D02*
X118073562Y-73497161D01*
X118073562Y-73497161D02*
X117978324Y-73401923D01*
X117978324Y-73401923D02*
X117930705Y-73306685D01*
X117930705Y-73306685D02*
X117883086Y-73116209D01*
X117883086Y-73116209D02*
X117883086Y-72973352D01*
X117883086Y-72973352D02*
X117930705Y-72782876D01*
X117930705Y-72782876D02*
X117978324Y-72687638D01*
X117978324Y-72687638D02*
X118073562Y-72592400D01*
X118073562Y-72592400D02*
X118216419Y-72544780D01*
X118216419Y-72544780D02*
X118311657Y-72544780D01*
X118311657Y-72544780D02*
X118454514Y-72592400D01*
X118454514Y-72592400D02*
X118502133Y-72640019D01*
X118835467Y-72544780D02*
X119502133Y-72544780D01*
X119502133Y-72544780D02*
X119073562Y-73544780D01*
X111980742Y-67702780D02*
X111647409Y-67226590D01*
X111409314Y-67702780D02*
X111409314Y-66702780D01*
X111409314Y-66702780D02*
X111790266Y-66702780D01*
X111790266Y-66702780D02*
X111885504Y-66750400D01*
X111885504Y-66750400D02*
X111933123Y-66798019D01*
X111933123Y-66798019D02*
X111980742Y-66893257D01*
X111980742Y-66893257D02*
X111980742Y-67036114D01*
X111980742Y-67036114D02*
X111933123Y-67131352D01*
X111933123Y-67131352D02*
X111885504Y-67178971D01*
X111885504Y-67178971D02*
X111790266Y-67226590D01*
X111790266Y-67226590D02*
X111409314Y-67226590D01*
X112933123Y-67702780D02*
X112361695Y-67702780D01*
X112647409Y-67702780D02*
X112647409Y-66702780D01*
X112647409Y-66702780D02*
X112552171Y-66845638D01*
X112552171Y-66845638D02*
X112456933Y-66940876D01*
X112456933Y-66940876D02*
X112361695Y-66988495D01*
X113552171Y-66702780D02*
X113647409Y-66702780D01*
X113647409Y-66702780D02*
X113742647Y-66750400D01*
X113742647Y-66750400D02*
X113790266Y-66798019D01*
X113790266Y-66798019D02*
X113837885Y-66893257D01*
X113837885Y-66893257D02*
X113885504Y-67083733D01*
X113885504Y-67083733D02*
X113885504Y-67321828D01*
X113885504Y-67321828D02*
X113837885Y-67512304D01*
X113837885Y-67512304D02*
X113790266Y-67607542D01*
X113790266Y-67607542D02*
X113742647Y-67655161D01*
X113742647Y-67655161D02*
X113647409Y-67702780D01*
X113647409Y-67702780D02*
X113552171Y-67702780D01*
X113552171Y-67702780D02*
X113456933Y-67655161D01*
X113456933Y-67655161D02*
X113409314Y-67607542D01*
X113409314Y-67607542D02*
X113361695Y-67512304D01*
X113361695Y-67512304D02*
X113314076Y-67321828D01*
X113314076Y-67321828D02*
X113314076Y-67083733D01*
X113314076Y-67083733D02*
X113361695Y-66893257D01*
X113361695Y-66893257D02*
X113409314Y-66798019D01*
X113409314Y-66798019D02*
X113456933Y-66750400D01*
X113456933Y-66750400D02*
X113552171Y-66702780D01*
X109256533Y-70528542D02*
X109208914Y-70576161D01*
X109208914Y-70576161D02*
X109066057Y-70623780D01*
X109066057Y-70623780D02*
X108970819Y-70623780D01*
X108970819Y-70623780D02*
X108827962Y-70576161D01*
X108827962Y-70576161D02*
X108732724Y-70480923D01*
X108732724Y-70480923D02*
X108685105Y-70385685D01*
X108685105Y-70385685D02*
X108637486Y-70195209D01*
X108637486Y-70195209D02*
X108637486Y-70052352D01*
X108637486Y-70052352D02*
X108685105Y-69861876D01*
X108685105Y-69861876D02*
X108732724Y-69766638D01*
X108732724Y-69766638D02*
X108827962Y-69671400D01*
X108827962Y-69671400D02*
X108970819Y-69623780D01*
X108970819Y-69623780D02*
X109066057Y-69623780D01*
X109066057Y-69623780D02*
X109208914Y-69671400D01*
X109208914Y-69671400D02*
X109256533Y-69719019D01*
X109589867Y-69623780D02*
X110208914Y-69623780D01*
X110208914Y-69623780D02*
X109875581Y-70004733D01*
X109875581Y-70004733D02*
X110018438Y-70004733D01*
X110018438Y-70004733D02*
X110113676Y-70052352D01*
X110113676Y-70052352D02*
X110161295Y-70099971D01*
X110161295Y-70099971D02*
X110208914Y-70195209D01*
X110208914Y-70195209D02*
X110208914Y-70433304D01*
X110208914Y-70433304D02*
X110161295Y-70528542D01*
X110161295Y-70528542D02*
X110113676Y-70576161D01*
X110113676Y-70576161D02*
X110018438Y-70623780D01*
X110018438Y-70623780D02*
X109732724Y-70623780D01*
X109732724Y-70623780D02*
X109637486Y-70576161D01*
X109637486Y-70576161D02*
X109589867Y-70528542D01*
X111904542Y-70623780D02*
X111571209Y-70147590D01*
X111333114Y-70623780D02*
X111333114Y-69623780D01*
X111333114Y-69623780D02*
X111714066Y-69623780D01*
X111714066Y-69623780D02*
X111809304Y-69671400D01*
X111809304Y-69671400D02*
X111856923Y-69719019D01*
X111856923Y-69719019D02*
X111904542Y-69814257D01*
X111904542Y-69814257D02*
X111904542Y-69957114D01*
X111904542Y-69957114D02*
X111856923Y-70052352D01*
X111856923Y-70052352D02*
X111809304Y-70099971D01*
X111809304Y-70099971D02*
X111714066Y-70147590D01*
X111714066Y-70147590D02*
X111333114Y-70147590D01*
X112856923Y-70623780D02*
X112285495Y-70623780D01*
X112571209Y-70623780D02*
X112571209Y-69623780D01*
X112571209Y-69623780D02*
X112475971Y-69766638D01*
X112475971Y-69766638D02*
X112380733Y-69861876D01*
X112380733Y-69861876D02*
X112285495Y-69909495D01*
X113809304Y-70623780D02*
X113237876Y-70623780D01*
X113523590Y-70623780D02*
X113523590Y-69623780D01*
X113523590Y-69623780D02*
X113428352Y-69766638D01*
X113428352Y-69766638D02*
X113333114Y-69861876D01*
X113333114Y-69861876D02*
X113237876Y-69909495D01*
X112914133Y-63206980D02*
X112580800Y-62730790D01*
X112342705Y-63206980D02*
X112342705Y-62206980D01*
X112342705Y-62206980D02*
X112723657Y-62206980D01*
X112723657Y-62206980D02*
X112818895Y-62254600D01*
X112818895Y-62254600D02*
X112866514Y-62302219D01*
X112866514Y-62302219D02*
X112914133Y-62397457D01*
X112914133Y-62397457D02*
X112914133Y-62540314D01*
X112914133Y-62540314D02*
X112866514Y-62635552D01*
X112866514Y-62635552D02*
X112818895Y-62683171D01*
X112818895Y-62683171D02*
X112723657Y-62730790D01*
X112723657Y-62730790D02*
X112342705Y-62730790D01*
X113818895Y-62206980D02*
X113342705Y-62206980D01*
X113342705Y-62206980D02*
X113295086Y-62683171D01*
X113295086Y-62683171D02*
X113342705Y-62635552D01*
X113342705Y-62635552D02*
X113437943Y-62587933D01*
X113437943Y-62587933D02*
X113676038Y-62587933D01*
X113676038Y-62587933D02*
X113771276Y-62635552D01*
X113771276Y-62635552D02*
X113818895Y-62683171D01*
X113818895Y-62683171D02*
X113866514Y-62778409D01*
X113866514Y-62778409D02*
X113866514Y-63016504D01*
X113866514Y-63016504D02*
X113818895Y-63111742D01*
X113818895Y-63111742D02*
X113771276Y-63159361D01*
X113771276Y-63159361D02*
X113676038Y-63206980D01*
X113676038Y-63206980D02*
X113437943Y-63206980D01*
X113437943Y-63206980D02*
X113342705Y-63159361D01*
X113342705Y-63159361D02*
X113295086Y-63111742D01*
X112888733Y-69226780D02*
X112555400Y-68750590D01*
X112317305Y-69226780D02*
X112317305Y-68226780D01*
X112317305Y-68226780D02*
X112698257Y-68226780D01*
X112698257Y-68226780D02*
X112793495Y-68274400D01*
X112793495Y-68274400D02*
X112841114Y-68322019D01*
X112841114Y-68322019D02*
X112888733Y-68417257D01*
X112888733Y-68417257D02*
X112888733Y-68560114D01*
X112888733Y-68560114D02*
X112841114Y-68655352D01*
X112841114Y-68655352D02*
X112793495Y-68702971D01*
X112793495Y-68702971D02*
X112698257Y-68750590D01*
X112698257Y-68750590D02*
X112317305Y-68750590D01*
X113222067Y-68226780D02*
X113888733Y-68226780D01*
X113888733Y-68226780D02*
X113460162Y-69226780D01*
X112863333Y-66178780D02*
X112530000Y-65702590D01*
X112291905Y-66178780D02*
X112291905Y-65178780D01*
X112291905Y-65178780D02*
X112672857Y-65178780D01*
X112672857Y-65178780D02*
X112768095Y-65226400D01*
X112768095Y-65226400D02*
X112815714Y-65274019D01*
X112815714Y-65274019D02*
X112863333Y-65369257D01*
X112863333Y-65369257D02*
X112863333Y-65512114D01*
X112863333Y-65512114D02*
X112815714Y-65607352D01*
X112815714Y-65607352D02*
X112768095Y-65654971D01*
X112768095Y-65654971D02*
X112672857Y-65702590D01*
X112672857Y-65702590D02*
X112291905Y-65702590D01*
X113720476Y-65178780D02*
X113530000Y-65178780D01*
X113530000Y-65178780D02*
X113434762Y-65226400D01*
X113434762Y-65226400D02*
X113387143Y-65274019D01*
X113387143Y-65274019D02*
X113291905Y-65416876D01*
X113291905Y-65416876D02*
X113244286Y-65607352D01*
X113244286Y-65607352D02*
X113244286Y-65988304D01*
X113244286Y-65988304D02*
X113291905Y-66083542D01*
X113291905Y-66083542D02*
X113339524Y-66131161D01*
X113339524Y-66131161D02*
X113434762Y-66178780D01*
X113434762Y-66178780D02*
X113625238Y-66178780D01*
X113625238Y-66178780D02*
X113720476Y-66131161D01*
X113720476Y-66131161D02*
X113768095Y-66083542D01*
X113768095Y-66083542D02*
X113815714Y-65988304D01*
X113815714Y-65988304D02*
X113815714Y-65750209D01*
X113815714Y-65750209D02*
X113768095Y-65654971D01*
X113768095Y-65654971D02*
X113720476Y-65607352D01*
X113720476Y-65607352D02*
X113625238Y-65559733D01*
X113625238Y-65559733D02*
X113434762Y-65559733D01*
X113434762Y-65559733D02*
X113339524Y-65607352D01*
X113339524Y-65607352D02*
X113291905Y-65654971D01*
X113291905Y-65654971D02*
X113244286Y-65750209D01*
X109307333Y-64635742D02*
X109259714Y-64683361D01*
X109259714Y-64683361D02*
X109116857Y-64730980D01*
X109116857Y-64730980D02*
X109021619Y-64730980D01*
X109021619Y-64730980D02*
X108878762Y-64683361D01*
X108878762Y-64683361D02*
X108783524Y-64588123D01*
X108783524Y-64588123D02*
X108735905Y-64492885D01*
X108735905Y-64492885D02*
X108688286Y-64302409D01*
X108688286Y-64302409D02*
X108688286Y-64159552D01*
X108688286Y-64159552D02*
X108735905Y-63969076D01*
X108735905Y-63969076D02*
X108783524Y-63873838D01*
X108783524Y-63873838D02*
X108878762Y-63778600D01*
X108878762Y-63778600D02*
X109021619Y-63730980D01*
X109021619Y-63730980D02*
X109116857Y-63730980D01*
X109116857Y-63730980D02*
X109259714Y-63778600D01*
X109259714Y-63778600D02*
X109307333Y-63826219D01*
X110259714Y-64730980D02*
X109688286Y-64730980D01*
X109974000Y-64730980D02*
X109974000Y-63730980D01*
X109974000Y-63730980D02*
X109878762Y-63873838D01*
X109878762Y-63873838D02*
X109783524Y-63969076D01*
X109783524Y-63969076D02*
X109688286Y-64016695D01*
X109281933Y-66159742D02*
X109234314Y-66207361D01*
X109234314Y-66207361D02*
X109091457Y-66254980D01*
X109091457Y-66254980D02*
X108996219Y-66254980D01*
X108996219Y-66254980D02*
X108853362Y-66207361D01*
X108853362Y-66207361D02*
X108758124Y-66112123D01*
X108758124Y-66112123D02*
X108710505Y-66016885D01*
X108710505Y-66016885D02*
X108662886Y-65826409D01*
X108662886Y-65826409D02*
X108662886Y-65683552D01*
X108662886Y-65683552D02*
X108710505Y-65493076D01*
X108710505Y-65493076D02*
X108758124Y-65397838D01*
X108758124Y-65397838D02*
X108853362Y-65302600D01*
X108853362Y-65302600D02*
X108996219Y-65254980D01*
X108996219Y-65254980D02*
X109091457Y-65254980D01*
X109091457Y-65254980D02*
X109234314Y-65302600D01*
X109234314Y-65302600D02*
X109281933Y-65350219D01*
X109662886Y-65350219D02*
X109710505Y-65302600D01*
X109710505Y-65302600D02*
X109805743Y-65254980D01*
X109805743Y-65254980D02*
X110043838Y-65254980D01*
X110043838Y-65254980D02*
X110139076Y-65302600D01*
X110139076Y-65302600D02*
X110186695Y-65350219D01*
X110186695Y-65350219D02*
X110234314Y-65445457D01*
X110234314Y-65445457D02*
X110234314Y-65540695D01*
X110234314Y-65540695D02*
X110186695Y-65683552D01*
X110186695Y-65683552D02*
X109615267Y-66254980D01*
X109615267Y-66254980D02*
X110234314Y-66254980D01*
X123099533Y-61359142D02*
X123051914Y-61406761D01*
X123051914Y-61406761D02*
X122909057Y-61454380D01*
X122909057Y-61454380D02*
X122813819Y-61454380D01*
X122813819Y-61454380D02*
X122670962Y-61406761D01*
X122670962Y-61406761D02*
X122575724Y-61311523D01*
X122575724Y-61311523D02*
X122528105Y-61216285D01*
X122528105Y-61216285D02*
X122480486Y-61025809D01*
X122480486Y-61025809D02*
X122480486Y-60882952D01*
X122480486Y-60882952D02*
X122528105Y-60692476D01*
X122528105Y-60692476D02*
X122575724Y-60597238D01*
X122575724Y-60597238D02*
X122670962Y-60502000D01*
X122670962Y-60502000D02*
X122813819Y-60454380D01*
X122813819Y-60454380D02*
X122909057Y-60454380D01*
X122909057Y-60454380D02*
X123051914Y-60502000D01*
X123051914Y-60502000D02*
X123099533Y-60549619D01*
X124004295Y-60454380D02*
X123528105Y-60454380D01*
X123528105Y-60454380D02*
X123480486Y-60930571D01*
X123480486Y-60930571D02*
X123528105Y-60882952D01*
X123528105Y-60882952D02*
X123623343Y-60835333D01*
X123623343Y-60835333D02*
X123861438Y-60835333D01*
X123861438Y-60835333D02*
X123956676Y-60882952D01*
X123956676Y-60882952D02*
X124004295Y-60930571D01*
X124004295Y-60930571D02*
X124051914Y-61025809D01*
X124051914Y-61025809D02*
X124051914Y-61263904D01*
X124051914Y-61263904D02*
X124004295Y-61359142D01*
X124004295Y-61359142D02*
X123956676Y-61406761D01*
X123956676Y-61406761D02*
X123861438Y-61454380D01*
X123861438Y-61454380D02*
X123623343Y-61454380D01*
X123623343Y-61454380D02*
X123528105Y-61406761D01*
X123528105Y-61406761D02*
X123480486Y-61359142D01*
X109256533Y-67753580D02*
X108923200Y-67277390D01*
X108685105Y-67753580D02*
X108685105Y-66753580D01*
X108685105Y-66753580D02*
X109066057Y-66753580D01*
X109066057Y-66753580D02*
X109161295Y-66801200D01*
X109161295Y-66801200D02*
X109208914Y-66848819D01*
X109208914Y-66848819D02*
X109256533Y-66944057D01*
X109256533Y-66944057D02*
X109256533Y-67086914D01*
X109256533Y-67086914D02*
X109208914Y-67182152D01*
X109208914Y-67182152D02*
X109161295Y-67229771D01*
X109161295Y-67229771D02*
X109066057Y-67277390D01*
X109066057Y-67277390D02*
X108685105Y-67277390D01*
X109637486Y-66848819D02*
X109685105Y-66801200D01*
X109685105Y-66801200D02*
X109780343Y-66753580D01*
X109780343Y-66753580D02*
X110018438Y-66753580D01*
X110018438Y-66753580D02*
X110113676Y-66801200D01*
X110113676Y-66801200D02*
X110161295Y-66848819D01*
X110161295Y-66848819D02*
X110208914Y-66944057D01*
X110208914Y-66944057D02*
X110208914Y-67039295D01*
X110208914Y-67039295D02*
X110161295Y-67182152D01*
X110161295Y-67182152D02*
X109589867Y-67753580D01*
X109589867Y-67753580D02*
X110208914Y-67753580D01*
D11*
X106635333Y-72614787D02*
X106927867Y-72614787D01*
X106635333Y-73634787D02*
X106927867Y-73634787D01*
X106635333Y-68195187D02*
X106927867Y-68195187D01*
X106635333Y-69215187D02*
X106927867Y-69215187D01*
X115444176Y-72665784D02*
X115953624Y-72665784D01*
X115444176Y-73710784D02*
X115953624Y-73710784D01*
X106635333Y-71141587D02*
X106927867Y-71141587D01*
X106635333Y-72161587D02*
X106927867Y-72161587D01*
X120325933Y-62405800D02*
X120618467Y-62405800D01*
X120325933Y-63425800D02*
X120618467Y-63425800D01*
X115444176Y-63717732D02*
X115953624Y-63717732D01*
X115444176Y-64762732D02*
X115953624Y-64762732D01*
X106635333Y-62302387D02*
X106927867Y-62302387D01*
X106635333Y-63322387D02*
X106927867Y-63322387D01*
X115953624Y-72219442D02*
X115444176Y-72219442D01*
X115953624Y-71174442D02*
X115444176Y-71174442D01*
X126879133Y-72489600D02*
X127171667Y-72489600D01*
X126879133Y-73509600D02*
X127171667Y-73509600D01*
X121265733Y-72489600D02*
X121558267Y-72489600D01*
X121265733Y-73509600D02*
X121558267Y-73509600D01*
X125889200Y-61525600D02*
X126949200Y-61525600D01*
X125889200Y-62585600D02*
X125889200Y-61525600D01*
X125889200Y-63585600D02*
X125889200Y-63645600D01*
X125889200Y-63585600D02*
X128009200Y-63585600D01*
X125889200Y-63645600D02*
X128009200Y-63645600D01*
X128009200Y-63585600D02*
X128009200Y-63645600D01*
X115444176Y-66700416D02*
X115953624Y-66700416D01*
X115444176Y-67745416D02*
X115953624Y-67745416D01*
D12*
X128728200Y-70270400D02*
X128728200Y-69870400D01*
X128728200Y-66270400D02*
X128728200Y-65670400D01*
X128728200Y-65670400D02*
X128328200Y-65670400D01*
X128328200Y-70270400D02*
X128728200Y-70270400D01*
X128328200Y-65670400D02*
X128328200Y-64770400D01*
X119728200Y-70370400D02*
X119328200Y-70370400D01*
X119728200Y-65670400D02*
X119428200Y-65670400D01*
X119428200Y-65670400D02*
X119428200Y-66070400D01*
X119328200Y-70370400D02*
X119328200Y-69870400D01*
D11*
X106635333Y-69668387D02*
X106927867Y-69668387D01*
X106635333Y-70688387D02*
X106927867Y-70688387D01*
X115444176Y-69683100D02*
X115953624Y-69683100D01*
X115444176Y-70728100D02*
X115953624Y-70728100D01*
X115953624Y-63271390D02*
X115444176Y-63271390D01*
X115953624Y-62226390D02*
X115444176Y-62226390D01*
X115953624Y-69236758D02*
X115444176Y-69236758D01*
X115953624Y-68191758D02*
X115444176Y-68191758D01*
X115953624Y-66254074D02*
X115444176Y-66254074D01*
X115953624Y-65209074D02*
X115444176Y-65209074D01*
X106635333Y-63775587D02*
X106927867Y-63775587D01*
X106635333Y-64795587D02*
X106927867Y-64795587D01*
X106635333Y-65248787D02*
X106927867Y-65248787D01*
X106635333Y-66268787D02*
X106927867Y-66268787D01*
X120351333Y-60399200D02*
X120643867Y-60399200D01*
X120351333Y-61419200D02*
X120643867Y-61419200D01*
X106635333Y-66721987D02*
X106927867Y-66721987D01*
X106635333Y-67741987D02*
X106927867Y-67741987D01*
%LPC*%
D13*
X105919100Y-73124787D03*
X107644100Y-73124787D03*
X105919100Y-68705187D03*
X107644100Y-68705187D03*
D14*
X114786400Y-73188284D03*
X116611400Y-73188284D03*
D13*
X105919100Y-71651587D03*
X107644100Y-71651587D03*
X119609700Y-62915800D03*
X121334700Y-62915800D03*
D14*
X114786400Y-64240232D03*
X116611400Y-64240232D03*
D13*
X105919100Y-62812387D03*
X107644100Y-62812387D03*
D15*
X116611400Y-71696942D03*
X114786400Y-71696942D03*
D13*
X126162900Y-72999600D03*
X127887900Y-72999600D03*
X120549500Y-72999600D03*
X122274500Y-72999600D03*
D16*
X126949199Y-62585599D03*
D14*
X114786400Y-67222916D03*
X116611400Y-67222916D03*
D17*
X127838200Y-65270400D03*
X126568200Y-65270400D03*
X125298200Y-65270400D03*
X124028200Y-65270400D03*
X122758200Y-65270400D03*
X121488200Y-65270400D03*
X120218200Y-65270400D03*
X120218200Y-70670400D03*
X121488200Y-70670400D03*
X122758200Y-70670400D03*
X124028200Y-70670400D03*
X125298200Y-70670400D03*
X126568200Y-70670400D03*
X127838200Y-70670400D03*
D13*
X105919100Y-70178387D03*
X107644100Y-70178387D03*
D14*
X114786400Y-70205600D03*
X116611400Y-70205600D03*
D15*
X116611400Y-62748890D03*
X114786400Y-62748890D03*
X116611400Y-68714258D03*
X114786400Y-68714258D03*
X116611400Y-65731574D03*
X114786400Y-65731574D03*
D13*
X105919100Y-64285587D03*
X107644100Y-64285587D03*
X105919100Y-65758787D03*
X107644100Y-65758787D03*
X119635100Y-60909200D03*
X121360100Y-60909200D03*
X105919100Y-67231987D03*
X107644100Y-67231987D03*
M02*
